{
.appVersion = "113";
date = "2020-11-29 14:30:01 +0000";
designer = "Cruzine Design";
familyName = Pinky;
featurePrefixes = (
{
automatic = 1;
code = "languagesystem DFLT dflt;\012languagesystem latn dflt;\012languagesystem latn ROM;\012languagesystem latn MOL;\012";
name = Languagesystems;
}
);
features = (
{
automatic = 1;
code = "feature locl;\012";
name = aalt;
},
{
automatic = 1;
code = "script latn;\012language ROM;\012sub Scedilla by Scommaaccent;\012sub scedilla by scommaaccent;\012sub Tcedilla by Tcommaaccent;\012sub tcedilla by tcommaaccent;\012language MOL;\012sub Scedilla by Scommaaccent;\012sub scedilla by scommaaccent;\012sub Tcedilla by Tcommaaccent;\012sub tcedilla by tcommaaccent;\012";
name = locl;
}
);
fontMaster = (
{
ascender = 800;
capHeight = 700;
descender = -200;
id = "5E01EF65-6B73-4EC0-899B-CA0420E2F636";
weightValue = 0;
widthValue = 0;
xHeight = 500;
}
);
glyphs = (
{
glyphname = A;
lastChange = "2020-11-29 15:15:45 +0000";
layers = (
{
layerId = "5E01EF65-6B73-4EC0-899B-CA0420E2F636";
paths = (
{
closed = 1;
nodes = (
"323 212 OFFCURVE",
"330 229 OFFCURVE",
"320 242 CURVE",
"318 245 OFFCURVE",
"314 246 OFFCURVE",
"310 247 CURVE",
"305 249 OFFCURVE",
"301 250 OFFCURVE",
"303 257 CURVE",
"303 257 LINE",
"309 258 OFFCURVE",
"312 263 OFFCURVE",
"308 267 CURVE",
"306 270 OFFCURVE",
"299 271 OFFCURVE",
"295 270 CURVE",
"282 268 OFFCURVE",
"270 265 OFFCURVE",
"258 261 CURVE",
"250 259 OFFCURVE",
"242 255 OFFCURVE",
"234 253 CURVE",
"223 250 OFFCURVE",
"212 248 OFFCURVE",
"202 244 CURVE",
"188 238 OFFCURVE",
"172 237 OFFCURVE",
"165 220 CURVE",
"167 219 OFFCURVE",
"169 217 OFFCURVE",
"172 215 CURVE",
"168 213 OFFCURVE",
"163 211 OFFCURVE",
"160 208 CURVE",
"155 203 OFFCURVE",
"147 208 OFFCURVE",
"146 210 CURVE",
"143 222 OFFCURVE",
"130 218 OFFCURVE",
"123 226 CURVE",
"114 198 OFFCURVE",
"92 178 OFFCURVE",
"94 147 CURVE",
"93 148 OFFCURVE",
"92 149 OFFCURVE",
"91 149 CURVE",
"87 145 OFFCURVE",
"83 141 OFFCURVE",
"80 136 CURVE",
"75 129 OFFCURVE",
"70 122 OFFCURVE",
"67 116 CURVE",
"59 117 OFFCURVE",
"53 120 OFFCURVE",
"47 119 CURVE",
"39 118 OFFCURVE",
"37 121 OFFCURVE",
"34 127 CURVE",
"33 130 OFFCURVE",
"30 134 OFFCURVE",
"27 135 CURVE",
"17 141 OFFCURVE",
"14 147 OFFCURVE",
"17 158 CURVE",
"7 152 OFFCURVE",
"1 159 OFFCURVE",
"-4 165 CURVE",
"-6 167 OFFCURVE",
"-6 169 OFFCURVE",
"-6 171 CURVE",
"-3 180 OFFCURVE",
"-6 184 OFFCURVE",
"-16 184 CURVE",
"-24 184 OFFCURVE",
"-27 188 OFFCURVE",
"-27 196 CURVE",
"-28 200 OFFCURVE",
"-29 204 OFFCURVE",
"-29 208 CURVE",
"-30 211 OFFCURVE",
"-29 215 OFFCURVE",
"-27 218 CURVE",
"-19 237 OFFCURVE",
"-20 259 OFFCURVE",
"-5 276 CURVE",
"-3 279 OFFCURVE",
"-4 285 OFFCURVE",
"-2 288 CURVE",
"2 296 OFFCURVE",
"6 303 OFFCURVE",
"11 310 CURVE",
"17 318 OFFCURVE",
"20 325 OFFCURVE",
"9 332 CURVE",
"10 333 OFFCURVE",
"10 333 OFFCURVE",
"11 334 CURVE",
"15 333 OFFCURVE",
"18 333 OFFCURVE",
"22 332 CURVE",
"35 349 OFFCURVE",
"36 370 OFFCURVE",
"38 393 CURVE",
"38 393 OFFCURVE",
"40 396 OFFCURVE",
"44 399 CURVE",
"39 402 OFFCURVE",
"35 404 OFFCURVE",
"28 408 CURVE",
"32 409 OFFCURVE",
"36 412 OFFCURVE",
"37 411 CURVE",
"50 405 OFFCURVE",
"49 405 OFFCURVE",
"52 419 CURVE",
"59 415 OFFCURVE",
"61 418 OFFCURVE",
"63 425 CURVE",
"67 438 OFFCURVE",
"74 451 OFFCURVE",
"80 463 CURVE",
"83 471 OFFCURVE",
"85 478 OFFCURVE",
"89 488 CURVE",
"85 484 OFFCURVE",
"82 482 OFFCURVE",
"79 480 CURVE",
"80 487 OFFCURVE",
"78 493 OFFCURVE",
"85 501 CURVE",
"91 508 OFFCURVE",
"92 519 OFFCURVE",
"95 529 CURVE",
"101 529 OFFCURVE",
"101 529 OFFCURVE",
"104 518 CURVE",
"116 534 OFFCURVE",
"130 548 OFFCURVE",
"133 568 CURVE",
"133 569 OFFCURVE",
"133 571 OFFCURVE",
"134 572 CURVE",
"139 579 OFFCURVE",
"145 585 OFFCURVE",
"149 592 CURVE",
"153 599 OFFCURVE",
"154 607 OFFCURVE",
"157 615 CURVE",
"160 626 OFFCURVE",
"163 638 OFFCURVE",
"166 649 CURVE",
"167 651 OFFCURVE",
"169 653 OFFCURVE",
"168 655 CURVE",
"165 667 OFFCURVE",
"174 675 OFFCURVE",
"179 685 CURVE",
"181 689 OFFCURVE",
"188 692 OFFCURVE",
"194 694 CURVE",
"202 697 OFFCURVE",
"207 702 OFFCURVE",
"212 709 CURVE",
"221 721 OFFCURVE",
"246 728 OFFCURVE",
"261 724 CURVE",
"263 723 OFFCURVE",
"267 723 OFFCURVE",
"269 723 CURVE",
"280 723 OFFCURVE",
"291 724 OFFCURVE",
"302 724 CURVE",
"306 724 OFFCURVE",
"311 723 OFFCURVE",
"315 722 CURVE",
"322 721 OFFCURVE",
"326 718 OFFCURVE",
"330 711 CURVE",
"335 702 OFFCURVE",
"345 697 OFFCURVE",
"353 690 CURVE",
"356 688 OFFCURVE",
"358 684 OFFCURVE",
"361 681 CURVE",
"366 676 OFFCURVE",
"370 670 OFFCURVE",
"376 665 CURVE",
"383 658 OFFCURVE",
"388 651 OFFCURVE",
"388 642 CURVE",
"388 621 OFFCURVE",
"388 600 OFFCURVE",
"389 579 CURVE",
"389 577 OFFCURVE",
"390 574 OFFCURVE",
"391 572 CURVE",
"393 568 OFFCURVE",
"395 564 OFFCURVE",
"396 561 CURVE",
"397 556 OFFCURVE",
"398 551 OFFCURVE",
"400 546 CURVE",
"401 540 OFFCURVE",
"402 534 OFFCURVE",
"403 528 CURVE",
"404 527 OFFCURVE",
"403 525 OFFCURVE",
"404 523 CURVE",
"409 513 OFFCURVE",
"414 503 OFFCURVE",
"418 493 CURVE",
"422 480 OFFCURVE",
"424 466 OFFCURVE",
"427 452 CURVE",
"430 444 OFFCURVE",
"434 437 OFFCURVE",
"436 429 CURVE",
"440 416 OFFCURVE",
"443 404 OFFCURVE",
"447 391 CURVE",
"448 386 OFFCURVE",
"449 381 OFFCURVE",
"450 376 CURVE",
"452 369 OFFCURVE",
"453 362 OFFCURVE",
"454 355 CURVE",
"457 338 OFFCURVE",
"458 320 OFFCURVE",
"463 302 CURVE",
"469 277 OFFCURVE",
"464 252 OFFCURVE",
"466 227 CURVE",
"466 220 OFFCURVE",
"464 213 OFFCURVE",
"471 207 CURVE",
"473 206 OFFCURVE",
"471 198 OFFCURVE",
"469 194 CURVE",
"464 183 OFFCURVE",
"465 172 OFFCURVE",
"469 161 CURVE",
"469 159 OFFCURVE",
"470 157 OFFCURVE",
"470 156 CURVE",
"467 143 OFFCURVE",
"465 130 OFFCURVE",
"462 117 CURVE",
"461 114 OFFCURVE",
"460 111 OFFCURVE",
"458 108 CURVE",
"451 97 OFFCURVE",
"444 87 OFFCURVE",
"437 75 CURVE",
"430 83 OFFCURVE",
"427 76 OFFCURVE",
"425 72 CURVE",
"418 59 OFFCURVE",
"398 61 OFFCURVE",
"390 71 CURVE",
"382 63 OFFCURVE",
"379 72 OFFCURVE",
"378 76 CURVE",
"375 88 OFFCURVE",
"370 95 OFFCURVE",
"356 96 CURVE",
"347 97 OFFCURVE",
"346 108 OFFCURVE",
"345 115 CURVE",
"343 123 OFFCURVE",
"341 129 OFFCURVE",
"332 131 CURVE",
"327 132 OFFCURVE",
"321 134 OFFCURVE",
"320 142 CURVE",
"320 149 OFFCURVE",
"304 158 OFFCURVE",
"296 155 CURVE",
"294 155 OFFCURVE",
"293 152 OFFCURVE",
"290 148 CURVE",
"288 153 OFFCURVE",
"286 157 OFFCURVE",
"286 160 CURVE",
"287 162 OFFCURVE",
"292 165 OFFCURVE",
"295 166 CURVE",
"317 170 OFFCURVE",
"317 170 OFFCURVE",
"308 191 CURVE",
"307 194 OFFCURVE",
"310 198 OFFCURVE",
"311 202 CURVE",
"311 202 OFFCURVE",
"311 202 OFFCURVE",
"311 202 CURVE"
);
},
{
closed = 1;
nodes = (
"274 509 OFFCURVE",
"271 507 OFFCURVE",
"270 505 CURVE",
"262 492 OFFCURVE",
"254 478 OFFCURVE",
"246 464 CURVE",
"241 453 OFFCURVE",
"235 442 OFFCURVE",
"229 432 CURVE",
"220 418 OFFCURVE",
"212 404 OFFCURVE",
"203 390 CURVE",
"204 390 OFFCURVE",
"204 389 OFFCURVE",
"205 388 CURVE",
"220 392 OFFCURVE",
"236 396 OFFCURVE",
"252 400 CURVE",
"263 403 OFFCURVE",
"275 406 OFFCURVE",
"286 408 CURVE",
"290 409 OFFCURVE",
"294 409 OFFCURVE",
"299 409 CURVE",
"291 443 OFFCURVE",
"283 476 OFFCURVE",
"276 511 CURVE"
);
},
{
closed = 1;
nodes = (
"300 254 OFFCURVE",
"298 251 OFFCURVE",
"295 248 CURVE",
"293 246 OFFCURVE",
"291 244 OFFCURVE",
"289 245 CURVE",
"287 245 OFFCURVE",
"286 248 OFFCURVE",
"290 245 CURVE",
"294 251 OFFCURVE",
"298 256 OFFCURVE",
"301 261 CURVE",
"301 261 OFFCURVE",
"302 259 OFFCURVE",
"303 257 CURVE",
"303 257 OFFCURVE",
"303 257 OFFCURVE",
"303 257 CURVE"
);
},
{
closed = 1;
nodes = (
"307 202 OFFCURVE",
"303 202 OFFCURVE",
"299 203 CURVE",
"297 201 OFFCURVE",
"295 198 OFFCURVE",
"292 196 CURVE",
"291 196 OFFCURVE",
"291 197 OFFCURVE",
"290 197 CURVE",
"291 201 OFFCURVE",
"292 206 OFFCURVE",
"295 207 CURVE SMOOTH",
"298 208 OFFCURVE",
"302 206 OFFCURVE",
"306 204 CURVE SMOOTH",
"307 204 OFFCURVE",
"309 203 OFFCURVE",
"311 202 CURVE",
"311 202 OFFCURVE",
"311 202 OFFCURVE",
"311 202 CURVE"
);
}
);
width = 550;
}
);
unicode = 0041;
},
{
glyphname = B;
lastChange = "2020-11-29 14:47:12 +0000";
layers = (
{
layerId = "5E01EF65-6B73-4EC0-899B-CA0420E2F636";
paths = (
{
closed = 1;
nodes = (
"338 720 OFFCURVE",
"347 719 OFFCURVE",
"356 718 CURVE",
"371 708 OFFCURVE",
"385 698 OFFCURVE",
"399 688 CURVE",
"407 690 OFFCURVE",
"422 676 OFFCURVE",
"421 667 CURVE",
"421 663 OFFCURVE",
"421 658 OFFCURVE",
"423 657 CURVE",
"431 651 OFFCURVE",
"430 642 OFFCURVE",
"432 635 CURVE",
"434 621 OFFCURVE",
"434 607 OFFCURVE",
"435 593 CURVE",
"435 588 OFFCURVE",
"432 583 OFFCURVE",
"430 579 CURVE",
"425 568 OFFCURVE",
"422 557 OFFCURVE",
"422 545 CURVE",
"423 542 OFFCURVE",
"421 538 OFFCURVE",
"420 535 CURVE",
"414 526 OFFCURVE",
"410 518 OFFCURVE",
"415 507 CURVE",
"416 505 OFFCURVE",
"414 500 OFFCURVE",
"412 497 CURVE",
"408 490 OFFCURVE",
"402 485 OFFCURVE",
"398 479 CURVE",
"388 461 OFFCURVE",
"379 442 OFFCURVE",
"368 425 CURVE",
"363 417 OFFCURVE",
"364 412 OFFCURVE",
"369 405 CURVE",
"375 396 OFFCURVE",
"379 386 OFFCURVE",
"385 377 CURVE",
"392 367 OFFCURVE",
"393 355 OFFCURVE",
"405 347 CURVE",
"410 343 OFFCURVE",
"418 332 OFFCURVE",
"411 321 CURVE",
"410 320 OFFCURVE",
"412 317 OFFCURVE",
"412 315 CURVE",
"414 303 OFFCURVE",
"418 291 OFFCURVE",
"417 279 CURVE",
"417 265 OFFCURVE",
"412 251 OFFCURVE",
"410 237 CURVE",
"406 209 OFFCURVE",
"392 187 OFFCURVE",
"371 170 CURVE",
"357 158 OFFCURVE",
"344 144 OFFCURVE",
"326 140 CURVE",
"318 138 OFFCURVE",
"313 134 OFFCURVE",
"313 127 CURVE",
"310 126 OFFCURVE",
"307 125 OFFCURVE",
"306 124 CURVE",
"304 123 OFFCURVE",
"302 121 OFFCURVE",
"301 121 CURVE",
"292 125 OFFCURVE",
"285 119 OFFCURVE",
"278 116 CURVE",
"274 114 OFFCURVE",
"271 110 OFFCURVE",
"268 107 CURVE",
"269 106 OFFCURVE",
"269 105 OFFCURVE",
"270 104 CURVE",
"266 105 OFFCURVE",
"262 106 OFFCURVE",
"260 106 CURVE",
"257 102 OFFCURVE",
"256 96 OFFCURVE",
"252 93 CURVE",
"245 88 OFFCURVE",
"236 84 OFFCURVE",
"227 80 CURVE",
"222 78 OFFCURVE",
"215 78 OFFCURVE",
"210 76 CURVE",
"197 71 OFFCURVE",
"185 65 OFFCURVE",
"173 60 CURVE",
"171 59 OFFCURVE",
"168 60 OFFCURVE",
"166 61 CURVE",
"156 63 OFFCURVE",
"147 66 OFFCURVE",
"142 76 CURVE",
"142 77 OFFCURVE",
"139 77 OFFCURVE",
"138 77 CURVE",
"135 78 OFFCURVE",
"132 79 OFFCURVE",
"129 81 CURVE",
"126 82 OFFCURVE",
"123 84 OFFCURVE",
"120 86 CURVE",
"118 81 OFFCURVE",
"116 77 OFFCURVE",
"115 73 CURVE",
"114 69 OFFCURVE",
"115 65 OFFCURVE",
"117 62 CURVE",
"120 54 OFFCURVE",
"117 49 OFFCURVE",
"111 44 CURVE",
"104 38 OFFCURVE",
"98 32 OFFCURVE",
"92 26 CURVE",
"90 24 OFFCURVE",
"88 22 OFFCURVE",
"86 20 CURVE",
"80 16 OFFCURVE",
"74 12 OFFCURVE",
"68 8 CURVE",
"62 5 OFFCURVE",
"57 0 OFFCURVE",
"51 -1 CURVE",
"46 -2 OFFCURVE",
"40 1 OFFCURVE",
"35 4 CURVE",
"33 5 OFFCURVE",
"33 11 OFFCURVE",
"33 15 CURVE",
"31 16 OFFCURVE",
"28 17 OFFCURVE",
"24 18 CURVE",
"29 34 OFFCURVE",
"21 42 OFFCURVE",
"10 46 CURVE",
"11 52 OFFCURVE",
"14 60 OFFCURVE",
"12 62 CURVE",
"4 67 OFFCURVE",
"6 83 OFFCURVE",
"-9 80 CURVE",
"-10 95 OFFCURVE",
"-15 109 OFFCURVE",
"-13 122 CURVE",
"-10 144 OFFCURVE",
"-13 167 OFFCURVE",
"-4 190 CURVE",
"2 203 OFFCURVE",
"3 219 OFFCURVE",
"5 235 CURVE",
"7 251 OFFCURVE",
"9 267 OFFCURVE",
"14 282 CURVE",
"18 294 OFFCURVE",
"18 307 OFFCURVE",
"20 319 CURVE",
"22 331 OFFCURVE",
"20 343 OFFCURVE",
"21 355 CURVE",
"22 360 OFFCURVE",
"23 364 OFFCURVE",
"25 369 CURVE",
"28 381 OFFCURVE",
"33 392 OFFCURVE",
"35 404 CURVE",
"38 415 OFFCURVE",
"38 427 OFFCURVE",
"39 438 CURVE",
"39 445 OFFCURVE",
"37 452 OFFCURVE",
"39 459 CURVE",
"44 482 OFFCURVE",
"50 504 OFFCURVE",
"55 527 CURVE",
"59 547 OFFCURVE",
"61 566 OFFCURVE",
"64 586 CURVE",
"68 610 OFFCURVE",
"72 634 OFFCURVE",
"75 659 CURVE",
"76 660 OFFCURVE",
"76 661 OFFCURVE",
"76 662 CURVE",
"80 675 OFFCURVE",
"83 687 OFFCURVE",
"85 696 CURVE",
"92 701 OFFCURVE",
"98 705 OFFCURVE",
"103 709 CURVE",
"102 710 OFFCURVE",
"102 710 OFFCURVE",
"102 710 CURVE",
"107 711 OFFCURVE",
"112 711 OFFCURVE",
"118 711 CURVE",
"116 716 OFFCURVE",
"114 720 OFFCURVE",
"113 723 CURVE",
"113 724 OFFCURVE",
"114 725 OFFCURVE",
"114 726 CURVE",
"121 724 OFFCURVE",
"127 723 OFFCURVE",
"134 721 CURVE",
"142 718 OFFCURVE",
"150 715 OFFCURVE",
"159 714 CURVE",
"168 712 OFFCURVE",
"173 707 OFFCURVE",
"178 700 CURVE",
"180 696 OFFCURVE",
"183 693 OFFCURVE",
"186 691 CURVE",
"191 688 OFFCURVE",
"197 687 OFFCURVE",
"203 685 CURVE",
"209 696 OFFCURVE",
"223 693 OFFCURVE",
"234 697 CURVE",
"237 698 OFFCURVE",
"243 698 OFFCURVE",
"245 696 CURVE",
"251 691 OFFCURVE",
"255 692 OFFCURVE",
"260 696 CURVE",
"261 698 OFFCURVE",
"263 699 OFFCURVE",
"266 699 CURVE",
"277 702 OFFCURVE",
"288 705 OFFCURVE",
"299 707 CURVE",
"307 709 OFFCURVE",
"315 710 OFFCURVE",
"323 711 CURVE",
"325 714 OFFCURVE",
"327 718 OFFCURVE",
"329 721 CURVE"
);
},
{
closed = 1;
nodes = (
"272 537 OFFCURVE",
"299 572 OFFCURVE",
"298 594 CURVE",
"292 585 OFFCURVE",
"287 579 OFFCURVE",
"282 571 CURVE",
"280 586 OFFCURVE",
"278 598 OFFCURVE",
"276 611 CURVE",
"270 610 OFFCURVE",
"268 610 OFFCURVE",
"265 610 CURVE",
"264 610 OFFCURVE",
"263 611 OFFCURVE",
"263 612 CURVE",
"266 617 OFFCURVE",
"270 621 OFFCURVE",
"273 626 CURVE",
"268 628 OFFCURVE",
"263 630 OFFCURVE",
"257 633 CURVE",
"262 637 OFFCURVE",
"267 639 OFFCURVE",
"269 642 CURVE",
"271 645 OFFCURVE",
"271 651 OFFCURVE",
"269 651 CURVE",
"265 654 OFFCURVE",
"259 656 OFFCURVE",
"254 655 CURVE",
"240 654 OFFCURVE",
"227 651 OFFCURVE",
"214 648 CURVE",
"213 652 OFFCURVE",
"213 654 OFFCURVE",
"213 657 CURVE",
"206 650 OFFCURVE",
"200 644 OFFCURVE",
"196 637 CURVE",
"192 629 OFFCURVE",
"191 620 OFFCURVE",
"189 611 CURVE",
"187 605 OFFCURVE",
"184 600 OFFCURVE",
"183 594 CURVE",
"181 572 OFFCURVE",
"179 550 OFFCURVE",
"177 528 CURVE",
"177 523 OFFCURVE",
"174 519 OFFCURVE",
"174 514 CURVE",
"173 507 OFFCURVE",
"174 499 OFFCURVE",
"174 491 CURVE",
"173 478 OFFCURVE",
"171 466 OFFCURVE",
"170 452 CURVE",
"186 452 OFFCURVE",
"181 462 OFFCURVE",
"180 468 CURVE",
"185 472 OFFCURVE",
"189 476 OFFCURVE",
"193 478 CURVE",
"198 481 OFFCURVE",
"204 482 OFFCURVE",
"209 484 CURVE",
"218 488 OFFCURVE",
"228 507 OFFCURVE",
"225 516 CURVE"
);
},
{
closed = 1;
nodes = (
"167 275 OFFCURVE",
"183 281 OFFCURVE",
"199 288 CURVE",
"208 292 OFFCURVE",
"216 296 OFFCURVE",
"220 307 CURVE",
"227 326 OFFCURVE",
"211 340 OFFCURVE",
"209 357 CURVE",
"199 363 OFFCURVE",
"194 372 OFFCURVE",
"193 384 CURVE",
"192 387 OFFCURVE",
"189 390 OFFCURVE",
"187 393 CURVE",
"185 396 OFFCURVE",
"182 399 OFFCURVE",
"182 403 CURVE",
"179 413 OFFCURVE",
"173 415 OFFCURVE",
"164 413 CURVE",
"160 365 OFFCURVE",
"156 318 OFFCURVE",
"151 269 CURVE"
);
},
{
closed = 1;
nodes = (
"235 639 OFFCURVE",
"233 642 OFFCURVE",
"231 645 CURVE",
"241 650 OFFCURVE",
"247 646 OFFCURVE",
"248 636 CURVE",
"244 636 OFFCURVE",
"240 636 OFFCURVE",
"237 636 CURVE"
);
}
);
width = 500;
}
);
unicode = 0042;
},
{
glyphname = C;
lastChange = "2020-11-29 14:47:14 +0000";
layers = (
{
layerId = "5E01EF65-6B73-4EC0-899B-CA0420E2F636";
paths = (
{
closed = 1;
nodes = (
"423.709 683.009 OFFCURVE",
"427.731 683.847 OFFCURVE",
"431.785 684.693 CURVE",
"437.627 674.832 OFFCURVE",
"436.268 655.49 OFFCURVE",
"428.439 647.985 CURVE",
"423.829 643.565 OFFCURVE",
"421.973 639.229 OFFCURVE",
"422.428 632.649 CURVE",
"423.481 617.408 OFFCURVE",
"421.937 616.871 OFFCURVE",
"407.142 610.595 CURVE",
"402.314 608.547 OFFCURVE",
"398.692 602.592 OFFCURVE",
"395.627 597.727 CURVE",
"391.91 591.826 OFFCURVE",
"388.99 585.333 OFFCURVE",
"386.42 578.823 CURVE",
"383.794 572.171 OFFCURVE",
"382.01 565.187 OFFCURVE",
"379.935 558.595 CURVE",
"375.836 558.595 OFFCURVE",
"372.229 558.595 OFFCURVE",
"369.711 558.595 CURVE",
"361.676 568.158 OFFCURVE",
"354.736 578.365 OFFCURVE",
"345.713 586.163 CURVE",
"342.284 589.126 OFFCURVE",
"333.227 588.424 OFFCURVE",
"328.173 586.17 CURVE",
"305.979 576.272 OFFCURVE",
"286.226 562.671 OFFCURVE",
"272.553 541.971 CURVE",
"256.587 517.801 OFFCURVE",
"240.976 493.394 OFFCURVE",
"225.399 468.969 CURVE",
"218.538 458.212 OFFCURVE",
"213.384 446.737 OFFCURVE",
"214.05 433.527 CURVE",
"214.604 422.545 OFFCURVE",
"209.34 414.357 OFFCURVE",
"203.342 405.54 CURVE",
"197.578 397.065 OFFCURVE",
"194.263 386.599 OFFCURVE",
"191.359 376.577 CURVE",
"186.47 359.703 OFFCURVE",
"180.306 342.625 OFFCURVE",
"179.334 325.372 CURVE",
"178.574 311.864 OFFCURVE",
"171.561 301.752 OFFCURVE",
"168.608 289.837 CURVE",
"165.895 278.887 OFFCURVE",
"165.797 267.306 OFFCURVE",
"164.191 256.054 CURVE",
"163.669 252.402 OFFCURVE",
"162.36 248.758 OFFCURVE",
"160.828 245.375 CURVE",
"156.862 236.619 OFFCURVE",
"168.991 215.854 OFFCURVE",
"178.658 215.282 CURVE",
"198.972 214.079 OFFCURVE",
"218.196 219.266 OFFCURVE",
"237.331 225.195 CURVE",
"241.494 226.485 OFFCURVE",
"246.044 227.379 OFFCURVE",
"250.355 227.176 CURVE",
"263.451 226.562 OFFCURVE",
"275.592 229.033 OFFCURVE",
"288.124 233.296 CURVE",
"297.115 236.354 OFFCURVE",
"307.903 234.667 OFFCURVE",
"317.851 234.226 CURVE",
"328.716 233.746 OFFCURVE",
"339.522 232.056 OFFCURVE",
"350.383 231.318 CURVE",
"354.767 231.02 OFFCURVE",
"357.33 230.899 OFFCURVE",
"361.238 226.638 CURVE",
"370.422 216.621 OFFCURVE",
"377.905 205.955 OFFCURVE",
"384.537 194.232 CURVE",
"386.29 191.133 OFFCURVE",
"392.186 189.947 OFFCURVE",
"396.426 188.772 CURVE",
"405.787 186.179 OFFCURVE",
"407.009 180 OFFCURVE",
"408.623 171.418 CURVE",
"410.463 161.625 OFFCURVE",
"402.443 151.43 OFFCURVE",
"411.47 141.541 CURVE",
"414.07 138.692 OFFCURVE",
"410.932 127.235 OFFCURVE",
"407.047 122.49 CURVE",
"396.558 109.677 OFFCURVE",
"384.941 97.563 OFFCURVE",
"372.465 86.667 CURVE",
"360.785 76.464 OFFCURVE",
"346.274 69.386 OFFCURVE",
"335.13 58.717 CURVE",
"323.438 47.523 OFFCURVE",
"309.551 45.694 OFFCURVE",
"295.167 43.301 CURVE",
"289.451 42.35 OFFCURVE",
"283.625 41.255 OFFCURVE",
"278.316 39.083 CURVE",
"276.416 38.306 OFFCURVE",
"274.622 33.981 OFFCURVE",
"274.967 31.591 CURVE",
"276.234 22.812 OFFCURVE",
"271.926 18.457 OFFCURVE",
"263.522 15.866 CURVE",
"254.153 12.977 OFFCURVE",
"247.743 15.545 OFFCURVE",
"239.492 19.651 CURVE",
"234.789 21.992 OFFCURVE",
"226.171 16.539 OFFCURVE",
"219.352 14.476 CURVE",
"218.23 14.137 OFFCURVE",
"217.293 13.182 OFFCURVE",
"215.258 11.848 CURVE",
"214.602 16.052 OFFCURVE",
"214.091 19.317 OFFCURVE",
"213.413 23.66 CURVE",
"209.686 23.344 OFFCURVE",
"206.026 23.034 OFFCURVE",
"203.917 22.855 CURVE",
"202.863 18.518 OFFCURVE",
"202.897 14.854 OFFCURVE",
"201.097 12.8 CURVE",
"200.15 11.72 OFFCURVE",
"195.838 13.04 OFFCURVE",
"193.315 13.991 CURVE",
"185.508 16.932 OFFCURVE",
"177.831 20.215 OFFCURVE",
"169.657 23.547 CURVE",
"169.657 16.925 OFFCURVE",
"171.654 10.033 OFFCURVE",
"169.084 6.213 CURVE",
"166.613 2.539 OFFCURVE",
"159.416 2.043 OFFCURVE",
"153.886 0 CURVE",
"151.455 4.756 OFFCURVE",
"149.352 8.871 OFFCURVE",
"148.446 10.642 CURVE",
"152.67 15.823 OFFCURVE",
"156.193 20.146 OFFCURVE",
"160.039 24.865 CURVE",
"147.142 37.734 OFFCURVE",
"135.933 52.477 OFFCURVE",
"114.067 43.765 CURVE",
"110.667 52.318 OFFCURVE",
"106.694 52.239 OFFCURVE",
"98.992 46.619 CURVE",
"91.513 41.162 OFFCURVE",
"85.672 48.573 OFFCURVE",
"81.042 54.456 CURVE",
"65.538 74.159 OFFCURVE",
"51.163 94.91 OFFCURVE",
"34.123 113.177 CURVE",
"26.266 121.601 OFFCURVE",
"21.764 129.493 OFFCURVE",
"20.691 140.376 CURVE",
"20.388 143.454 OFFCURVE",
"19.147 147.207 OFFCURVE",
"16.996 149.208 CURVE",
"4.898 160.46 OFFCURVE",
"3.351 175.527 OFFCURVE",
"2.41 190.333 CURVE",
"1.446 205.493 OFFCURVE",
"2.672 220.78 OFFCURVE",
"2.377 236 CURVE",
"2.135 248.536 OFFCURVE",
"0.688 261.05 OFFCURVE",
"0.485 273.584 CURVE",
"0.31 284.375 OFFCURVE",
"1.102 295.185 OFFCURVE",
"1.539 305.983 CURVE",
"1.734 310.825 OFFCURVE",
"1.665 315.743 OFFCURVE",
"2.549 320.471 CURVE",
"3.19 323.902 OFFCURVE",
"5.176 327.087 OFFCURVE",
"6.604 330.364 CURVE",
"10.23 338.689 OFFCURVE",
"14.345 346.837 OFFCURVE",
"17.414 355.362 CURVE",
"22.256 368.815 OFFCURVE",
"26.391 382.522 OFFCURVE",
"30.857 396.111 CURVE",
"31.356 397.628 OFFCURVE",
"32.551 399.067 OFFCURVE",
"32.586 400.562 CURVE",
"32.764 408.245 OFFCURVE",
"32.668 415.934 OFFCURVE",
"32.668 425.454 CURVE",
"30.156 423.121 OFFCURVE",
"28.792 421.745 OFFCURVE",
"27.313 420.506 CURVE",
"25.33 418.843 OFFCURVE",
"23.258 417.286 OFFCURVE",
"21.225 415.684 CURVE",
"19.648 418.469 OFFCURVE",
"17.171 421.123 OFFCURVE",
"16.735 424.077 CURVE",
"16.245 427.398 OFFCURVE",
"17.596 430.991 OFFCURVE",
"18.218 434.921 CURVE",
"20.456 435.496 OFFCURVE",
"22.895 436.123 OFFCURVE",
"26.586 437.071 CURVE",
"17.467 453.664 OFFCURVE",
"21.234 463.667 OFFCURVE",
"41.78 464.587 CURVE",
"41.78 459.98 OFFCURVE",
"41.78 455.357 OFFCURVE",
"41.78 450.74 CURVE",
"51.624 450.964 OFFCURVE",
"53.948 454.901 OFFCURVE",
"52.41 468.094 CURVE",
"62.495 474.501 OFFCURVE",
"63.439 480.451 OFFCURVE",
"57.045 501.765 CURVE",
"61.27 500.98 OFFCURVE",
"64.781 500.328 OFFCURVE",
"68.218 499.689 CURVE",
"77.955 523.075 OFFCURVE",
"96.664 543.052 OFFCURVE",
"96.57 571.248 CURVE",
"105.181 574.918 OFFCURVE",
"107.393 583.215 OFFCURVE",
"107.353 592.944 CURVE",
"107.344 595.133 OFFCURVE",
"108.076 598.33 OFFCURVE",
"109.609 599.358 CURVE",
"120.821 606.87 OFFCURVE",
"121.042 607.231 OFFCURVE",
"113.47 618.142 CURVE",
"123.271 618.737 OFFCURVE",
"124.656 624.314 OFFCURVE",
"124.496 632.864 CURVE",
"124.435 636.119 OFFCURVE",
"130.965 640.972 OFFCURVE",
"135.393 642.523 CURVE",
"144.135 645.588 OFFCURVE",
"153.531 657.857 OFFCURVE",
"152.954 666.751 CURVE",
"152.857 668.239 OFFCURVE",
"156.825 670.28 OFFCURVE",
"159.194 671.54 CURVE",
"160.83 672.41 OFFCURVE",
"163.591 671.716 OFFCURVE",
"164.748 672.848 CURVE",
"173.596 681.498 OFFCURVE",
"181.483 691.296 OFFCURVE",
"191.113 698.912 CURVE",
"196.221 702.951 OFFCURVE",
"204.202 703.364 OFFCURVE",
"210.897 705.376 CURVE",
"212.452 705.844 OFFCURVE",
"214.278 705.791 OFFCURVE",
"215.597 706.6 CURVE",
"229.496 715.129 OFFCURVE",
"243.361 723.714 OFFCURVE",
"257.146 732.425 CURVE",
"273.502 742.76 OFFCURVE",
"290.252 751.567 OFFCURVE",
"309.047 757.534 CURVE",
"319.356 760.807 OFFCURVE",
"329.488 764.469 OFFCURVE",
"340.203 766 CURVE",
"343.409 766.458 OFFCURVE",
"347.506 765.906 OFFCURVE",
"350.123 764.186 CURVE",
"355.801 760.453 OFFCURVE",
"360.674 756.978 OFFCURVE",
"368.437 757.937 CURVE",
"379.535 759.308 OFFCURVE",
"389.576 754.379 OFFCURVE",
"397.414 746.901 CURVE",
"400.532 743.926 OFFCURVE",
"401.422 737.893 OFFCURVE",
"401.944 733.101 CURVE",
"402.629 726.818 OFFCURVE",
"402.934 721.868 OFFCURVE",
"411.21 720.828 CURVE",
"413.924 720.486 OFFCURVE",
"417.647 715.004 OFFCURVE",
"418 711.574 CURVE",
"418.945 702.338 OFFCURVE",
"418.322 692.94 OFFCURVE",
"418.322 681.885 CURVE"
);
},
{
closed = 1;
nodes = (
"14.32 395.46 OFFCURVE",
"12.434 399.477 OFFCURVE",
"12.355 403.528 CURVE SMOOTH",
"12.303 406.264 OFFCURVE",
"14.799 409.048 OFFCURVE",
"16.156 411.812 CURVE",
"18.145 409.724 OFFCURVE",
"22.009 407.383 OFFCURVE",
"21.768 405.598 CURVE SMOOTH",
"21.078 400.506 OFFCURVE",
"18.718 395.64 OFFCURVE",
"16.256 388.476 CURVE"
);
}
);
width = 500;
}
);
unicode = 0043;
},
{
glyphname = D;
lastChange = "2020-11-29 14:31:42 +0000";
layers = (
{
layerId = "5E01EF65-6B73-4EC0-899B-CA0420E2F636";
paths = (
{
closed = 1;
nodes = (
"11.956 207.3 OFFCURVE",
"-0.516 216.463 OFFCURVE",
"1.01 227.043 CURVE",
"4.601 230.371 OFFCURVE",
"9.599 235.299 OFFCURVE",
"3.897 243.308 CURVE",
"2.806 244.842 OFFCURVE",
"4.195 249.311 OFFCURVE",
"5.79 251.388 CURVE",
"12.866 260.606 OFFCURVE",
"12.536 268.945 OFFCURVE",
"3.593 276.52 CURVE",
"16.086 288.068 OFFCURVE",
"21.07 304.583 OFFCURVE",
"36.223 315.561 CURVE",
"25.469 318.307 OFFCURVE",
"24.629 323.894 OFFCURVE",
"25.464 331.551 CURVE",
"26.486 340.937 OFFCURVE",
"25.708 350.519 OFFCURVE",
"25.708 361.749 CURVE",
"29.603 363.426 OFFCURVE",
"30.918 367.677 OFFCURVE",
"27.158 374.449 CURVE",
"25.568 377.311 OFFCURVE",
"25.546 384.019 OFFCURVE",
"27.38 385.3 CURVE",
"36 391.321 OFFCURVE",
"33.751 400.414 OFFCURVE",
"35.14 408.309 CURVE",
"36.375 415.333 OFFCURVE",
"32.534 422.973 OFFCURVE",
"39.069 429.64 CURVE",
"40.203 430.797 OFFCURVE",
"35.292 437.881 OFFCURVE",
"32.37 443.878 CURVE",
"35.02 448.984 OFFCURVE",
"34.409 460.063 OFFCURVE",
"46.531 459.626 CURVE",
"47.806 454.729 OFFCURVE",
"48.861 450.672 OFFCURVE",
"49.917 446.615 CURVE",
"51.091 446.71 OFFCURVE",
"52.264 446.804 OFFCURVE",
"53.438 446.899 CURVE",
"54.146 451.712 OFFCURVE",
"54.855 456.524 OFFCURVE",
"55.717 462.38 CURVE",
"53.175 462.38 OFFCURVE",
"49.831 461.373 OFFCURVE",
"48.391 462.601 CURVE",
"45.808 464.803 OFFCURVE",
"43.003 468.331 OFFCURVE",
"42.965 471.339 CURVE",
"42.941 473.151 OFFCURVE",
"48.391 477.01 OFFCURVE",
"50.648 476.527 CURVE",
"59.583 474.614 OFFCURVE",
"63.967 476.448 OFFCURVE",
"62.447 486.435 CURVE",
"62.222 487.909 OFFCURVE",
"63.048 489.562 OFFCURVE",
"63.466 491.111 CURVE",
"66.218 501.303 OFFCURVE",
"70.681 511.244 OFFCURVE",
"63.987 521.939 CURVE",
"62.753 523.91 OFFCURVE",
"66.183 528.547 OFFCURVE",
"66.882 532.069 CURVE",
"67.4 534.681 OFFCURVE",
"67.155 537.501 OFFCURVE",
"66.814 540.173 CURVE",
"66.755 540.64 OFFCURVE",
"63.801 541.465 OFFCURVE",
"63.436 541.043 CURVE",
"61.606 538.926 OFFCURVE",
"59.412 536.632 OFFCURVE",
"58.81 534.058 CURVE",
"57.793 529.713 OFFCURVE",
"58.183 525.054 OFFCURVE",
"57.369 520.64 CURVE",
"56.98 518.532 OFFCURVE",
"55.186 516.684 OFFCURVE",
"54.028 514.718 CURVE",
"52.954 514.886 OFFCURVE",
"51.881 515.053 OFFCURVE",
"50.808 515.22 CURVE",
"50.354 522.705 OFFCURVE",
"49.307 530.209 OFFCURVE",
"49.567 537.668 CURVE",
"50.119 553.452 OFFCURVE",
"50.875 569.263 OFFCURVE",
"52.553 584.955 CURVE",
"53.175 590.769 OFFCURVE",
"56.318 596.419 OFFCURVE",
"58.831 601.905 CURVE",
"65.122 615.643 OFFCURVE",
"71.188 629.53 OFFCURVE",
"78.442 642.755 CURVE",
"81.221 647.821 OFFCURVE",
"86.991 651.24 OFFCURVE",
"91.381 655.427 CURVE",
"93.018 656.987 OFFCURVE",
"95.959 658.565 OFFCURVE",
"96 660.191 CURVE",
"96.246 670.384 OFFCURVE",
"103.255 678.844 OFFCURVE",
"103.709 688.505 CURVE",
"104.349 702.085 OFFCURVE",
"114.734 709.354 OFFCURVE",
"120.63 719.505 CURVE",
"122.258 722.307 OFFCURVE",
"122.861 725.686 OFFCURVE",
"124.236 728.661 CURVE",
"125.579 731.567 OFFCURVE",
"127.097 734.44 OFFCURVE",
"128.903 737.077 CURVE",
"137.317 749.366 OFFCURVE",
"150.576 751.39 OFFCURVE",
"163.839 753.875 CURVE",
"168.078 754.669 OFFCURVE",
"171.98 757.642 OFFCURVE",
"175.855 759.926 CURVE",
"187.766 766.947 OFFCURVE",
"206.162 765.723 OFFCURVE",
"216.505 756.845 CURVE",
"223.702 750.668 OFFCURVE",
"230.851 745.363 OFFCURVE",
"241.219 745.171 CURVE",
"251.809 744.976 OFFCURVE",
"256.946 735.842 OFFCURVE",
"259.952 727.847 CURVE",
"263.959 717.188 OFFCURVE",
"272.907 713.027 OFFCURVE",
"280.771 707.24 CURVE",
"287.389 702.37 OFFCURVE",
"294.892 698.689 OFFCURVE",
"301.431 693.727 CURVE",
"311.213 686.303 OFFCURVE",
"321.146 678.872 OFFCURVE",
"329.796 670.225 CURVE",
"337.927 662.096 OFFCURVE",
"344.015 651.954 OFFCURVE",
"351.888 643.526 CURVE",
"357.088 637.96 OFFCURVE",
"364.618 634.552 OFFCURVE",
"369.731 628.928 CURVE",
"376.5 621.484 OFFCURVE",
"381.423 612.377 OFFCURVE",
"388.078 604.809 CURVE",
"394.173 597.877 OFFCURVE",
"400.583 590.197 OFFCURVE",
"408.537 586.176 CURVE",
"419.247 580.761 OFFCURVE",
"424.734 572.379 OFFCURVE",
"430.112 562.662 CURVE",
"433.609 556.342 OFFCURVE",
"439.062 551.104 OFFCURVE",
"443.644 545.385 CURVE",
"444.237 544.645 OFFCURVE",
"445.126 544.028 OFFCURVE",
"445.435 543.19 CURVE",
"452.258 524.646 OFFCURVE",
"465.382 510.311 OFFCURVE",
"476.743 494.651 CURVE",
"486.976 480.547 OFFCURVE",
"495.336 464.925 OFFCURVE",
"503.111 449.27 CURVE",
"506.485 442.475 OFFCURVE",
"506.339 433.924 OFFCURVE",
"507.751 426.164 CURVE",
"508.155 423.946 OFFCURVE",
"507.591 420.693 OFFCURVE",
"508.881 419.633 CURVE",
"517.535 412.524 OFFCURVE",
"518.623 401.276 OFFCURVE",
"524.25 392.568 CURVE",
"525.246 391.026 OFFCURVE",
"526.074 388.927 OFFCURVE",
"525.935 387.167 CURVE",
"524.295 366.436 OFFCURVE",
"524.088 345.415 OFFCURVE",
"520.297 325.069 CURVE",
"514.131 291.977 OFFCURVE",
"503.188 260.708 OFFCURVE",
"483.616 232.22 CURVE",
"467.724 209.089 OFFCURVE",
"449.082 189.524 OFFCURVE",
"427.894 171.534 CURVE",
"412.798 158.716 OFFCURVE",
"399.734 143.533 OFFCURVE",
"385.205 130.005 CURVE",
"380.16 125.309 OFFCURVE",
"373.229 122.707 OFFCURVE",
"367.523 118.638 CURVE",
"355.164 109.822 OFFCURVE",
"341.145 105.309 OFFCURVE",
"327.038 100.123 CURVE",
"314.157 95.388 OFFCURVE",
"302.409 86.477 OFFCURVE",
"291.58 77.662 CURVE",
"285.013 72.316 OFFCURVE",
"280.385 70.459 OFFCURVE",
"271.879 72.868 CURVE",
"265.607 74.645 OFFCURVE",
"257.911 71.383 OFFCURVE",
"250.847 70.379 CURVE",
"247.239 69.866 OFFCURVE",
"243.562 69.655 OFFCURVE",
"240.027 68.832 CURVE",
"227.111 65.822 OFFCURVE",
"211.877 71.67 OFFCURVE",
"201.542 58.472 CURVE",
"199.242 55.535 OFFCURVE",
"195.444 53.81 OFFCURVE",
"192.495 51.337 CURVE",
"181.328 41.974 OFFCURVE",
"170.435 32.264 OFFCURVE",
"158.928 23.345 CURVE",
"156.573 21.52 OFFCURVE",
"152.007 22.333 OFFCURVE",
"148.459 22.323 CURVE",
"144.788 22.313 OFFCURVE",
"140.626 24.012 OFFCURVE",
"137.54 22.79 CURVE",
"130.391 19.958 OFFCURVE",
"123.658 15.993 OFFCURVE",
"116.951 12.149 CURVE",
"110.981 8.728 OFFCURVE",
"105.346 4.725 OFFCURVE",
"99.397 1.263 CURVE",
"97.836 0.354 OFFCURVE",
"94.717 -0.469 OFFCURVE",
"93.915 0.313 CURVE",
"86.696 7.342 OFFCURVE",
"78.065 13.745 OFFCURVE",
"73.285 22.262 CURVE",
"66.214 34.859 OFFCURVE",
"62.949 49.56 OFFCURVE",
"56.188 62.376 CURVE",
"50.549 73.065 OFFCURVE",
"40.82 81.636 OFFCURVE",
"35.449 92.415 CURVE",
"29.618 104.115 OFFCURVE",
"27.009 117.386 OFFCURVE",
"22.424 129.761 CURVE",
"20.556 134.803 OFFCURVE",
"16 138.992 OFFCURVE",
"14.73 144.084 CURVE",
"11.494 157.057 OFFCURVE",
"9.768 170.402 OFFCURVE",
"6.714 183.429 CURVE",
"5.461 188.773 OFFCURVE",
"2.347 193.681 OFFCURVE",
"-0.317 199.679 CURVE"
);
},
{
closed = 1;
nodes = (
"345.232 354.121 OFFCURVE",
"338.183 354.936 OFFCURVE",
"336.645 358.283 CURVE",
"333.521 365.079 OFFCURVE",
"333.035 373.202 OFFCURVE",
"332.083 380.855 CURVE",
"330.458 393.921 OFFCURVE",
"329.112 407.033 OFFCURVE",
"328.126 420.161 CURVE",
"327.918 422.924 OFFCURVE",
"330.292 425.794 OFFCURVE",
"330.566 428.699 CURVE",
"331.086 434.218 OFFCURVE",
"330.947 439.799 OFFCURVE",
"331.081 445.355 CURVE",
"327.515 444.898 OFFCURVE",
"323.957 444.37 OFFCURVE",
"320.38 444.024 CURVE",
"319.151 443.905 OFFCURVE",
"317.878 444.239 OFFCURVE",
"315.88 444.442 CURVE",
"315.88 449.743 OFFCURVE",
"315.679 454.77 OFFCURVE",
"315.929 459.775 CURVE",
"316.261 466.419 OFFCURVE",
"313.457 468.88 OFFCURVE",
"307.03 467.175 CURVE",
"305.323 466.722 OFFCURVE",
"303.629 466.223 OFFCURVE",
"303.348 466.144 CURVE",
"302.189 471.654 OFFCURVE",
"302.676 479.01 OFFCURVE",
"300.009 480.426 CURVE",
"284.934 488.43 OFFCURVE",
"274.69 500.951 OFFCURVE",
"264.625 513.979 CURVE",
"263.351 515.628 OFFCURVE",
"259.556 517.111 OFFCURVE",
"258.06 516.375 CURVE",
"255.98 515.351 OFFCURVE",
"254.254 512.324 OFFCURVE",
"253.669 509.85 CURVE",
"252.82 506.253 OFFCURVE",
"253.124 502.384 OFFCURVE",
"252.983 499.585 CURVE",
"247.1 498.01 OFFCURVE",
"239.642 497.937 OFFCURVE",
"238.722 495.447 CURVE",
"233.857 482.271 OFFCURVE",
"226.88 468.793 OFFCURVE",
"230.503 454.321 CURVE",
"234.407 438.728 OFFCURVE",
"230.742 425.121 OFFCURVE",
"224.027 411.459 CURVE",
"223.046 409.463 OFFCURVE",
"224.375 406.375 OFFCURVE",
"224.499 403.785 CURVE",
"225.07 391.86 OFFCURVE",
"226.194 379.919 OFFCURVE",
"225.886 368.015 CURVE",
"225.727 361.89 OFFCURVE",
"222.488 355.909 OFFCURVE",
"221.536 349.726 CURVE",
"220.323 341.851 OFFCURVE",
"220.418 333.775 OFFCURVE",
"219.201 325.901 CURVE",
"218.035 318.359 OFFCURVE",
"213.922 310.736 OFFCURVE",
"220.769 305.565 CURVE",
"216.976 292.227 OFFCURVE",
"213.386 279.669 OFFCURVE",
"209.867 267.09 CURVE",
"209.616 266.193 OFFCURVE",
"209.492 264.717 OFFCURVE",
"209.994 264.252 CURVE",
"211.833 262.552 OFFCURVE",
"214.246 259.606 OFFCURVE",
"215.938 259.913 CURVE",
"228.307 262.154 OFFCURVE",
"241.171 263.53 OFFCURVE",
"252.694 268.141 CURVE",
"269.608 274.909 OFFCURVE",
"286.183 283.152 OFFCURVE",
"294.381 301.629 CURVE",
"296.021 305.323 OFFCURVE",
"300.089 308.41 OFFCURVE",
"303.733 310.642 CURVE",
"310.458 314.759 OFFCURVE",
"317.726 317.98 OFFCURVE",
"324.705 321.692 CURVE",
"327.232 323.035 OFFCURVE",
"329.392 325.359 OFFCURVE",
"332.042 326.132 CURVE",
"347.581 330.668 OFFCURVE",
"351.741 336.288 OFFCURVE",
"350.854 351.701 CURVE"
);
},
{
closed = 1;
nodes = (
"338.728 416.79 OFFCURVE",
"339.753 416.734 OFFCURVE",
"340.778 416.678 CURVE",
"341.996 418.854 OFFCURVE",
"344.582 421.393 OFFCURVE",
"344.123 423.123 CURVE SMOOTH",
"343.361 425.991 OFFCURVE",
"340.64 428.339 OFFCURVE",
"338.745 430.906 CURVE",
"337.306 429.136 OFFCURVE",
"334.64 427.322 OFFCURVE",
"334.701 425.605 CURVE SMOOTH",
"334.806 422.653 OFFCURVE",
"336.611 419.762 OFFCURVE",
"337.703 416.846 CURVE"
);
}
);
width = 600;
}
);
unicode = 0044;
},
{
glyphname = E;
lastChange = "2020-11-29 14:47:21 +0000";
layers = (
{
layerId = "5E01EF65-6B73-4EC0-899B-CA0420E2F636";
paths = (
{
closed = 1;
nodes = (
"420 828 OFFCURVE",
"421 828 OFFCURVE",
"423 828 CURVE",
"431 824 OFFCURVE",
"441 820 OFFCURVE",
"449 814 CURVE SMOOTH",
"455 809 OFFCURVE",
"463 803 OFFCURVE",
"464 796 CURVE SMOOTH",
"466 784 OFFCURVE",
"471 779 OFFCURVE",
"482 776 CURVE SMOOTH",
"487 774 OFFCURVE",
"495 772 OFFCURVE",
"490 762 CURVE SMOOTH",
"488 758 OFFCURVE",
"489 752 OFFCURVE",
"490 747 CURVE SMOOTH",
"495 734 OFFCURVE",
"501 721 OFFCURVE",
"506 710 CURVE",
"499 702 OFFCURVE",
"493 694 OFFCURVE",
"486 688 CURVE SMOOTH",
"475 678 OFFCURVE",
"462 672 OFFCURVE",
"451 663 CURVE SMOOTH",
"434 649 OFFCURVE",
"417 647 OFFCURVE",
"401 661 CURVE SMOOTH",
"392 670 OFFCURVE",
"385 669 OFFCURVE",
"377 661 CURVE SMOOTH",
"376 659 OFFCURVE",
"372 659 OFFCURVE",
"371 660 CURVE SMOOTH",
"362 666 OFFCURVE",
"357 663 OFFCURVE",
"354 653 CURVE",
"336 658 OFFCURVE",
"320 654 OFFCURVE",
"311 641 CURVE",
"305 642 OFFCURVE",
"299 642 OFFCURVE",
"295 645 CURVE SMOOTH",
"290 649 OFFCURVE",
"287 649 OFFCURVE",
"283 645 CURVE SMOOTH",
"281 644 OFFCURVE",
"278 644 OFFCURVE",
"275 643 CURVE SMOOTH",
"268 641 OFFCURVE",
"259 640 OFFCURVE",
"255 634 CURVE SMOOTH",
"246 622 OFFCURVE",
"236 623 OFFCURVE",
"224 627 CURVE SMOOTH",
"220 628 OFFCURVE",
"214 628 OFFCURVE",
"211 625 CURVE SMOOTH",
"205 617 OFFCURVE",
"199 608 OFFCURVE",
"194 599 CURVE SMOOTH",
"191 594 OFFCURVE",
"187 586 OFFCURVE",
"188 582 CURVE SMOOTH",
"192 571 OFFCURVE",
"188 564 OFFCURVE",
"184 555 CURVE SMOOTH",
"181 545 OFFCURVE",
"180 534 OFFCURVE",
"177 523 CURVE",
"178 522 OFFCURVE",
"179 522 OFFCURVE",
"180 521 CURVE",
"202 527 OFFCURVE",
"224 533 OFFCURVE",
"246 540 CURVE SMOOTH",
"267 546 OFFCURVE",
"287 555 OFFCURVE",
"308 560 CURVE SMOOTH",
"320 562 OFFCURVE",
"333 566 OFFCURVE",
"345 558 CURVE SMOOTH",
"347 556 OFFCURVE",
"352 558 OFFCURVE",
"356 558 CURVE",
"360 555 OFFCURVE",
"365 554 OFFCURVE",
"370 554 CURVE SMOOTH",
"379 555 OFFCURVE",
"395 550 OFFCURVE",
"397 543 CURVE SMOOTH",
"400 532 OFFCURVE",
"401 520 OFFCURVE",
"412 513 CURVE",
"408 511 OFFCURVE",
"406 510 OFFCURVE",
"403 509 CURVE",
"404 508 OFFCURVE",
"405 508 OFFCURVE",
"406 508 CURVE",
"407 498 OFFCURVE",
"407 489 OFFCURVE",
"408 478 CURVE",
"410 479 OFFCURVE",
"413 480 OFFCURVE",
"415 480 CURVE SMOOTH",
"420 479 OFFCURVE",
"425 478 OFFCURVE",
"430 476 CURVE",
"428 472 OFFCURVE",
"426 467 OFFCURVE",
"422 465 CURVE SMOOTH",
"401 450 OFFCURVE",
"380 436 OFFCURVE",
"358 422 CURVE SMOOTH",
"357 421 OFFCURVE",
"355 421 OFFCURVE",
"354 420 CURVE SMOOTH",
"337 415 OFFCURVE",
"319 411 OFFCURVE",
"304 401 CURVE SMOOTH",
"302 400 OFFCURVE",
"299 398 OFFCURVE",
"298 399 CURVE SMOOTH",
"292 403 OFFCURVE",
"289 398 OFFCURVE",
"284 396 CURVE SMOOTH",
"283 395 OFFCURVE",
"279 395 OFFCURVE",
"278 396 CURVE SMOOTH",
"274 403 OFFCURVE",
"268 401 OFFCURVE",
"262 400 CURVE SMOOTH",
"245 398 OFFCURVE",
"231 389 OFFCURVE",
"213 392 CURVE SMOOTH",
"204 394 OFFCURVE",
"193 388 OFFCURVE",
"183 393 CURVE SMOOTH",
"181 394 OFFCURVE",
"177 392 OFFCURVE",
"174 391 CURVE SMOOTH",
"171 389 OFFCURVE",
"167 388 OFFCURVE",
"164 385 CURVE SMOOTH",
"161 382 OFFCURVE",
"156 379 OFFCURVE",
"156 375 CURVE SMOOTH",
"154 362 OFFCURVE",
"154 349 OFFCURVE",
"152 337 CURVE SMOOTH",
"150 319 OFFCURVE",
"147 302 OFFCURVE",
"145 285 CURVE SMOOTH",
"144 273 OFFCURVE",
"144 261 OFFCURVE",
"143 249 CURVE SMOOTH",
"143 245 OFFCURVE",
"141 240 OFFCURVE",
"142 236 CURVE SMOOTH",
"142 231 OFFCURVE",
"144 226 OFFCURVE",
"146 221 CURVE",
"149 223 OFFCURVE",
"152 224 OFFCURVE",
"156 226 CURVE SMOOTH",
"158 227 OFFCURVE",
"159 228 OFFCURVE",
"161 229 CURVE SMOOTH",
"174 233 OFFCURVE",
"188 234 OFFCURVE",
"198 244 CURVE SMOOTH",
"209 255 OFFCURVE",
"222 262 OFFCURVE",
"239 260 CURVE SMOOTH",
"240 260 OFFCURVE",
"243 261 OFFCURVE",
"245 262 CURVE SMOOTH",
"255 269 OFFCURVE",
"264 278 OFFCURVE",
"274 285 CURVE SMOOTH",
"281 290 OFFCURVE",
"288 296 OFFCURVE",
"296 300 CURVE SMOOTH",
"306 304 OFFCURVE",
"316 307 OFFCURVE",
"326 310 CURVE SMOOTH",
"336 314 OFFCURVE",
"347 307 OFFCURVE",
"352 298 CURVE SMOOTH",
"354 294 OFFCURVE",
"359 290 OFFCURVE",
"363 287 CURVE SMOOTH",
"371 283 OFFCURVE",
"377 278 OFFCURVE",
"380 268 CURVE SMOOTH",
"383 256 OFFCURVE",
"387 244 OFFCURVE",
"392 232 CURVE SMOOTH",
"394 226 OFFCURVE",
"399 219 OFFCURVE",
"399 213 CURVE SMOOTH",
"398 195 OFFCURVE",
"397 176 OFFCURVE",
"395 157 CURVE SMOOTH",
"394 153 OFFCURVE",
"392 148 OFFCURVE",
"389 145 CURVE SMOOTH",
"381 135 OFFCURVE",
"372 126 OFFCURVE",
"363 118 CURVE SMOOTH",
"356 111 OFFCURVE",
"348 105 OFFCURVE",
"340 100 CURVE SMOOTH",
"335 96 OFFCURVE",
"330 94 OFFCURVE",
"325 90 CURVE SMOOTH",
"317 84 OFFCURVE",
"307 80 OFFCURVE",
"302 70 CURVE SMOOTH",
"300 66 OFFCURVE",
"292 66 OFFCURVE",
"287 63 CURVE SMOOTH",
"269 56 OFFCURVE",
"255 39 OFFCURVE",
"233 40 CURVE SMOOTH",
"233 40 OFFCURVE",
"232 39 OFFCURVE",
"231 38 CURVE SMOOTH",
"216 27 OFFCURVE",
"199 23 OFFCURVE",
"180 28 CURVE SMOOTH",
"178 28 OFFCURVE",
"176 27 OFFCURVE",
"174 27 CURVE SMOOTH",
"172 26 OFFCURVE",
"169 26 OFFCURVE",
"166 26 CURVE SMOOTH",
"153 27 OFFCURVE",
"140 29 OFFCURVE",
"126 29 CURVE SMOOTH",
"122 29 OFFCURVE",
"118 24 OFFCURVE",
"112 21 CURVE",
"116 17 OFFCURVE",
"120 16 OFFCURVE",
"120 14 CURVE SMOOTH",
"120 11 OFFCURVE",
"118 6 OFFCURVE",
"116 5 CURVE SMOOTH",
"107 3 OFFCURVE",
"97 2 OFFCURVE",
"88 1 CURVE SMOOTH",
"80 0 OFFCURVE",
"77 5 OFFCURVE",
"79 12 CURVE SMOOTH",
"83 24 OFFCURVE",
"84 35 OFFCURVE",
"72 43 CURVE SMOOTH",
"69 45 OFFCURVE",
"65 46 OFFCURVE",
"62 48 CURVE SMOOTH",
"59 50 OFFCURVE",
"56 51 OFFCURVE",
"54 53 CURVE SMOOTH",
"51 56 OFFCURVE",
"49 60 OFFCURVE",
"46 62 CURVE SMOOTH",
"26 75 OFFCURVE",
"13 92 OFFCURVE",
"6 115 CURVE SMOOTH",
"3 126 OFFCURVE",
"-1 136 OFFCURVE",
"-10 144 CURVE SMOOTH",
"-17 151 OFFCURVE",
"-26 161 OFFCURVE",
"-21 175 CURVE SMOOTH",
"-17 189 OFFCURVE",
"-15 204 OFFCURVE",
"-13 219 CURVE SMOOTH",
"-8 244 OFFCURVE",
"-4 270 OFFCURVE",
"0 295 CURVE SMOOTH",
"4 321 OFFCURVE",
"8 348 OFFCURVE",
"12 374 CURVE SMOOTH",
"12 379 OFFCURVE",
"14 383 OFFCURVE",
"15 388 CURVE SMOOTH",
"17 393 OFFCURVE",
"19 398 OFFCURVE",
"19 403 CURVE SMOOTH",
"19 417 OFFCURVE",
"18 432 OFFCURVE",
"19 446 CURVE SMOOTH",
"19 455 OFFCURVE",
"22 465 OFFCURVE",
"23 474 CURVE SMOOTH",
"24 482 OFFCURVE",
"25 489 OFFCURVE",
"33 493 CURVE SMOOTH",
"35 495 OFFCURVE",
"37 499 OFFCURVE",
"38 502 CURVE SMOOTH",
"40 510 OFFCURVE",
"41 519 OFFCURVE",
"43 528 CURVE SMOOTH",
"47 543 OFFCURVE",
"52 557 OFFCURVE",
"56 572 CURVE SMOOTH",
"59 583 OFFCURVE",
"63 594 OFFCURVE",
"66 604 CURVE SMOOTH",
"69 616 OFFCURVE",
"73 628 OFFCURVE",
"76 640 CURVE SMOOTH",
"79 652 OFFCURVE",
"83 665 OFFCURVE",
"85 677 CURVE SMOOTH",
"86 688 OFFCURVE",
"85 700 OFFCURVE",
"85 711 CURVE SMOOTH",
"85 713 OFFCURVE",
"83 716 OFFCURVE",
"81 718 CURVE SMOOTH",
"76 723 OFFCURVE",
"77 727 OFFCURVE",
"83 730 CURVE SMOOTH",
"86 731 OFFCURVE",
"89 732 OFFCURVE",
"92 734 CURVE SMOOTH",
"96 737 OFFCURVE",
"101 741 OFFCURVE",
"105 745 CURVE SMOOTH",
"109 749 OFFCURVE",
"113 752 OFFCURVE",
"116 756 CURVE SMOOTH",
"120 763 OFFCURVE",
"121 772 OFFCURVE",
"132 769 CURVE SMOOTH",
"133 769 OFFCURVE",
"135 771 OFFCURVE",
"136 772 CURVE SMOOTH",
"144 779 OFFCURVE",
"153 775 OFFCURVE",
"158 771 CURVE SMOOTH",
"166 764 OFFCURVE",
"172 766 OFFCURVE",
"180 768 CURVE SMOOTH",
"203 775 OFFCURVE",
"225 782 OFFCURVE",
"249 788 CURVE SMOOTH",
"264 792 OFFCURVE",
"278 802 OFFCURVE",
"295 801 CURVE SMOOTH",
"298 801 OFFCURVE",
"302 803 OFFCURVE",
"305 804 CURVE SMOOTH",
"316 807 OFFCURVE",
"325 814 OFFCURVE",
"337 812 CURVE SMOOTH",
"342 811 OFFCURVE",
"347 814 OFFCURVE",
"353 815 CURVE SMOOTH",
"366 817 OFFCURVE",
"379 819 OFFCURVE",
"392 821 CURVE SMOOTH",
"401 823 OFFCURVE",
"410 826 OFFCURVE",
"419 828 CURVE"
);
}
);
width = 500;
}
);
unicode = 0045;
},
{
glyphname = F;
lastChange = "2020-11-29 14:47:28 +0000";
layers = (
{
layerId = "5E01EF65-6B73-4EC0-899B-CA0420E2F636";
paths = (
{
closed = 1;
nodes = (
"-7 243 OFFCURVE",
"-13 242 OFFCURVE",
"-14 244 CURVE SMOOTH",
"-17 249 OFFCURVE",
"-20 255 OFFCURVE",
"-19 261 CURVE SMOOTH",
"-19 269 OFFCURVE",
"-16 278 OFFCURVE",
"-13 286 CURVE SMOOTH",
"-12 290 OFFCURVE",
"-10 294 OFFCURVE",
"-8 298 CURVE",
"-5 297 OFFCURVE",
"-2 297 OFFCURVE",
"2 296 CURVE",
"2 297 OFFCURVE",
"3 298 OFFCURVE",
"4 298 CURVE",
"2 300 OFFCURVE",
"1 303 OFFCURVE",
"-1 304 CURVE SMOOTH",
"-9 307 OFFCURVE",
"-10 312 OFFCURVE",
"-8 320 CURVE SMOOTH",
"-5 328 OFFCURVE",
"-3 337 OFFCURVE",
"-1 345 CURVE SMOOTH",
"2 354 OFFCURVE",
"5 355 OFFCURVE",
"20 349 CURVE",
"27 359 OFFCURVE",
"28 370 OFFCURVE",
"27 382 CURVE SMOOTH",
"26 394 OFFCURVE",
"27 406 OFFCURVE",
"29 418 CURVE SMOOTH",
"30 429 OFFCURVE",
"30 429 OFFCURVE",
"17 426 CURVE",
"18 430 OFFCURVE",
"18 436 OFFCURVE",
"19 436 CURVE SMOOTH",
"29 440 OFFCURVE",
"28 448 OFFCURVE",
"30 455 CURVE SMOOTH",
"33 466 OFFCURVE",
"38 476 OFFCURVE",
"42 487 CURVE",
"41 489 OFFCURVE",
"38 491 OFFCURVE",
"38 494 CURVE SMOOTH",
"39 503 OFFCURVE",
"41 511 OFFCURVE",
"42 520 CURVE SMOOTH",
"45 533 OFFCURVE",
"48 546 OFFCURVE",
"50 559 CURVE SMOOTH",
"51 566 OFFCURVE",
"50 566 OFFCURVE",
"61 569 CURVE",
"59 581 OFFCURVE",
"57 582 OFFCURVE",
"41 578 CURVE",
"44 581 OFFCURVE",
"46 583 OFFCURVE",
"48 585 CURVE SMOOTH",
"51 589 OFFCURVE",
"54 593 OFFCURVE",
"57 596 CURVE SMOOTH",
"61 601 OFFCURVE",
"65 606 OFFCURVE",
"68 610 CURVE SMOOTH",
"74 618 OFFCURVE",
"82 624 OFFCURVE",
"80 635 CURVE SMOOTH",
"80 636 OFFCURVE",
"80 638 OFFCURVE",
"80 639 CURVE SMOOTH",
"92 646 OFFCURVE",
"90 658 OFFCURVE",
"93 669 CURVE SMOOTH",
"93 670 OFFCURVE",
"94 671 OFFCURVE",
"95 673 CURVE SMOOTH",
"105 683 OFFCURVE",
"114 693 OFFCURVE",
"124 703 CURVE SMOOTH",
"135 715 OFFCURVE",
"149 721 OFFCURVE",
"164 725 CURVE SMOOTH",
"174 728 OFFCURVE",
"183 734 OFFCURVE",
"192 740 CURVE SMOOTH",
"214 756 OFFCURVE",
"240 761 OFFCURVE",
"264 771 CURVE SMOOTH",
"294 783 OFFCURVE",
"324 795 OFFCURVE",
"357 800 CURVE SMOOTH",
"362 801 OFFCURVE",
"367 804 OFFCURVE",
"372 805 CURVE SMOOTH",
"379 807 OFFCURVE",
"387 808 OFFCURVE",
"395 810 CURVE SMOOTH",
"422 821 OFFCURVE",
"450 818 OFFCURVE",
"479 819 CURVE SMOOTH",
"482 819 OFFCURVE",
"486 816 OFFCURVE",
"490 815 CURVE SMOOTH",
"506 811 OFFCURVE",
"522 808 OFFCURVE",
"535 796 CURVE SMOOTH",
"540 791 OFFCURVE",
"544 785 OFFCURVE",
"548 779 CURVE SMOOTH",
"555 766 OFFCURVE",
"562 752 OFFCURVE",
"569 739 CURVE SMOOTH",
"572 734 OFFCURVE",
"577 730 OFFCURVE",
"581 725 CURVE",
"579 723 OFFCURVE",
"575 720 OFFCURVE",
"572 716 CURVE",
"572 715 OFFCURVE",
"572 714 OFFCURVE",
"573 714 CURVE SMOOTH",
"578 711 OFFCURVE",
"587 707 OFFCURVE",
"586 706 CURVE SMOOTH",
"585 697 OFFCURVE",
"583 687 OFFCURVE",
"577 683 CURVE SMOOTH",
"559 671 OFFCURVE",
"540 661 OFFCURVE",
"521 652 CURVE SMOOTH",
"514 648 OFFCURVE",
"505 647 OFFCURVE",
"497 644 CURVE SMOOTH",
"495 644 OFFCURVE",
"494 642 OFFCURVE",
"493 640 CURVE",
"495 637 OFFCURVE",
"496 635 OFFCURVE",
"498 632 CURVE",
"498 631 OFFCURVE",
"497 630 OFFCURVE",
"497 629 CURVE",
"490 631 OFFCURVE",
"482 631 OFFCURVE",
"476 635 CURVE SMOOTH",
"464 643 OFFCURVE",
"452 641 OFFCURVE",
"444 628 CURVE SMOOTH",
"443 627 OFFCURVE",
"442 625 OFFCURVE",
"442 625 CURVE",
"437 625 OFFCURVE",
"433 627 OFFCURVE",
"431 625 CURVE SMOOTH",
"424 618 OFFCURVE",
"419 620 OFFCURVE",
"416 629 CURVE SMOOTH",
"416 630 OFFCURVE",
"415 630 OFFCURVE",
"415 630 CURVE SMOOTH",
"415 631 OFFCURVE",
"414 631 OFFCURVE",
"416 630 CURVE",
"411 625 OFFCURVE",
"407 620 OFFCURVE",
"402 618 CURVE SMOOTH",
"400 617 OFFCURVE",
"395 622 OFFCURVE",
"390 626 CURVE",
"390 622 OFFCURVE",
"391 619 OFFCURVE",
"391 615 CURVE",
"386 616 OFFCURVE",
"380 616 OFFCURVE",
"374 617 CURVE",
"373 616 OFFCURVE",
"373 614 OFFCURVE",
"372 613 CURVE",
"371 616 OFFCURVE",
"369 619 OFFCURVE",
"367 623 CURVE",
"361 616 OFFCURVE",
"357 611 OFFCURVE",
"353 606 CURVE SMOOTH",
"351 604 OFFCURVE",
"349 603 OFFCURVE",
"346 602 CURVE SMOOTH",
"338 602 OFFCURVE",
"329 598 OFFCURVE",
"320 598 CURVE SMOOTH",
"309 599 OFFCURVE",
"299 593 OFFCURVE",
"292 584 CURVE SMOOTH",
"284 574 OFFCURVE",
"276 565 OFFCURVE",
"264 560 CURVE SMOOTH",
"245 554 OFFCURVE",
"235 538 OFFCURVE",
"224 524 CURVE SMOOTH",
"220 519 OFFCURVE",
"221 510 OFFCURVE",
"220 503 CURVE SMOOTH",
"220 501 OFFCURVE",
"220 498 OFFCURVE",
"219 496 CURVE SMOOTH",
"207 486 OFFCURVE",
"207 473 OFFCURVE",
"212 460 CURVE",
"228 464 OFFCURVE",
"245 469 OFFCURVE",
"261 474 CURVE SMOOTH",
"278 478 OFFCURVE",
"295 484 OFFCURVE",
"311 488 CURVE SMOOTH",
"320 490 OFFCURVE",
"330 492 OFFCURVE",
"339 494 CURVE SMOOTH",
"346 495 OFFCURVE",
"354 495 OFFCURVE",
"360 498 CURVE SMOOTH",
"371 503 OFFCURVE",
"383 500 OFFCURVE",
"391 496 CURVE SMOOTH",
"408 488 OFFCURVE",
"427 489 OFFCURVE",
"443 481 CURVE SMOOTH",
"449 478 OFFCURVE",
"453 472 OFFCURVE",
"457 466 CURVE SMOOTH",
"458 465 OFFCURVE",
"454 461 OFFCURVE",
"452 456 CURVE",
"453 455 OFFCURVE",
"457 453 OFFCURVE",
"460 450 CURVE SMOOTH",
"465 446 OFFCURVE",
"473 443 OFFCURVE",
"474 438 CURVE SMOOTH",
"475 431 OFFCURVE",
"471 423 OFFCURVE",
"468 414 CURVE",
"472 412 OFFCURVE",
"477 410 OFFCURVE",
"482 406 CURVE SMOOTH",
"484 404 OFFCURVE",
"486 398 OFFCURVE",
"484 397 CURVE SMOOTH",
"475 388 OFFCURVE",
"466 378 OFFCURVE",
"456 370 CURVE SMOOTH",
"447 364 OFFCURVE",
"437 358 OFFCURVE",
"427 354 CURVE SMOOTH",
"412 348 OFFCURVE",
"395 345 OFFCURVE",
"381 337 CURVE SMOOTH",
"363 326 OFFCURVE",
"341 332 OFFCURVE",
"323 321 CURVE SMOOTH",
"321 320 OFFCURVE",
"319 320 OFFCURVE",
"318 320 CURVE SMOOTH",
"301 321 OFFCURVE",
"286 316 OFFCURVE",
"270 309 CURVE SMOOTH",
"262 306 OFFCURVE",
"253 306 OFFCURVE",
"246 298 CURVE SMOOTH",
"246 298 OFFCURVE",
"241 300 OFFCURVE",
"239 301 CURVE SMOOTH",
"236 302 OFFCURVE",
"233 305 OFFCURVE",
"230 304 CURVE SMOOTH",
"221 304 OFFCURVE",
"212 302 OFFCURVE",
"203 300 CURVE SMOOTH",
"197 299 OFFCURVE",
"195 301 OFFCURVE",
"193 306 CURVE SMOOTH",
"193 309 OFFCURVE",
"191 311 OFFCURVE",
"190 314 CURVE",
"187 312 OFFCURVE",
"182 310 OFFCURVE",
"181 307 CURVE SMOOTH",
"180 302 OFFCURVE",
"181 297 OFFCURVE",
"180 291 CURVE SMOOTH",
"179 280 OFFCURVE",
"177 269 OFFCURVE",
"176 258 CURVE SMOOTH",
"175 255 OFFCURVE",
"174 250 OFFCURVE",
"176 248 CURVE SMOOTH",
"179 243 OFFCURVE",
"178 239 OFFCURVE",
"176 233 CURVE SMOOTH",
"174 228 OFFCURVE",
"175 222 OFFCURVE",
"174 216 CURVE SMOOTH",
"174 212 OFFCURVE",
"172 207 OFFCURVE",
"170 203 CURVE SMOOTH",
"166 196 OFFCURVE",
"165 190 OFFCURVE",
"170 182 CURVE SMOOTH",
"173 177 OFFCURVE",
"174 171 OFFCURVE",
"169 165 CURVE SMOOTH",
"166 163 OFFCURVE",
"164 159 OFFCURVE",
"164 155 CURVE SMOOTH",
"161 141 OFFCURVE",
"159 126 OFFCURVE",
"157 112 CURVE SMOOTH",
"156 105 OFFCURVE",
"157 99 OFFCURVE",
"157 93 CURVE SMOOTH",
"155 72 OFFCURVE",
"151 53 OFFCURVE",
"132 41 CURVE SMOOTH",
"125 36 OFFCURVE",
"120 28 OFFCURVE",
"113 22 CURVE SMOOTH",
"107 18 OFFCURVE",
"100 15 OFFCURVE",
"93 11 CURVE SMOOTH",
"87 8 OFFCURVE",
"81 5 OFFCURVE",
"74 2 CURVE SMOOTH",
"67 -1 OFFCURVE",
"61 -1 OFFCURVE",
"56 6 CURVE SMOOTH",
"47 17 OFFCURVE",
"37 26 OFFCURVE",
"29 36 CURVE SMOOTH",
"23 45 OFFCURVE",
"19 55 OFFCURVE",
"15 64 CURVE SMOOTH",
"12 70 OFFCURVE",
"12 77 OFFCURVE",
"11 84 CURVE SMOOTH",
"11 85 OFFCURVE",
"11 87 OFFCURVE",
"10 87 CURVE SMOOTH",
"-8 94 OFFCURVE",
"-3 112 OFFCURVE",
"-9 124 CURVE SMOOTH",
"-13 129 OFFCURVE",
"-14 137 OFFCURVE",
"-23 136 CURVE",
"-25 130 OFFCURVE",
"-28 124 OFFCURVE",
"-30 118 CURVE",
"-31 118 OFFCURVE",
"-32 117 OFFCURVE",
"-33 117 CURVE",
"-35 122 OFFCURVE",
"-40 128 OFFCURVE",
"-40 133 CURVE SMOOTH",
"-39 144 OFFCURVE",
"-36 154 OFFCURVE",
"-34 165 CURVE SMOOTH",
"-34 165 OFFCURVE",
"-33 166 OFFCURVE",
"-34 166 CURVE SMOOTH",
"-35 182 OFFCURVE",
"-24 194 OFFCURVE",
"-19 208 CURVE",
"-17 207 OFFCURVE",
"-14 207 OFFCURVE",
"-12 206 CURVE SMOOTH",
"-1 205 OFFCURVE",
"5 212 OFFCURVE",
"2 223 CURVE SMOOTH",
"0 229 OFFCURVE",
"-1 236 OFFCURVE",
"-2 242 CURVE"
);
}
);
width = 550;
}
);
unicode = 0046;
},
{
glyphname = G;
lastChange = "2020-11-29 14:47:40 +0000";
layers = (
{
layerId = "5E01EF65-6B73-4EC0-899B-CA0420E2F636";
paths = (
{
closed = 1;
nodes = (
"107 650 OFFCURVE",
"122 664 OFFCURVE",
"130 684 CURVE",
"136 696 OFFCURVE",
"136 712 OFFCURVE",
"150 720 CURVE",
"157 724 OFFCURVE",
"159 731 OFFCURVE",
"163 739 CURVE",
"167 748 OFFCURVE",
"177 755 OFFCURVE",
"186 762 CURVE",
"193 767 OFFCURVE",
"200 771 OFFCURVE",
"202 781 CURVE",
"203 786 OFFCURVE",
"209 791 OFFCURVE",
"213 795 CURVE",
"225 806 OFFCURVE",
"238 816 OFFCURVE",
"253 824 CURVE",
"261 828 OFFCURVE",
"268 834 OFFCURVE",
"276 838 CURVE",
"287 843 OFFCURVE",
"298 847 OFFCURVE",
"310 851 CURVE",
"312 852 OFFCURVE",
"315 850 OFFCURVE",
"318 849 CURVE",
"317 847 OFFCURVE",
"317 843 OFFCURVE",
"315 841 CURVE",
"312 838 OFFCURVE",
"308 837 OFFCURVE",
"305 835 CURVE",
"313 829 OFFCURVE",
"327 829 OFFCURVE",
"331 838 CURVE",
"338 852 OFFCURVE",
"346 845 OFFCURVE",
"354 843 CURVE",
"358 842 OFFCURVE",
"362 839 OFFCURVE",
"365 838 CURVE",
"366 831 OFFCURVE",
"368 825 OFFCURVE",
"370 817 CURVE",
"376 817 OFFCURVE",
"381 817 OFFCURVE",
"386 817 CURVE",
"381 811 OFFCURVE",
"377 808 OFFCURVE",
"375 803 CURVE",
"373 801 OFFCURVE",
"376 796 OFFCURVE",
"377 793 CURVE",
"378 790 OFFCURVE",
"379 788 OFFCURVE",
"379 785 CURVE",
"380 782 OFFCURVE",
"380 778 OFFCURVE",
"381 777 CURVE",
"391 769 OFFCURVE",
"391 757 OFFCURVE",
"379 752 CURVE",
"340 737 OFFCURVE",
"312 708 OFFCURVE",
"284 678 CURVE",
"271 664 OFFCURVE",
"259 648 OFFCURVE",
"251 629 CURVE",
"247 617 OFFCURVE",
"238 606 OFFCURVE",
"232 594 CURVE",
"225 579 OFFCURVE",
"219 563 OFFCURVE",
"212 548 CURVE",
"211 545 OFFCURVE",
"209 542 OFFCURVE",
"207 539 CURVE",
"201 530 OFFCURVE",
"195 522 OFFCURVE",
"196 510 CURVE",
"196 505 OFFCURVE",
"191 499 OFFCURVE",
"189 494 CURVE",
"187 491 OFFCURVE",
"185 488 OFFCURVE",
"185 485 CURVE",
"181 463 OFFCURVE",
"172 442 OFFCURVE",
"162 421 CURVE",
"158 410 OFFCURVE",
"156 398 OFFCURVE",
"154 386 CURVE",
"150 369 OFFCURVE",
"146 352 OFFCURVE",
"141 335 CURVE",
"140 330 OFFCURVE",
"138 325 OFFCURVE",
"137 319 CURVE",
"136 313 OFFCURVE",
"136 306 OFFCURVE",
"135 300 CURVE",
"132 291 OFFCURVE",
"128 282 OFFCURVE",
"125 273 CURVE",
"124 270 OFFCURVE",
"122 267 OFFCURVE",
"122 263 CURVE",
"121 252 OFFCURVE",
"119 241 OFFCURVE",
"119 229 CURVE",
"119 222 OFFCURVE",
"120 214 OFFCURVE",
"123 207 CURVE",
"126 197 OFFCURVE",
"130 187 OFFCURVE",
"134 176 CURVE",
"138 168 OFFCURVE",
"145 165 OFFCURVE",
"158 170 CURVE",
"169 175 OFFCURVE",
"181 180 OFFCURVE",
"192 186 CURVE",
"202 190 OFFCURVE",
"206 199 OFFCURVE",
"209 209 CURVE",
"210 213 OFFCURVE",
"213 218 OFFCURVE",
"216 221 CURVE",
"224 228 OFFCURVE",
"231 233 OFFCURVE",
"243 233 CURVE",
"249 233 OFFCURVE",
"254 242 OFFCURVE",
"259 247 CURVE",
"264 251 OFFCURVE",
"268 255 OFFCURVE",
"271 260 CURVE",
"276 268 OFFCURVE",
"281 276 OFFCURVE",
"286 284 CURVE",
"285 285 OFFCURVE",
"284 285 OFFCURVE",
"283 286 CURVE",
"287 285 OFFCURVE",
"291 284 OFFCURVE",
"295 283 CURVE",
"292 290 OFFCURVE",
"289 295 OFFCURVE",
"287 300 CURVE",
"287 301 OFFCURVE",
"290 303 OFFCURVE",
"291 304 CURVE",
"291 307 OFFCURVE",
"290 312 OFFCURVE",
"291 312 CURVE",
"296 315 OFFCURVE",
"303 319 OFFCURVE",
"306 317 CURVE",
"313 311 OFFCURVE",
"317 315 OFFCURVE",
"321 320 CURVE",
"325 323 OFFCURVE",
"327 328 OFFCURVE",
"330 332 CURVE",
"338 340 OFFCURVE",
"332 348 OFFCURVE",
"327 352 CURVE",
"321 357 OFFCURVE",
"322 361 OFFCURVE",
"322 366 CURVE",
"322 370 OFFCURVE",
"326 375 OFFCURVE",
"324 377 CURVE",
"320 383 OFFCURVE",
"315 390 OFFCURVE",
"309 394 CURVE",
"303 398 OFFCURVE",
"295 399 OFFCURVE",
"288 401 CURVE",
"283 403 OFFCURVE",
"278 403 OFFCURVE",
"273 405 CURVE",
"264 408 OFFCURVE",
"262 415 OFFCURVE",
"267 424 CURVE",
"254 423 OFFCURVE",
"252 437 OFFCURVE",
"244 443 CURVE",
"238 448 OFFCURVE",
"233 454 OFFCURVE",
"228 459 CURVE",
"226 460 OFFCURVE",
"225 461 OFFCURVE",
"224 463 CURVE",
"221 470 OFFCURVE",
"217 477 OFFCURVE",
"215 485 CURVE",
"214 487 OFFCURVE",
"215 491 OFFCURVE",
"216 493 CURVE",
"222 499 OFFCURVE",
"229 504 OFFCURVE",
"235 510 CURVE",
"240 513 OFFCURVE",
"245 515 OFFCURVE",
"250 518 CURVE",
"256 522 OFFCURVE",
"262 525 OFFCURVE",
"268 529 CURVE",
"274 532 OFFCURVE",
"279 535 OFFCURVE",
"286 538 CURVE",
"299 542 OFFCURVE",
"312 547 OFFCURVE",
"326 549 CURVE",
"334 550 OFFCURVE",
"342 547 OFFCURVE",
"350 545 CURVE",
"362 541 OFFCURVE",
"374 537 OFFCURVE",
"386 534 CURVE",
"410 528 OFFCURVE",
"431 520 OFFCURVE",
"447 500 CURVE",
"455 490 OFFCURVE",
"466 483 OFFCURVE",
"473 472 CURVE",
"478 465 OFFCURVE",
"479 455 OFFCURVE",
"482 446 CURVE",
"484 442 OFFCURVE",
"487 438 OFFCURVE",
"490 436 CURVE",
"495 432 OFFCURVE",
"499 429 OFFCURVE",
"498 422 CURVE",
"498 415 OFFCURVE",
"501 409 OFFCURVE",
"502 402 CURVE",
"502 398 OFFCURVE",
"502 392 OFFCURVE",
"500 388 CURVE",
"497 378 OFFCURVE",
"494 368 OFFCURVE",
"495 357 CURVE",
"495 348 OFFCURVE",
"492 338 OFFCURVE",
"490 329 CURVE",
"488 316 OFFCURVE",
"487 303 OFFCURVE",
"483 291 CURVE",
"479 279 OFFCURVE",
"473 269 OFFCURVE",
"468 257 CURVE",
"466 251 OFFCURVE",
"460 246 OFFCURVE",
"465 238 CURVE",
"467 235 OFFCURVE",
"466 227 OFFCURVE",
"463 225 CURVE",
"451 210 OFFCURVE",
"438 196 OFFCURVE",
"430 179 CURVE",
"428 173 OFFCURVE",
"420 170 OFFCURVE",
"416 165 CURVE",
"406 153 OFFCURVE",
"398 139 OFFCURVE",
"387 128 CURVE",
"371 112 OFFCURVE",
"353 98 OFFCURVE",
"336 83 CURVE",
"332 80 OFFCURVE",
"329 74 OFFCURVE",
"326 70 CURVE",
"311 55 OFFCURVE",
"296 40 OFFCURVE",
"276 32 CURVE",
"273 30 OFFCURVE",
"271 27 OFFCURVE",
"269 25 CURVE",
"251 11 OFFCURVE",
"229 5 OFFCURVE",
"210 -6 CURVE",
"209 -7 OFFCURVE",
"209 -7 OFFCURVE",
"208 -7 CURVE",
"197 -5 OFFCURVE",
"189 -6 OFFCURVE",
"187 -20 CURVE",
"187 -21 OFFCURVE",
"181 -22 OFFCURVE",
"176 -23 CURVE",
"178 -17 OFFCURVE",
"179 -14 OFFCURVE",
"181 -9 CURVE",
"174 -10 OFFCURVE",
"168 -11 OFFCURVE",
"163 -12 CURVE",
"159 -12 OFFCURVE",
"152 -11 OFFCURVE",
"151 -9 CURVE",
"148 0 OFFCURVE",
"139 0 OFFCURVE",
"132 4 CURVE",
"126 7 OFFCURVE",
"119 10 OFFCURVE",
"113 13 CURVE",
"106 17 OFFCURVE",
"98 19 OFFCURVE",
"90 16 CURVE",
"89 15 OFFCURVE",
"87 17 OFFCURVE",
"86 17 CURVE",
"87 19 OFFCURVE",
"88 21 OFFCURVE",
"89 22 CURVE",
"72 40 OFFCURVE",
"51 54 OFFCURVE",
"38 77 CURVE",
"29 93 OFFCURVE",
"22 111 OFFCURVE",
"7 123 CURVE",
"0 128 OFFCURVE",
"-2 141 OFFCURVE",
"-3 151 CURVE",
"-4 163 OFFCURVE",
"-2 176 OFFCURVE",
"-15 183 CURVE",
"-17 185 OFFCURVE",
"-19 191 OFFCURVE",
"-18 192 CURVE",
"-11 204 OFFCURVE",
"-18 213 OFFCURVE",
"-21 223 CURVE",
"-22 230 OFFCURVE",
"-24 235 OFFCURVE",
"-20 242 CURVE",
"-18 245 OFFCURVE",
"-18 249 OFFCURVE",
"-18 253 CURVE",
"-20 273 OFFCURVE",
"-20 292 OFFCURVE",
"-9 311 CURVE",
"-5 317 OFFCURVE",
"-4 326 OFFCURVE",
"-4 334 CURVE",
"-4 345 OFFCURVE",
"0 357 OFFCURVE",
"-6 369 CURVE",
"-9 374 OFFCURVE",
"-5 382 OFFCURVE",
"-3 388 CURVE",
"-3 390 OFFCURVE",
"1 393 OFFCURVE",
"3 393 CURVE",
"10 393 OFFCURVE",
"13 397 OFFCURVE",
"15 402 CURVE",
"18 411 OFFCURVE",
"19 420 OFFCURVE",
"21 429 CURVE",
"24 438 OFFCURVE",
"26 447 OFFCURVE",
"30 454 CURVE",
"38 469 OFFCURVE",
"38 468 OFFCURVE",
"24 477 CURVE",
"26 479 OFFCURVE",
"28 480 OFFCURVE",
"30 481 CURVE",
"34 481 OFFCURVE",
"40 478 OFFCURVE",
"41 480 CURVE",
"45 484 OFFCURVE",
"46 490 OFFCURVE",
"47 496 CURVE",
"51 510 OFFCURVE",
"53 524 OFFCURVE",
"58 537 CURVE",
"63 550 OFFCURVE",
"72 562 OFFCURVE",
"78 576 CURVE",
"82 584 OFFCURVE",
"85 593 OFFCURVE",
"88 602 CURVE",
"91 612 OFFCURVE",
"93 623 OFFCURVE",
"96 633 CURVE",
"95 633 LINE"
);
},
{
closed = 1;
nodes = (
"92 632 OFFCURVE",
"88 630 OFFCURVE",
"81 628 CURVE",
"85 635 OFFCURVE",
"86 643 OFFCURVE",
"90 643 CURVE SMOOTH",
"97 645 OFFCURVE",
"93 637 OFFCURVE",
"95 633 CURVE",
"95 633 OFFCURVE",
"96 633 OFFCURVE",
"96 633 CURVE"
);
}
);
width = 555;
}
);
unicode = 0047;
},
{
glyphname = H;
lastChange = "2020-11-29 14:47:53 +0000";
layers = (
{
layerId = "5E01EF65-6B73-4EC0-899B-CA0420E2F636";
paths = (
{
closed = 1;
nodes = (
"75 723 OFFCURVE",
"78 721 OFFCURVE",
"81 720 CURVE",
"88 724 OFFCURVE",
"89 731 OFFCURVE",
"87 738 CURVE",
"85 747 OFFCURVE",
"89 753 OFFCURVE",
"96 758 CURVE",
"99 760 OFFCURVE",
"102 765 OFFCURVE",
"102 768 CURVE",
"100 780 OFFCURVE",
"111 785 OFFCURVE",
"115 794 CURVE",
"116 795 OFFCURVE",
"121 794 OFFCURVE",
"124 795 CURVE",
"132 797 OFFCURVE",
"140 800 OFFCURVE",
"148 802 CURVE",
"145 809 OFFCURVE",
"151 811 OFFCURVE",
"157 812 CURVE",
"167 814 OFFCURVE",
"164 806 OFFCURVE",
"166 801 CURVE",
"168 801 OFFCURVE",
"171 801 OFFCURVE",
"173 800 CURVE",
"176 798 OFFCURVE",
"179 795 OFFCURVE",
"179 793 CURVE",
"174 782 OFFCURVE",
"182 779 OFFCURVE",
"189 775 CURVE",
"201 769 OFFCURVE",
"202 766 OFFCURVE",
"204 751 CURVE",
"205 740 OFFCURVE",
"209 729 OFFCURVE",
"212 718 CURVE",
"213 715 OFFCURVE",
"216 713 OFFCURVE",
"216 710 CURVE",
"214 701 OFFCURVE",
"212 692 OFFCURVE",
"210 683 CURVE",
"209 679 OFFCURVE",
"207 676 OFFCURVE",
"207 672 CURVE",
"206 654 OFFCURVE",
"198 639 OFFCURVE",
"192 623 CURVE",
"188 614 OFFCURVE",
"188 604 OFFCURVE",
"185 595 CURVE",
"183 585 OFFCURVE",
"179 575 OFFCURVE",
"177 564 CURVE",
"175 557 OFFCURVE",
"174 550 OFFCURVE",
"173 543 CURVE",
"172 536 OFFCURVE",
"170 530 OFFCURVE",
"169 523 CURVE",
"166 513 OFFCURVE",
"163 502 OFFCURVE",
"160 492 CURVE",
"156 475 OFFCURVE",
"152 459 OFFCURVE",
"148 442 CURVE",
"147 438 OFFCURVE",
"147 433 OFFCURVE",
"146 426 CURVE",
"159 427 OFFCURVE",
"170 428 OFFCURVE",
"182 429 CURVE",
"197 431 OFFCURVE",
"212 433 OFFCURVE",
"227 436 CURVE",
"234 437 OFFCURVE",
"242 438 OFFCURVE",
"249 439 CURVE",
"251 439 OFFCURVE",
"254 438 OFFCURVE",
"257 438 CURVE",
"270 432 OFFCURVE",
"274 436 OFFCURVE",
"275 450 CURVE",
"276 464 OFFCURVE",
"279 478 OFFCURVE",
"281 492 CURVE",
"282 503 OFFCURVE",
"282 514 OFFCURVE",
"284 525 CURVE",
"286 534 OFFCURVE",
"283 541 OFFCURVE",
"280 548 CURVE",
"280 549 OFFCURVE",
"280 550 OFFCURVE",
"280 551 CURVE",
"281 556 OFFCURVE",
"284 561 OFFCURVE",
"284 565 CURVE",
"284 570 OFFCURVE",
"283 574 OFFCURVE",
"282 579 CURVE",
"285 580 OFFCURVE",
"288 580 OFFCURVE",
"290 580 CURVE",
"293 597 OFFCURVE",
"294 614 OFFCURVE",
"299 630 CURVE",
"303 643 OFFCURVE",
"303 655 OFFCURVE",
"299 668 CURVE",
"298 669 OFFCURVE",
"299 672 OFFCURVE",
"300 673 CURVE",
"306 683 OFFCURVE",
"306 694 OFFCURVE",
"307 705 CURVE",
"307 711 OFFCURVE",
"310 716 OFFCURVE",
"312 721 CURVE",
"315 730 OFFCURVE",
"319 738 OFFCURVE",
"322 747 CURVE",
"322 748 OFFCURVE",
"322 750 OFFCURVE",
"322 751 CURVE",
"316 774 OFFCURVE",
"333 785 OFFCURVE",
"346 798 CURVE",
"348 800 OFFCURVE",
"353 802 OFFCURVE",
"357 802 CURVE",
"366 804 OFFCURVE",
"376 806 OFFCURVE",
"386 807 CURVE",
"396 808 OFFCURVE",
"404 805 OFFCURVE",
"408 795 CURVE",
"409 793 OFFCURVE",
"411 790 OFFCURVE",
"413 788 CURVE",
"419 781 OFFCURVE",
"426 775 OFFCURVE",
"432 768 CURVE",
"434 765 OFFCURVE",
"436 761 OFFCURVE",
"436 758 CURVE",
"435 749 OFFCURVE",
"438 741 OFFCURVE",
"443 733 CURVE",
"450 719 OFFCURVE",
"448 704 OFFCURVE",
"445 689 CURVE",
"443 676 OFFCURVE",
"441 663 OFFCURVE",
"439 650 CURVE",
"439 648 OFFCURVE",
"436 645 OFFCURVE",
"436 642 CURVE",
"435 639 OFFCURVE",
"436 634 OFFCURVE",
"435 631 CURVE",
"434 625 OFFCURVE",
"431 619 OFFCURVE",
"432 613 CURVE",
"433 599 OFFCURVE",
"422 586 OFFCURVE",
"430 572 CURVE",
"433 568 OFFCURVE",
"429 561 OFFCURVE",
"428 555 CURVE",
"426 545 OFFCURVE",
"425 536 OFFCURVE",
"424 526 CURVE",
"421 507 OFFCURVE",
"418 489 OFFCURVE",
"416 471 CURVE",
"415 466 OFFCURVE",
"419 461 OFFCURVE",
"419 456 CURVE",
"418 449 OFFCURVE",
"416 442 OFFCURVE",
"415 436 CURVE",
"413 429 OFFCURVE",
"409 421 OFFCURVE",
"410 414 CURVE",
"412 390 OFFCURVE",
"402 367 OFFCURVE",
"404 343 CURVE",
"405 336 OFFCURVE",
"405 329 OFFCURVE",
"405 322 CURVE",
"402 298 OFFCURVE",
"399 275 OFFCURVE",
"396 252 CURVE",
"394 242 OFFCURVE",
"390 234 OFFCURVE",
"387 225 CURVE",
"387 224 OFFCURVE",
"385 222 OFFCURVE",
"385 221 CURVE",
"391 196 OFFCURVE",
"378 177 OFFCURVE",
"369 156 CURVE",
"368 153 OFFCURVE",
"366 148 OFFCURVE",
"368 146 CURVE",
"377 134 OFFCURVE",
"366 125 OFFCURVE",
"364 115 CURVE",
"362 106 OFFCURVE",
"359 96 OFFCURVE",
"357 87 CURVE",
"355 75 OFFCURVE",
"352 63 OFFCURVE",
"349 50 CURVE",
"348 48 OFFCURVE",
"346 45 OFFCURVE",
"343 44 CURVE",
"329 39 OFFCURVE",
"320 29 OFFCURVE",
"310 18 CURVE",
"309 17 OFFCURVE",
"305 15 OFFCURVE",
"304 16 CURVE",
"295 21 OFFCURVE",
"289 13 OFFCURVE",
"282 11 CURVE",
"276 10 OFFCURVE",
"270 9 OFFCURVE",
"264 9 CURVE",
"260 9 OFFCURVE",
"256 11 OFFCURVE",
"251 13 CURVE",
"243 15 OFFCURVE",
"241 19 OFFCURVE",
"242 28 CURVE",
"243 32 OFFCURVE",
"242 37 OFFCURVE",
"240 41 CURVE",
"236 49 OFFCURVE",
"229 55 OFFCURVE",
"226 63 CURVE",
"222 72 OFFCURVE",
"220 82 OFFCURVE",
"217 91 CURVE",
"215 95 OFFCURVE",
"215 101 OFFCURVE",
"212 103 CURVE",
"203 111 OFFCURVE",
"205 122 OFFCURVE",
"204 133 CURVE",
"204 142 OFFCURVE",
"203 152 OFFCURVE",
"205 162 CURVE",
"207 170 OFFCURVE",
"213 177 OFFCURVE",
"217 186 CURVE",
"222 197 OFFCURVE",
"227 207 OFFCURVE",
"231 219 CURVE",
"232 224 OFFCURVE",
"230 232 OFFCURVE",
"227 237 CURVE",
"224 244 OFFCURVE",
"226 248 OFFCURVE",
"229 252 CURVE",
"233 257 OFFCURVE",
"237 261 OFFCURVE",
"230 267 CURVE",
"229 267 OFFCURVE",
"229 269 OFFCURVE",
"229 271 CURVE",
"229 277 OFFCURVE",
"226 279 OFFCURVE",
"220 276 CURVE",
"213 274 OFFCURVE",
"205 272 OFFCURVE",
"197 271 CURVE",
"194 271 OFFCURVE",
"190 274 OFFCURVE",
"186 277 CURVE",
"184 278 OFFCURVE",
"181 283 OFFCURVE",
"178 283 CURVE",
"159 282 OFFCURVE",
"141 288 OFFCURVE",
"123 294 CURVE",
"122 294 OFFCURVE",
"115 288 OFFCURVE",
"115 286 CURVE",
"116 270 OFFCURVE",
"106 254 OFFCURVE",
"113 238 CURVE",
"115 236 OFFCURVE",
"111 232 OFFCURVE",
"110 228 CURVE",
"107 216 OFFCURVE",
"107 203 OFFCURVE",
"109 190 CURVE",
"111 180 OFFCURVE",
"104 168 OFFCURVE",
"101 157 CURVE",
"100 152 OFFCURVE",
"99 146 OFFCURVE",
"101 142 CURVE",
"106 131 OFFCURVE",
"105 122 OFFCURVE",
"101 112 CURVE",
"100 109 OFFCURVE",
"101 105 OFFCURVE",
"101 101 CURVE",
"102 98 OFFCURVE",
"102 95 OFFCURVE",
"102 92 CURVE",
"101 79 OFFCURVE",
"101 67 OFFCURVE",
"98 55 CURVE",
"96 47 OFFCURVE",
"89 39 OFFCURVE",
"84 32 CURVE",
"81 27 OFFCURVE",
"75 24 OFFCURVE",
"73 19 CURVE",
"67 8 OFFCURVE",
"59 3 OFFCURVE",
"46 4 CURVE",
"40 5 OFFCURVE",
"34 3 OFFCURVE",
"29 1 CURVE",
"18 -2 OFFCURVE",
"9 2 OFFCURVE",
"1 8 CURVE",
"-3 11 OFFCURVE",
"-5 16 OFFCURVE",
"-7 20 CURVE",
"-10 26 OFFCURVE",
"-12 34 OFFCURVE",
"-17 39 CURVE",
"-26 50 OFFCURVE",
"-31 63 OFFCURVE",
"-34 76 CURVE",
"-35 80 OFFCURVE",
"-37 83 OFFCURVE",
"-38 86 CURVE",
"-41 110 OFFCURVE",
"-47 132 OFFCURVE",
"-44 156 CURVE",
"-41 178 OFFCURVE",
"-40 201 OFFCURVE",
"-37 223 CURVE",
"-36 237 OFFCURVE",
"-32 250 OFFCURVE",
"-29 264 CURVE",
"-29 266 OFFCURVE",
"-28 268 OFFCURVE",
"-28 269 CURVE",
"-35 281 OFFCURVE",
"-27 291 OFFCURVE",
"-24 301 CURVE",
"-20 319 OFFCURVE",
"-16 336 OFFCURVE",
"-12 354 CURVE",
"-10 361 OFFCURVE",
"-10 368 OFFCURVE",
"-10 376 CURVE",
"-10 388 OFFCURVE",
"-9 400 OFFCURVE",
"-3 412 CURVE",
"7 430 OFFCURVE",
"10 450 OFFCURVE",
"9 470 CURVE",
"8 473 OFFCURVE",
"8 477 OFFCURVE",
"10 479 CURVE",
"25 503 OFFCURVE",
"32 531 OFFCURVE",
"37 559 CURVE",
"37 563 OFFCURVE",
"42 566 OFFCURVE",
"43 571 CURVE",
"47 586 OFFCURVE",
"51 602 OFFCURVE",
"55 618 CURVE",
"55 620 OFFCURVE",
"55 624 OFFCURVE",
"54 626 CURVE",
"51 630 OFFCURVE",
"52 633 OFFCURVE",
"57 636 CURVE",
"69 644 OFFCURVE",
"73 662 OFFCURVE",
"69 676 CURVE",
"68 681 OFFCURVE",
"70 689 OFFCURVE",
"73 694 CURVE",
"81 704 OFFCURVE",
"81 710 OFFCURVE",
"73 719 CURVE",
"72 720 OFFCURVE",
"72 721 OFFCURVE",
"71 725 CURVE"
);
},
{
closed = 1;
nodes = (
"66 711 OFFCURVE",
"62 708 OFFCURVE",
"58 706 CURVE",
"57 708 OFFCURVE",
"55 711 OFFCURVE",
"56 712 CURVE",
"58 717 OFFCURVE",
"63 719 OFFCURVE",
"70 713 CURVE"
);
},
{
closed = 1;
nodes = (
"215 257 OFFCURVE",
"214 253 OFFCURVE",
"211 250 CURVE SMOOTH",
"210 249 OFFCURVE",
"206 250 OFFCURVE",
"202 251 CURVE",
"207 256 OFFCURVE",
"210 258 OFFCURVE",
"214 261 CURVE",
"215 261 OFFCURVE",
"216 260 OFFCURVE",
"217 260 CURVE"
);
}
);
width = 500;
}
);
unicode = 0048;
},
{
glyphname = I;
lastChange = "2020-11-29 14:47:57 +0000";
layers = (
{
layerId = "5E01EF65-6B73-4EC0-899B-CA0420E2F636";
paths = (
{
closed = 1;
nodes = (
"96 46 OFFCURVE",
"95 44 OFFCURVE",
"93 41 CURVE",
"91 42 OFFCURVE",
"89 43 OFFCURVE",
"86 44 CURVE SMOOTH",
"78 47 OFFCURVE",
"68 49 OFFCURVE",
"60 52 CURVE SMOOTH",
"51 55 OFFCURVE",
"47 62 OFFCURVE",
"46 72 CURVE SMOOTH",
"46 78 OFFCURVE",
"43 83 OFFCURVE",
"41 88 CURVE SMOOTH",
"35 100 OFFCURVE",
"28 112 OFFCURVE",
"22 124 CURVE SMOOTH",
"22 126 OFFCURVE",
"21 128 OFFCURVE",
"20 129 CURVE SMOOTH",
"5 148 OFFCURVE",
"10 169 OFFCURVE",
"13 189 CURVE SMOOTH",
"15 204 OFFCURVE",
"16 219 OFFCURVE",
"19 234 CURVE SMOOTH",
"21 241 OFFCURVE",
"24 248 OFFCURVE",
"26 256 CURVE SMOOTH",
"28 261 OFFCURVE",
"29 267 OFFCURVE",
"31 273 CURVE SMOOTH",
"33 283 OFFCURVE",
"36 294 OFFCURVE",
"38 304 CURVE SMOOTH",
"42 321 OFFCURVE",
"50 338 OFFCURVE",
"47 356 CURVE SMOOTH",
"44 372 OFFCURVE",
"51 386 OFFCURVE",
"62 398 CURVE SMOOTH",
"64 400 OFFCURVE",
"65 403 OFFCURVE",
"65 405 CURVE SMOOTH",
"68 420 OFFCURVE",
"71 436 OFFCURVE",
"72 451 CURVE SMOOTH",
"72 457 OFFCURVE",
"71 463 OFFCURVE",
"78 466 CURVE SMOOTH",
"78 466 OFFCURVE",
"78 468 OFFCURVE",
"78 469 CURVE SMOOTH",
"79 479 OFFCURVE",
"79 490 OFFCURVE",
"81 500 CURVE SMOOTH",
"83 509 OFFCURVE",
"88 517 OFFCURVE",
"91 526 CURVE SMOOTH",
"91 528 OFFCURVE",
"93 529 OFFCURVE",
"93 531 CURVE SMOOTH",
"95 544 OFFCURVE",
"98 556 OFFCURVE",
"100 569 CURVE SMOOTH",
"101 578 OFFCURVE",
"101 587 OFFCURVE",
"101 596 CURVE SMOOTH",
"100 608 OFFCURVE",
"101 620 OFFCURVE",
"106 631 CURVE SMOOTH",
"107 634 OFFCURVE",
"107 639 OFFCURVE",
"105 641 CURVE SMOOTH",
"98 651 OFFCURVE",
"99 662 OFFCURVE",
"97 672 CURVE SMOOTH",
"97 674 OFFCURVE",
"97 676 OFFCURVE",
"96 678 CURVE SMOOTH",
"92 688 OFFCURVE",
"94 694 OFFCURVE",
"105 698 CURVE SMOOTH",
"115 703 OFFCURVE",
"117 710 OFFCURVE",
"114 720 CURVE SMOOTH",
"113 726 OFFCURVE",
"114 733 OFFCURVE",
"114 740 CURVE SMOOTH",
"113 748 OFFCURVE",
"117 752 OFFCURVE",
"124 754 CURVE SMOOTH",
"126 755 OFFCURVE",
"126 758 OFFCURVE",
"128 760 CURVE SMOOTH",
"133 766 OFFCURVE",
"140 767 OFFCURVE",
"146 761 CURVE SMOOTH",
"152 754 OFFCURVE",
"157 756 OFFCURVE",
"163 762 CURVE SMOOTH",
"170 768 OFFCURVE",
"177 772 OFFCURVE",
"183 776 CURVE",
"189 768 OFFCURVE",
"194 760 OFFCURVE",
"199 753 CURVE SMOOTH",
"209 735 OFFCURVE",
"218 717 OFFCURVE",
"228 700 CURVE SMOOTH",
"229 698 OFFCURVE",
"229 696 OFFCURVE",
"229 694 CURVE SMOOTH",
"225 679 OFFCURVE",
"230 664 OFFCURVE",
"234 649 CURVE SMOOTH",
"236 638 OFFCURVE",
"234 625 OFFCURVE",
"233 613 CURVE SMOOTH",
"232 607 OFFCURVE",
"231 601 OFFCURVE",
"231 595 CURVE SMOOTH",
"228 577 OFFCURVE",
"226 558 OFFCURVE",
"224 539 CURVE SMOOTH",
"223 520 OFFCURVE",
"222 501 OFFCURVE",
"221 482 CURVE SMOOTH",
"221 467 OFFCURVE",
"219 453 OFFCURVE",
"218 439 CURVE SMOOTH",
"218 437 OFFCURVE",
"219 435 OFFCURVE",
"218 434 CURVE SMOOTH",
"207 413 OFFCURVE",
"208 390 OFFCURVE",
"203 367 CURVE SMOOTH",
"200 349 OFFCURVE",
"196 331 OFFCURVE",
"192 313 CURVE SMOOTH",
"190 305 OFFCURVE",
"185 296 OFFCURVE",
"183 288 CURVE SMOOTH",
"182 280 OFFCURVE",
"182 272 OFFCURVE",
"181 265 CURVE SMOOTH",
"178 251 OFFCURVE",
"175 237 OFFCURVE",
"172 223 CURVE SMOOTH",
"170 217 OFFCURVE",
"168 210 OFFCURVE",
"167 203 CURVE SMOOTH",
"166 192 OFFCURVE",
"166 180 OFFCURVE",
"163 169 CURVE SMOOTH",
"161 159 OFFCURVE",
"159 149 OFFCURVE",
"163 139 CURVE SMOOTH",
"164 135 OFFCURVE",
"160 130 OFFCURVE",
"160 125 CURVE SMOOTH",
"158 107 OFFCURVE",
"151 92 OFFCURVE",
"143 76 CURVE SMOOTH",
"142 74 OFFCURVE",
"139 73 OFFCURVE",
"137 71 CURVE SMOOTH",
"130 65 OFFCURVE",
"123 59 OFFCURVE",
"117 52 CURVE SMOOTH",
"110 44 OFFCURVE",
"106 43 OFFCURVE",
"98 48 CURVE"
);
}
);
width = 300;
}
);
unicode = 0049;
},
{
glyphname = J;
lastChange = "2020-11-29 14:48:02 +0000";
layers = (
{
layerId = "5E01EF65-6B73-4EC0-899B-CA0420E2F636";
paths = (
{
closed = 1;
nodes = (
"75 32 OFFCURVE",
"75 26 OFFCURVE",
"74 18 CURVE",
"69 20 OFFCURVE",
"65 21 OFFCURVE",
"59 23 CURVE",
"61 26 OFFCURVE",
"62 27 OFFCURVE",
"63 29 CURVE",
"64 33 OFFCURVE",
"67 37 OFFCURVE",
"66 40 CURVE",
"66 42 OFFCURVE",
"61 44 OFFCURVE",
"58 45 CURVE",
"54 47 OFFCURVE",
"46 46 OFFCURVE",
"44 49 CURVE",
"39 56 OFFCURVE",
"35 64 OFFCURVE",
"33 73 CURVE",
"29 89 OFFCURVE",
"22 103 OFFCURVE",
"13 117 CURVE",
"8 126 OFFCURVE",
"7 139 OFFCURVE",
"4 149 CURVE",
"1 158 OFFCURVE",
"-3 167 OFFCURVE",
"-6 175 CURVE",
"-8 179 OFFCURVE",
"-10 183 OFFCURVE",
"-11 187 CURVE",
"-13 199 OFFCURVE",
"-15 211 OFFCURVE",
"-16 223 CURVE",
"-17 232 OFFCURVE",
"-15 241 OFFCURVE",
"-14 251 CURVE",
"-21 250 OFFCURVE",
"-25 250 OFFCURVE",
"-30 249 CURVE",
"-34 263 OFFCURVE",
"-14 254 OFFCURVE",
"-16 265 CURVE",
"-18 268 OFFCURVE",
"-22 274 OFFCURVE",
"-22 275 CURVE",
"-18 279 OFFCURVE",
"-13 282 OFFCURVE",
"-7 285 CURVE",
"3 290 OFFCURVE",
"13 294 OFFCURVE",
"23 298 CURVE",
"29 301 OFFCURVE",
"36 303 OFFCURVE",
"43 305 CURVE",
"54 307 OFFCURVE",
"65 308 OFFCURVE",
"76 311 CURVE",
"84 313 OFFCURVE",
"90 314 OFFCURVE",
"96 305 CURVE",
"107 286 OFFCURVE",
"120 267 OFFCURVE",
"131 248 CURVE",
"136 241 OFFCURVE",
"139 232 OFFCURVE",
"143 224 CURVE",
"149 213 OFFCURVE",
"155 212 OFFCURVE",
"165 219 CURVE",
"173 223 OFFCURVE",
"180 229 OFFCURVE",
"186 235 CURVE",
"188 236 OFFCURVE",
"189 239 OFFCURVE",
"189 241 CURVE",
"186 253 OFFCURVE",
"196 261 OFFCURVE",
"201 271 CURVE",
"203 276 OFFCURVE",
"206 274 OFFCURVE",
"208 270 CURVE",
"210 266 OFFCURVE",
"211 262 OFFCURVE",
"212 258 CURVE",
"232 269 OFFCURVE",
"233 288 OFFCURVE",
"232 307 CURVE",
"232 313 OFFCURVE",
"228 315 OFFCURVE",
"223 310 CURVE",
"220 307 OFFCURVE",
"216 303 OFFCURVE",
"212 300 CURVE",
"211 299 OFFCURVE",
"208 299 OFFCURVE",
"206 298 CURVE",
"206 300 OFFCURVE",
"205 302 OFFCURVE",
"206 304 CURVE",
"209 316 OFFCURVE",
"213 329 OFFCURVE",
"217 341 CURVE",
"217 344 OFFCURVE",
"220 346 OFFCURVE",
"222 349 CURVE",
"224 346 OFFCURVE",
"227 343 OFFCURVE",
"227 340 CURVE",
"229 334 OFFCURVE",
"230 328 OFFCURVE",
"232 319 CURVE",
"239 327 OFFCURVE",
"241 332 OFFCURVE",
"240 340 CURVE",
"239 348 OFFCURVE",
"243 356 OFFCURVE",
"245 363 CURVE",
"245 366 OFFCURVE",
"245 370 OFFCURVE",
"245 373 CURVE",
"242 373 OFFCURVE",
"239 372 OFFCURVE",
"237 373 CURVE",
"233 374 OFFCURVE",
"229 376 OFFCURVE",
"228 379 CURVE",
"227 383 OFFCURVE",
"228 388 OFFCURVE",
"229 392 CURVE",
"232 388 OFFCURVE",
"236 384 OFFCURVE",
"240 380 CURVE",
"241 379 OFFCURVE",
"246 380 OFFCURVE",
"247 382 CURVE",
"252 391 OFFCURVE",
"260 400 OFFCURVE",
"256 412 CURVE",
"253 424 OFFCURVE",
"263 432 OFFCURVE",
"267 441 CURVE",
"268 445 OFFCURVE",
"269 448 OFFCURVE",
"270 452 CURVE",
"271 461 OFFCURVE",
"272 469 OFFCURVE",
"272 478 CURVE",
"272 481 OFFCURVE",
"273 486 OFFCURVE",
"271 488 CURVE",
"265 495 OFFCURVE",
"263 503 OFFCURVE",
"263 513 CURVE",
"263 525 OFFCURVE",
"262 538 OFFCURVE",
"261 551 CURVE",
"260 555 OFFCURVE",
"260 561 OFFCURVE",
"252 558 CURVE",
"255 561 OFFCURVE",
"259 564 OFFCURVE",
"261 568 CURVE",
"265 572 OFFCURVE",
"268 578 OFFCURVE",
"272 583 CURVE",
"275 588 OFFCURVE",
"276 595 OFFCURVE",
"285 593 CURVE",
"284 600 OFFCURVE",
"274 613 OFFCURVE",
"268 613 CURVE",
"265 613 OFFCURVE",
"262 611 OFFCURVE",
"259 609 CURVE",
"249 603 OFFCURVE",
"245 605 OFFCURVE",
"243 616 CURVE",
"242 625 OFFCURVE",
"235 626 OFFCURVE",
"229 626 CURVE",
"223 626 OFFCURVE",
"219 624 OFFCURVE",
"220 617 CURVE",
"221 611 OFFCURVE",
"211 607 OFFCURVE",
"205 607 CURVE",
"193 608 OFFCURVE",
"182 607 OFFCURVE",
"171 607 CURVE",
"166 606 OFFCURVE",
"159 611 OFFCURVE",
"157 618 CURVE",
"157 621 OFFCURVE",
"155 624 OFFCURVE",
"153 626 CURVE",
"144 634 OFFCURVE",
"134 639 OFFCURVE",
"137 654 CURVE",
"138 658 OFFCURVE",
"135 665 OFFCURVE",
"132 667 CURVE",
"122 672 OFFCURVE",
"124 679 OFFCURVE",
"127 687 CURVE",
"128 691 OFFCURVE",
"129 695 OFFCURVE",
"131 699 CURVE",
"111 702 OFFCURVE",
"110 703 OFFCURVE",
"115 717 CURVE",
"117 716 OFFCURVE",
"119 715 OFFCURVE",
"121 714 CURVE",
"122 714 OFFCURVE",
"122 715 OFFCURVE",
"123 715 CURVE",
"121 719 OFFCURVE",
"119 722 OFFCURVE",
"118 725 CURVE",
"117 729 OFFCURVE",
"116 735 OFFCURVE",
"118 737 CURVE",
"123 742 OFFCURVE",
"130 746 OFFCURVE",
"137 749 CURVE",
"145 753 OFFCURVE",
"154 756 OFFCURVE",
"163 759 CURVE",
"170 761 OFFCURVE",
"176 764 OFFCURVE",
"183 766 CURVE",
"202 770 OFFCURVE",
"221 776 OFFCURVE",
"240 778 CURVE",
"266 780 OFFCURVE",
"290 789 OFFCURVE",
"314 799 CURVE",
"319 802 OFFCURVE",
"325 803 OFFCURVE",
"330 802 CURVE",
"342 800 OFFCURVE",
"353 805 OFFCURVE",
"364 809 CURVE",
"369 810 OFFCURVE",
"374 810 OFFCURVE",
"379 811 CURVE",
"390 813 OFFCURVE",
"402 815 OFFCURVE",
"413 817 CURVE",
"422 819 OFFCURVE",
"430 821 OFFCURVE",
"439 821 CURVE",
"446 822 OFFCURVE",
"452 811 OFFCURVE",
"451 802 CURVE",
"448 782 OFFCURVE",
"449 781 OFFCURVE",
"466 771 CURVE",
"468 770 OFFCURVE",
"471 767 OFFCURVE",
"471 766 CURVE",
"467 753 OFFCURVE",
"472 743 OFFCURVE",
"479 734 CURVE",
"486 727 OFFCURVE",
"483 720 OFFCURVE",
"484 712 CURVE",
"485 707 OFFCURVE",
"487 701 OFFCURVE",
"488 696 CURVE",
"488 691 OFFCURVE",
"489 686 OFFCURVE",
"487 681 CURVE",
"483 668 OFFCURVE",
"474 657 OFFCURVE",
"475 642 CURVE",
"475 638 OFFCURVE",
"473 633 OFFCURVE",
"472 629 CURVE",
"468 618 OFFCURVE",
"463 608 OFFCURVE",
"460 597 CURVE",
"458 588 OFFCURVE",
"457 579 OFFCURVE",
"456 571 CURVE",
"453 545 OFFCURVE",
"451 519 OFFCURVE",
"448 493 CURVE",
"445 472 OFFCURVE",
"441 451 OFFCURVE",
"438 430 CURVE",
"437 428 OFFCURVE",
"436 426 OFFCURVE",
"436 425 CURVE",
"440 399 OFFCURVE",
"431 374 OFFCURVE",
"431 349 CURVE",
"431 331 OFFCURVE",
"426 314 OFFCURVE",
"423 296 CURVE",
"419 276 OFFCURVE",
"417 255 OFFCURVE",
"412 235 CURVE",
"408 221 OFFCURVE",
"402 207 OFFCURVE",
"397 193 CURVE",
"396 190 OFFCURVE",
"393 186 OFFCURVE",
"394 184 CURVE",
"401 163 OFFCURVE",
"383 153 OFFCURVE",
"376 138 CURVE",
"373 129 OFFCURVE",
"365 122 OFFCURVE",
"372 111 CURVE",
"373 109 OFFCURVE",
"371 103 OFFCURVE",
"370 103 CURVE",
"360 100 OFFCURVE",
"360 91 OFFCURVE",
"355 85 CURVE",
"347 77 OFFCURVE",
"340 68 OFFCURVE",
"331 61 CURVE",
"319 53 OFFCURVE",
"307 45 OFFCURVE",
"294 38 CURVE",
"289 34 OFFCURVE",
"283 33 OFFCURVE",
"277 29 CURVE",
"259 18 OFFCURVE",
"242 6 OFFCURVE",
"223 -4 CURVE",
"216 -8 OFFCURVE",
"206 -9 OFFCURVE",
"197 -10 CURVE",
"188 -11 OFFCURVE",
"179 -10 OFFCURVE",
"171 -10 CURVE",
"168 -10 OFFCURVE",
"164 -10 OFFCURVE",
"163 -9 CURVE",
"159 0 OFFCURVE",
"154 -6 OFFCURVE",
"148 -6 CURVE",
"138 -6 OFFCURVE",
"127 -4 OFFCURVE",
"117 0 CURVE",
"108 4 OFFCURVE",
"102 13 OFFCURVE",
"97 23 CURVE",
"94 32 OFFCURVE",
"88 39 OFFCURVE",
"75 39 CURVE"
);
},
{
closed = 1;
nodes = (
"240 527 OFFCURVE",
"241 533 OFFCURVE",
"244 537 CURVE SMOOTH",
"245 539 OFFCURVE",
"251 536 OFFCURVE",
"256 535 CURVE",
"251 530 OFFCURVE",
"246 525 OFFCURVE",
"242 521 CURVE",
"241 521 OFFCURVE",
"240 521 OFFCURVE",
"239 522 CURVE"
);
}
);
width = 500;
}
);
unicode = 004A;
},
{
glyphname = K;
lastChange = "2020-11-29 14:48:06 +0000";
layers = (
{
layerId = "5E01EF65-6B73-4EC0-899B-CA0420E2F636";
paths = (
{
closed = 1;
nodes = (
"40 -33 OFFCURVE",
"41 -26 OFFCURVE",
"41 -19 CURVE SMOOTH",
"41 -15 OFFCURVE",
"39 -12 OFFCURVE",
"38 -8 CURVE SMOOTH",
"35 -2 OFFCURVE",
"34 5 OFFCURVE",
"31 11 CURVE SMOOTH",
"30 15 OFFCURVE",
"28 19 OFFCURVE",
"26 23 CURVE SMOOTH",
"21 32 OFFCURVE",
"17 41 OFFCURVE",
"11 52 CURVE",
"3 53 OFFCURVE",
"1 57 OFFCURVE",
"1 70 CURVE SMOOTH",
"1 91 OFFCURVE",
"1 112 OFFCURVE",
"0 134 CURVE SMOOTH",
"0 144 OFFCURVE",
"3 153 OFFCURVE",
"9 160 CURVE SMOOTH",
"12 163 OFFCURVE",
"16 165 OFFCURVE",
"11 170 CURVE SMOOTH",
"10 171 OFFCURVE",
"13 175 OFFCURVE",
"14 178 CURVE SMOOTH",
"20 187 OFFCURVE",
"25 196 OFFCURVE",
"24 207 CURVE SMOOTH",
"23 213 OFFCURVE",
"23 220 OFFCURVE",
"21 226 CURVE SMOOTH",
"19 236 OFFCURVE",
"24 242 OFFCURVE",
"28 250 CURVE SMOOTH",
"29 253 OFFCURVE",
"31 256 OFFCURVE",
"31 259 CURVE SMOOTH",
"31 286 OFFCURVE",
"31 313 OFFCURVE",
"32 341 CURVE SMOOTH",
"32 345 OFFCURVE",
"31 350 OFFCURVE",
"33 353 CURVE SMOOTH",
"37 362 OFFCURVE",
"32 366 OFFCURVE",
"27 372 CURVE SMOOTH",
"22 377 OFFCURVE",
"18 382 OFFCURVE",
"13 388 CURVE",
"11 388 OFFCURVE",
"8 388 OFFCURVE",
"3 386 CURVE",
"5 392 OFFCURVE",
"6 397 OFFCURVE",
"8 403 CURVE",
"8 403 OFFCURVE",
"5 404 OFFCURVE",
"4 406 CURVE SMOOTH",
"2 408 OFFCURVE",
"1 410 OFFCURVE",
"1 412 CURVE SMOOTH",
"1 414 OFFCURVE",
"5 415 OFFCURVE",
"7 416 CURVE SMOOTH",
"19 419 OFFCURVE",
"29 424 OFFCURVE",
"33 438 CURVE",
"30 439 OFFCURVE",
"27 439 OFFCURVE",
"23 440 CURVE",
"26 446 OFFCURVE",
"31 452 OFFCURVE",
"30 455 CURVE SMOOTH",
"26 465 OFFCURVE",
"34 471 OFFCURVE",
"35 479 CURVE SMOOTH",
"37 487 OFFCURVE",
"38 496 OFFCURVE",
"39 504 CURVE SMOOTH",
"40 517 OFFCURVE",
"41 531 OFFCURVE",
"43 544 CURVE SMOOTH",
"45 562 OFFCURVE",
"48 579 OFFCURVE",
"51 597 CURVE SMOOTH",
"51 598 OFFCURVE",
"51 598 OFFCURVE",
"51 599 CURVE SMOOTH",
"49 618 OFFCURVE",
"55 636 OFFCURVE",
"59 655 CURVE SMOOTH",
"61 665 OFFCURVE",
"65 674 OFFCURVE",
"66 684 CURVE SMOOTH",
"69 698 OFFCURVE",
"72 713 OFFCURVE",
"71 727 CURVE SMOOTH",
"69 738 OFFCURVE",
"71 745 OFFCURVE",
"79 750 CURVE SMOOTH",
"85 755 OFFCURVE",
"91 762 OFFCURVE",
"102 761 CURVE SMOOTH",
"116 760 OFFCURVE",
"124 767 OFFCURVE",
"135 781 CURVE",
"140 776 OFFCURVE",
"145 771 OFFCURVE",
"150 767 CURVE SMOOTH",
"151 766 OFFCURVE",
"151 765 OFFCURVE",
"151 765 CURVE SMOOTH",
"146 754 OFFCURVE",
"155 750 OFFCURVE",
"160 743 CURVE SMOOTH",
"169 733 OFFCURVE",
"175 721 OFFCURVE",
"181 709 CURVE SMOOTH",
"184 704 OFFCURVE",
"187 697 OFFCURVE",
"181 691 CURVE SMOOTH",
"180 691 OFFCURVE",
"181 687 OFFCURVE",
"181 686 CURVE SMOOTH",
"184 679 OFFCURVE",
"185 672 OFFCURVE",
"181 665 CURVE SMOOTH",
"177 660 OFFCURVE",
"177 654 OFFCURVE",
"179 648 CURVE SMOOTH",
"181 642 OFFCURVE",
"178 634 OFFCURVE",
"178 627 CURVE SMOOTH",
"177 622 OFFCURVE",
"177 616 OFFCURVE",
"176 611 CURVE SMOOTH",
"176 602 OFFCURVE",
"175 594 OFFCURVE",
"175 585 CURVE",
"175 585 OFFCURVE",
"177 584 OFFCURVE",
"178 585 CURVE SMOOTH",
"192 600 OFFCURVE",
"212 602 OFFCURVE",
"228 614 CURVE SMOOTH",
"233 618 OFFCURVE",
"238 621 OFFCURVE",
"240 628 CURVE SMOOTH",
"240 630 OFFCURVE",
"241 632 OFFCURVE",
"243 633 CURVE SMOOTH",
"256 643 OFFCURVE",
"271 652 OFFCURVE",
"283 663 CURVE SMOOTH",
"291 669 OFFCURVE",
"297 678 OFFCURVE",
"303 686 CURVE SMOOTH",
"306 690 OFFCURVE",
"308 696 OFFCURVE",
"312 703 CURVE",
"319 699 OFFCURVE",
"323 706 OFFCURVE",
"329 712 CURVE SMOOTH",
"340 722 OFFCURVE",
"348 735 OFFCURVE",
"361 742 CURVE SMOOTH",
"363 744 OFFCURVE",
"364 747 OFFCURVE",
"366 748 CURVE SMOOTH",
"367 750 OFFCURVE",
"370 752 OFFCURVE",
"371 751 CURVE SMOOTH",
"376 747 OFFCURVE",
"380 750 OFFCURVE",
"385 752 CURVE SMOOTH",
"392 755 OFFCURVE",
"400 755 OFFCURVE",
"408 756 CURVE SMOOTH",
"415 757 OFFCURVE",
"419 755 OFFCURVE",
"423 750 CURVE SMOOTH",
"428 744 OFFCURVE",
"435 740 OFFCURVE",
"440 735 CURVE SMOOTH",
"443 733 OFFCURVE",
"444 729 OFFCURVE",
"444 726 CURVE SMOOTH",
"446 719 OFFCURVE",
"446 713 OFFCURVE",
"447 706 CURVE SMOOTH",
"448 704 OFFCURVE",
"448 700 OFFCURVE",
"450 699 CURVE SMOOTH",
"460 686 OFFCURVE",
"460 671 OFFCURVE",
"451 657 CURVE SMOOTH",
"447 650 OFFCURVE",
"446 642 OFFCURVE",
"443 635 CURVE SMOOTH",
"439 627 OFFCURVE",
"435 619 OFFCURVE",
"430 612 CURVE SMOOTH",
"419 598 OFFCURVE",
"407 584 OFFCURVE",
"395 570 CURVE SMOOTH",
"386 559 OFFCURVE",
"375 549 OFFCURVE",
"365 539 CURVE SMOOTH",
"349 523 OFFCURVE",
"334 507 OFFCURVE",
"318 492 CURVE SMOOTH",
"307 483 OFFCURVE",
"295 475 OFFCURVE",
"284 465 CURVE SMOOTH",
"272 455 OFFCURVE",
"261 443 OFFCURVE",
"249 432 CURVE SMOOTH",
"244 428 OFFCURVE",
"239 425 OFFCURVE",
"234 422 CURVE SMOOTH",
"231 419 OFFCURVE",
"228 416 OFFCURVE",
"226 412 CURVE SMOOTH",
"225 410 OFFCURVE",
"224 406 OFFCURVE",
"225 405 CURVE SMOOTH",
"228 403 OFFCURVE",
"232 402 OFFCURVE",
"236 401 CURVE SMOOTH",
"238 401 OFFCURVE",
"242 401 OFFCURVE",
"244 399 CURVE SMOOTH",
"250 394 OFFCURVE",
"257 392 OFFCURVE",
"265 392 CURVE SMOOTH",
"277 392 OFFCURVE",
"289 390 OFFCURVE",
"300 389 CURVE SMOOTH",
"302 389 OFFCURVE",
"304 386 OFFCURVE",
"305 385 CURVE SMOOTH",
"311 381 OFFCURVE",
"317 374 OFFCURVE",
"323 373 CURVE SMOOTH",
"333 373 OFFCURVE",
"338 367 OFFCURVE",
"343 362 CURVE SMOOTH",
"350 355 OFFCURVE",
"357 349 OFFCURVE",
"364 343 CURVE SMOOTH",
"373 337 OFFCURVE",
"371 332 OFFCURVE",
"365 327 CURVE",
"371 320 OFFCURVE",
"375 314 OFFCURVE",
"381 308 CURVE SMOOTH",
"394 296 OFFCURVE",
"395 281 OFFCURVE",
"396 265 CURVE SMOOTH",
"397 261 OFFCURVE",
"398 254 OFFCURVE",
"402 252 CURVE SMOOTH",
"408 247 OFFCURVE",
"408 240 OFFCURVE",
"408 233 CURVE SMOOTH",
"409 228 OFFCURVE",
"411 222 OFFCURVE",
"411 216 CURVE SMOOTH",
"412 209 OFFCURVE",
"414 201 OFFCURVE",
"406 196 CURVE SMOOTH",
"405 196 OFFCURVE",
"404 195 OFFCURVE",
"404 194 CURVE SMOOTH",
"404 179 OFFCURVE",
"392 170 OFFCURVE",
"386 159 CURVE SMOOTH",
"382 152 OFFCURVE",
"374 148 OFFCURVE",
"367 143 CURVE SMOOTH",
"364 141 OFFCURVE",
"362 139 OFFCURVE",
"360 137 CURVE",
"357 140 OFFCURVE",
"355 142 OFFCURVE",
"353 145 CURVE",
"352 142 OFFCURVE",
"350 140 OFFCURVE",
"348 138 CURVE SMOOTH",
"347 136 OFFCURVE",
"345 134 OFFCURVE",
"344 132 CURVE",
"334 131 OFFCURVE",
"325 130 OFFCURVE",
"318 130 CURVE",
"311 140 OFFCURVE",
"306 149 OFFCURVE",
"300 156 CURVE SMOOTH",
"292 166 OFFCURVE",
"286 177 OFFCURVE",
"282 189 CURVE SMOOTH",
"278 198 OFFCURVE",
"272 209 OFFCURVE",
"259 212 CURVE SMOOTH",
"256 212 OFFCURVE",
"254 218 OFFCURVE",
"251 219 CURVE SMOOTH",
"243 222 OFFCURVE",
"234 224 OFFCURVE",
"226 224 CURVE SMOOTH",
"223 224 OFFCURVE",
"220 219 OFFCURVE",
"217 216 CURVE SMOOTH",
"212 211 OFFCURVE",
"196 215 OFFCURVE",
"196 222 CURVE SMOOTH",
"197 230 OFFCURVE",
"192 231 OFFCURVE",
"187 234 CURVE SMOOTH",
"180 237 OFFCURVE",
"173 239 OFFCURVE",
"165 242 CURVE",
"165 236 OFFCURVE",
"165 230 OFFCURVE",
"165 228 CURVE",
"171 224 OFFCURVE",
"176 222 OFFCURVE",
"180 219 CURVE SMOOTH",
"181 217 OFFCURVE",
"180 213 OFFCURVE",
"179 210 CURVE",
"177 210 OFFCURVE",
"174 211 OFFCURVE",
"172 212 CURVE SMOOTH",
"169 213 OFFCURVE",
"166 215 OFFCURVE",
"163 217 CURVE",
"165 199 OFFCURVE",
"166 183 OFFCURVE",
"162 166 CURVE SMOOTH",
"159 156 OFFCURVE",
"162 144 OFFCURVE",
"162 133 CURVE SMOOTH",
"161 125 OFFCURVE",
"161 116 OFFCURVE",
"160 108 CURVE SMOOTH",
"159 103 OFFCURVE",
"156 98 OFFCURVE",
"157 93 CURVE SMOOTH",
"158 79 OFFCURVE",
"153 68 OFFCURVE",
"149 55 CURVE SMOOTH",
"147 49 OFFCURVE",
"149 41 OFFCURVE",
"148 34 CURVE SMOOTH",
"148 31 OFFCURVE",
"145 26 OFFCURVE",
"143 24 CURVE SMOOTH",
"131 14 OFFCURVE",
"120 5 OFFCURVE",
"108 -4 CURVE SMOOTH",
"103 -8 OFFCURVE",
"96 -10 OFFCURVE",
"89 -12 CURVE SMOOTH",
"81 -14 OFFCURVE",
"76 -17 OFFCURVE",
"75 -25 CURVE SMOOTH",
"73 -37 OFFCURVE",
"59 -45 OFFCURVE",
"48 -41 CURVE SMOOTH",
"46 -40 OFFCURVE",
"43 -40 OFFCURVE",
"39 -39 CURVE"
);
}
);
width = 500;
}
);
unicode = 004B;
},
{
glyphname = L;
lastChange = "2020-11-29 14:48:13 +0000";
layers = (
{
layerId = "5E01EF65-6B73-4EC0-899B-CA0420E2F636";
paths = (
{
closed = 1;
nodes = (
"181 781 OFFCURVE",
"182 776 OFFCURVE",
"183 771 CURVE SMOOTH",
"183 764 OFFCURVE",
"186 759 OFFCURVE",
"191 754 CURVE SMOOTH",
"198 747 OFFCURVE",
"202 737 OFFCURVE",
"207 728 CURVE SMOOTH",
"212 721 OFFCURVE",
"216 715 OFFCURVE",
"223 705 CURVE",
"221 694 OFFCURVE",
"218 679 OFFCURVE",
"215 664 CURVE SMOOTH",
"213 652 OFFCURVE",
"212 640 OFFCURVE",
"211 628 CURVE SMOOTH",
"210 625 OFFCURVE",
"210 621 OFFCURVE",
"208 619 CURVE SMOOTH",
"197 610 OFFCURVE",
"195 598 OFFCURVE",
"196 585 CURVE SMOOTH",
"196 578 OFFCURVE",
"194 572 OFFCURVE",
"192 566 CURVE SMOOTH",
"189 555 OFFCURVE",
"186 545 OFFCURVE",
"184 534 CURVE SMOOTH",
"182 523 OFFCURVE",
"180 512 OFFCURVE",
"178 502 CURVE SMOOTH",
"177 499 OFFCURVE",
"176 495 OFFCURVE",
"176 492 CURVE SMOOTH",
"178 476 OFFCURVE",
"170 462 OFFCURVE",
"167 447 CURVE SMOOTH",
"166 447 OFFCURVE",
"165 446 OFFCURVE",
"165 445 CURVE SMOOTH",
"168 432 OFFCURVE",
"158 421 OFFCURVE",
"159 410 CURVE SMOOTH",
"160 397 OFFCURVE",
"157 387 OFFCURVE",
"150 377 CURVE SMOOTH",
"148 375 OFFCURVE",
"148 370 OFFCURVE",
"150 368 CURVE SMOOTH",
"154 358 OFFCURVE",
"148 351 OFFCURVE",
"146 342 CURVE SMOOTH",
"145 338 OFFCURVE",
"145 333 OFFCURVE",
"145 329 CURVE SMOOTH",
"143 323 OFFCURVE",
"142 317 OFFCURVE",
"140 312 CURVE SMOOTH",
"139 310 OFFCURVE",
"137 308 OFFCURVE",
"138 307 CURVE SMOOTH",
"143 298 OFFCURVE",
"135 291 OFFCURVE",
"134 283 CURVE SMOOTH",
"134 282 OFFCURVE",
"133 281 OFFCURVE",
"134 280 CURVE SMOOTH",
"136 265 OFFCURVE",
"133 250 OFFCURVE",
"129 235 CURVE SMOOTH",
"129 233 OFFCURVE",
"130 231 OFFCURVE",
"130 226 CURVE",
"140 229 OFFCURVE",
"148 231 OFFCURVE",
"157 234 CURVE SMOOTH",
"164 236 OFFCURVE",
"172 238 OFFCURVE",
"180 240 CURVE SMOOTH",
"197 246 OFFCURVE",
"215 253 OFFCURVE",
"233 259 CURVE SMOOTH",
"238 261 OFFCURVE",
"244 263 OFFCURVE",
"250 264 CURVE SMOOTH",
"267 268 OFFCURVE",
"284 272 OFFCURVE",
"300 276 CURVE SMOOTH",
"308 277 OFFCURVE",
"316 276 OFFCURVE",
"325 276 CURVE",
"324 262 OFFCURVE",
"333 254 OFFCURVE",
"344 247 CURVE SMOOTH",
"348 245 OFFCURVE",
"351 238 OFFCURVE",
"351 234 CURVE SMOOTH",
"349 219 OFFCURVE",
"361 210 OFFCURVE",
"365 197 CURVE SMOOTH",
"367 188 OFFCURVE",
"363 182 OFFCURVE",
"360 175 CURVE SMOOTH",
"358 172 OFFCURVE",
"355 169 OFFCURVE",
"354 166 CURVE SMOOTH",
"350 160 OFFCURVE",
"353 155 OFFCURVE",
"360 154 CURVE SMOOTH",
"363 154 OFFCURVE",
"367 152 OFFCURVE",
"367 151 CURVE SMOOTH",
"368 148 OFFCURVE",
"366 144 OFFCURVE",
"364 143 CURVE SMOOTH",
"342 123 OFFCURVE",
"321 101 OFFCURVE",
"296 84 CURVE SMOOTH",
"280 73 OFFCURVE",
"265 63 OFFCURVE",
"244 64 CURVE SMOOTH",
"239 64 OFFCURVE",
"232 60 OFFCURVE",
"230 56 CURVE SMOOTH",
"226 47 OFFCURVE",
"218 50 OFFCURVE",
"211 47 CURVE SMOOTH",
"205 44 OFFCURVE",
"198 42 OFFCURVE",
"192 40 CURVE SMOOTH",
"187 39 OFFCURVE",
"183 39 OFFCURVE",
"179 38 CURVE SMOOTH",
"175 37 OFFCURVE",
"171 34 OFFCURVE",
"171 32 CURVE SMOOTH",
"171 19 OFFCURVE",
"160 20 OFFCURVE",
"153 18 CURVE SMOOTH",
"147 16 OFFCURVE",
"140 16 OFFCURVE",
"135 18 CURVE SMOOTH",
"131 20 OFFCURVE",
"130 27 OFFCURVE",
"127 31 CURVE",
"128 32 OFFCURVE",
"128 33 OFFCURVE",
"129 34 CURVE",
"123 34 OFFCURVE",
"117 34 OFFCURVE",
"111 35 CURVE",
"112 29 OFFCURVE",
"113 24 OFFCURVE",
"113 20 CURVE",
"105 18 OFFCURVE",
"98 13 OFFCURVE",
"90 14 CURVE SMOOTH",
"77 14 OFFCURVE",
"63 18 OFFCURVE",
"49 20 CURVE",
"49 21 OFFCURVE",
"49 22 OFFCURVE",
"49 24 CURVE",
"54 27 OFFCURVE",
"59 30 OFFCURVE",
"63 34 CURVE SMOOTH",
"65 35 OFFCURVE",
"67 38 OFFCURVE",
"67 38 CURVE SMOOTH",
"60 45 OFFCURVE",
"60 58 OFFCURVE",
"47 57 CURVE SMOOTH",
"46 57 OFFCURVE",
"44 57 OFFCURVE",
"44 58 CURVE SMOOTH",
"34 68 OFFCURVE",
"24 78 OFFCURVE",
"14 89 CURVE SMOOTH",
"12 91 OFFCURVE",
"14 97 OFFCURVE",
"13 101 CURVE SMOOTH",
"8 111 OFFCURVE",
"2 122 OFFCURVE",
"-3 132 CURVE SMOOTH",
"-6 141 OFFCURVE",
"-8 149 OFFCURVE",
"-12 157 CURVE SMOOTH",
"-16 165 OFFCURVE",
"-21 174 OFFCURVE",
"-27 180 CURVE SMOOTH",
"-34 187 OFFCURVE",
"-32 194 OFFCURVE",
"-31 201 CURVE SMOOTH",
"-30 206 OFFCURVE",
"-29 210 OFFCURVE",
"-28 215 CURVE SMOOTH",
"-27 219 OFFCURVE",
"-29 224 OFFCURVE",
"-22 227 CURVE SMOOTH",
"-19 228 OFFCURVE",
"-17 234 OFFCURVE",
"-16 238 CURVE SMOOTH",
"-14 245 OFFCURVE",
"-13 252 OFFCURVE",
"-12 259 CURVE SMOOTH",
"-11 272 OFFCURVE",
"-10 284 OFFCURVE",
"-8 296 CURVE SMOOTH",
"-7 303 OFFCURVE",
"-6 309 OFFCURVE",
"-4 315 CURVE SMOOTH",
"3 331 OFFCURVE",
"7 349 OFFCURVE",
"8 366 CURVE SMOOTH",
"9 374 OFFCURVE",
"16 382 OFFCURVE",
"15 390 CURVE SMOOTH",
"15 407 OFFCURVE",
"26 420 OFFCURVE",
"29 436 CURVE SMOOTH",
"32 457 OFFCURVE",
"38 477 OFFCURVE",
"43 497 CURVE SMOOTH",
"45 509 OFFCURVE",
"44 521 OFFCURVE",
"47 533 CURVE SMOOTH",
"48 539 OFFCURVE",
"53 545 OFFCURVE",
"56 551 CURVE SMOOTH",
"58 557 OFFCURVE",
"60 564 OFFCURVE",
"62 571 CURVE SMOOTH",
"68 589 OFFCURVE",
"73 608 OFFCURVE",
"77 627 CURVE SMOOTH",
"81 643 OFFCURVE",
"83 660 OFFCURVE",
"86 677 CURVE SMOOTH",
"86 680 OFFCURVE",
"84 684 OFFCURVE",
"83 688 CURVE SMOOTH",
"80 696 OFFCURVE",
"85 702 OFFCURVE",
"90 707 CURVE SMOOTH",
"94 711 OFFCURVE",
"99 712 OFFCURVE",
"95 720 CURVE SMOOTH",
"93 725 OFFCURVE",
"100 734 OFFCURVE",
"102 741 CURVE SMOOTH",
"104 744 OFFCURVE",
"104 748 OFFCURVE",
"105 753 CURVE",
"107 755 OFFCURVE",
"111 758 OFFCURVE",
"114 762 CURVE SMOOTH",
"120 767 OFFCURVE",
"125 771 OFFCURVE",
"134 770 CURVE SMOOTH",
"143 769 OFFCURVE",
"152 769 OFFCURVE",
"158 778 CURVE SMOOTH",
"159 779 OFFCURVE",
"162 780 OFFCURVE",
"163 779 CURVE SMOOTH",
"171 775 OFFCURVE",
"173 781 OFFCURVE",
"176 786 CURVE",
"178 786 OFFCURVE",
"179 786 OFFCURVE",
"180 786 CURVE"
);
}
);
width = 450;
}
);
unicode = 004C;
},
{
glyphname = M;
lastChange = "2020-11-29 14:48:18 +0000";
layers = (
{
layerId = "5E01EF65-6B73-4EC0-899B-CA0420E2F636";
paths = (
{
closed = 1;
nodes = (
"350 418 OFFCURVE",
"351 412 OFFCURVE",
"351 406 CURVE",
"351 402 OFFCURVE",
"349 398 OFFCURVE",
"349 394 CURVE",
"348 390 OFFCURVE",
"349 386 OFFCURVE",
"348 382 CURVE",
"347 379 OFFCURVE",
"345 375 OFFCURVE",
"344 372 CURVE",
"343 369 OFFCURVE",
"343 366 OFFCURVE",
"343 363 CURVE",
"346 365 OFFCURVE",
"349 366 OFFCURVE",
"351 368 CURVE",
"360 378 OFFCURVE",
"362 391 OFFCURVE",
"364 404 CURVE",
"365 415 OFFCURVE",
"370 424 OFFCURVE",
"379 433 CURVE",
"387 441 OFFCURVE",
"399 451 OFFCURVE",
"390 466 CURVE",
"390 467 OFFCURVE",
"390 469 OFFCURVE",
"390 470 CURVE",
"396 482 OFFCURVE",
"400 496 OFFCURVE",
"406 508 CURVE",
"415 526 OFFCURVE",
"424 542 OFFCURVE",
"429 562 CURVE",
"433 577 OFFCURVE",
"428 595 OFFCURVE",
"443 606 CURVE",
"444 607 OFFCURVE",
"444 609 OFFCURVE",
"444 611 CURVE",
"442 617 OFFCURVE",
"445 620 OFFCURVE",
"450 624 CURVE",
"454 628 OFFCURVE",
"458 633 OFFCURVE",
"461 638 CURVE",
"463 642 OFFCURVE",
"462 648 OFFCURVE",
"463 655 CURVE",
"466 654 OFFCURVE",
"472 653 OFFCURVE",
"478 652 CURVE",
"476 665 OFFCURVE",
"488 667 OFFCURVE",
"496 674 CURVE",
"499 676 OFFCURVE",
"503 676 OFFCURVE",
"505 679 CURVE",
"521 697 OFFCURVE",
"543 702 OFFCURVE",
"566 705 CURVE",
"586 708 OFFCURVE",
"605 712 OFFCURVE",
"624 714 CURVE",
"627 715 OFFCURVE",
"631 714 OFFCURVE",
"634 714 CURVE",
"640 715 OFFCURVE",
"647 716 OFFCURVE",
"654 716 CURVE",
"662 716 OFFCURVE",
"672 716 OFFCURVE",
"679 712 CURVE",
"691 705 OFFCURVE",
"702 695 OFFCURVE",
"712 685 CURVE",
"715 682 OFFCURVE",
"716 677 OFFCURVE",
"718 672 CURVE",
"720 667 OFFCURVE",
"722 662 OFFCURVE",
"725 658 CURVE",
"733 649 OFFCURVE",
"735 640 OFFCURVE",
"734 629 CURVE",
"734 618 OFFCURVE",
"735 607 OFFCURVE",
"744 599 CURVE",
"746 597 OFFCURVE",
"746 593 OFFCURVE",
"746 589 CURVE",
"747 584 OFFCURVE",
"748 578 OFFCURVE",
"747 572 CURVE",
"747 568 OFFCURVE",
"745 563 OFFCURVE",
"743 560 CURVE",
"736 551 OFFCURVE",
"735 543 OFFCURVE",
"741 534 CURVE",
"746 525 OFFCURVE",
"739 517 OFFCURVE",
"739 508 CURVE",
"740 501 OFFCURVE",
"739 494 OFFCURVE",
"740 487 CURVE",
"740 478 OFFCURVE",
"740 469 OFFCURVE",
"741 460 CURVE",
"742 453 OFFCURVE",
"743 445 OFFCURVE",
"744 438 CURVE",
"744 434 OFFCURVE",
"746 429 OFFCURVE",
"745 427 CURVE",
"737 414 OFFCURVE",
"743 402 OFFCURVE",
"744 389 CURVE",
"744 388 OFFCURVE",
"745 387 OFFCURVE",
"745 386 CURVE",
"738 370 OFFCURVE",
"747 355 OFFCURVE",
"748 339 CURVE",
"749 331 OFFCURVE",
"747 321 OFFCURVE",
"746 313 CURVE",
"744 287 OFFCURVE",
"744 260 OFFCURVE",
"739 235 CURVE",
"737 219 OFFCURVE",
"742 204 OFFCURVE",
"740 189 CURVE",
"738 173 OFFCURVE",
"733 158 OFFCURVE",
"730 142 CURVE",
"729 138 OFFCURVE",
"728 134 OFFCURVE",
"729 130 CURVE",
"734 114 OFFCURVE",
"726 98 OFFCURVE",
"724 82 CURVE",
"722 70 OFFCURVE",
"720 58 OFFCURVE",
"717 47 CURVE",
"716 43 OFFCURVE",
"713 38 OFFCURVE",
"710 36 CURVE",
"697 28 OFFCURVE",
"684 20 OFFCURVE",
"671 13 CURVE",
"667 11 OFFCURVE",
"663 11 OFFCURVE",
"659 10 CURVE",
"655 9 OFFCURVE",
"650 7 OFFCURVE",
"646 5 CURVE",
"642 3 OFFCURVE",
"618 1 OFFCURVE",
"616 5 CURVE",
"611 15 OFFCURVE",
"598 21 OFFCURVE",
"599 35 CURVE",
"600 42 OFFCURVE",
"598 46 OFFCURVE",
"592 50 CURVE",
"583 55 OFFCURVE",
"582 64 OFFCURVE",
"581 73 CURVE",
"581 86 OFFCURVE",
"581 98 OFFCURVE",
"573 110 CURVE",
"568 119 OFFCURVE",
"568 131 OFFCURVE",
"565 141 CURVE",
"564 144 OFFCURVE",
"563 146 OFFCURVE",
"563 148 CURVE",
"563 153 OFFCURVE",
"563 160 OFFCURVE",
"566 161 CURVE",
"581 168 OFFCURVE",
"580 182 OFFCURVE",
"580 195 CURVE",
"581 199 OFFCURVE",
"580 203 OFFCURVE",
"581 206 CURVE",
"587 216 OFFCURVE",
"578 225 OFFCURVE",
"579 236 CURVE",
"579 240 OFFCURVE",
"577 244 OFFCURVE",
"578 249 CURVE",
"579 247 OFFCURVE",
"581 245 OFFCURVE",
"583 243 CURVE",
"584 245 OFFCURVE",
"586 247 OFFCURVE",
"586 248 CURVE",
"583 262 OFFCURVE",
"591 275 OFFCURVE",
"592 288 CURVE",
"594 303 OFFCURVE",
"593 319 OFFCURVE",
"594 335 CURVE",
"594 340 OFFCURVE",
"595 345 OFFCURVE",
"595 349 CURVE",
"595 358 OFFCURVE",
"596 368 OFFCURVE",
"593 376 CURVE",
"591 383 OFFCURVE",
"589 389 OFFCURVE",
"591 397 CURVE",
"596 412 OFFCURVE",
"592 429 OFFCURVE",
"599 445 CURVE",
"601 450 OFFCURVE",
"596 457 OFFCURVE",
"595 463 CURVE",
"594 470 OFFCURVE",
"594 478 OFFCURVE",
"595 485 CURVE",
"597 492 OFFCURVE",
"595 494 OFFCURVE",
"588 494 CURVE",
"578 493 OFFCURVE",
"569 483 OFFCURVE",
"572 473 CURVE",
"574 466 OFFCURVE",
"570 461 OFFCURVE",
"567 455 CURVE",
"562 446 OFFCURVE",
"556 437 OFFCURVE",
"553 427 CURVE",
"548 411 OFFCURVE",
"545 394 OFFCURVE",
"540 377 CURVE",
"537 368 OFFCURVE",
"531 359 OFFCURVE",
"527 350 CURVE",
"522 336 OFFCURVE",
"519 321 OFFCURVE",
"514 307 CURVE",
"510 296 OFFCURVE",
"505 285 OFFCURVE",
"500 274 CURVE",
"496 261 OFFCURVE",
"491 248 OFFCURVE",
"486 236 CURVE",
"484 230 OFFCURVE",
"482 223 OFFCURVE",
"477 218 CURVE",
"468 210 OFFCURVE",
"467 198 OFFCURVE",
"463 188 CURVE",
"460 182 OFFCURVE",
"458 176 OFFCURVE",
"454 171 CURVE",
"447 160 OFFCURVE",
"438 151 OFFCURVE",
"435 138 CURVE",
"433 132 OFFCURVE",
"426 129 OFFCURVE",
"421 124 CURVE",
"406 111 OFFCURVE",
"394 95 OFFCURVE",
"375 86 CURVE",
"358 79 OFFCURVE",
"343 69 OFFCURVE",
"327 62 CURVE",
"321 59 OFFCURVE",
"312 59 OFFCURVE",
"305 59 CURVE",
"293 60 OFFCURVE",
"282 57 OFFCURVE",
"272 49 CURVE",
"266 44 OFFCURVE",
"264 46 OFFCURVE",
"258 53 CURVE",
"262 55 OFFCURVE",
"266 58 OFFCURVE",
"268 59 CURVE",
"263 64 OFFCURVE",
"257 69 OFFCURVE",
"253 75 CURVE",
"241 92 OFFCURVE",
"237 111 OFFCURVE",
"231 130 CURVE",
"229 136 OFFCURVE",
"225 141 OFFCURVE",
"223 147 CURVE",
"221 152 OFFCURVE",
"219 157 OFFCURVE",
"218 163 CURVE",
"217 164 OFFCURVE",
"217 166 OFFCURVE",
"217 167 CURVE",
"199 191 OFFCURVE",
"200 221 OFFCURVE",
"190 247 CURVE",
"188 252 OFFCURVE",
"190 258 OFFCURVE",
"190 263 CURVE",
"188 271 OFFCURVE",
"186 279 OFFCURVE",
"184 287 CURVE",
"184 289 OFFCURVE",
"181 291 OFFCURVE",
"179 291 CURVE",
"177 291 OFFCURVE",
"173 289 OFFCURVE",
"173 288 CURVE",
"170 280 OFFCURVE",
"167 272 OFFCURVE",
"165 263 CURVE",
"156 262 OFFCURVE",
"154 256 OFFCURVE",
"153 247 CURVE",
"151 234 OFFCURVE",
"145 222 OFFCURVE",
"142 209 CURVE",
"140 201 OFFCURVE",
"138 192 OFFCURVE",
"137 184 CURVE",
"136 174 OFFCURVE",
"133 164 OFFCURVE",
"128 155 CURVE",
"124 148 OFFCURVE",
"124 138 OFFCURVE",
"121 130 CURVE",
"120 125 OFFCURVE",
"118 121 OFFCURVE",
"117 116 CURVE",
"116 109 OFFCURVE",
"116 102 OFFCURVE",
"116 96 CURVE",
"116 90 OFFCURVE",
"116 83 OFFCURVE",
"116 77 CURVE",
"117 70 OFFCURVE",
"116 62 OFFCURVE",
"118 55 CURVE",
"120 46 OFFCURVE",
"117 39 OFFCURVE",
"109 35 CURVE",
"100 30 OFFCURVE",
"93 25 OFFCURVE",
"85 19 CURVE",
"78 14 OFFCURVE",
"73 7 OFFCURVE",
"66 1 CURVE",
"64 0 OFFCURVE",
"60 0 OFFCURVE",
"57 0 CURVE",
"49 0 OFFCURVE",
"42 1 OFFCURVE",
"34 1 CURVE",
"32 2 OFFCURVE",
"28 4 OFFCURVE",
"28 5 CURVE",
"29 14 OFFCURVE",
"22 16 OFFCURVE",
"17 20 CURVE",
"7 26 OFFCURVE",
"1 33 OFFCURVE",
"-2 46 CURVE",
"-5 58 OFFCURVE",
"-12 69 OFFCURVE",
"-17 81 CURVE",
"-17 81 OFFCURVE",
"-18 81 OFFCURVE",
"-18 82 CURVE",
"-17 101 OFFCURVE",
"-35 115 OFFCURVE",
"-34 134 CURVE",
"-34 143 OFFCURVE",
"-32 152 OFFCURVE",
"-29 161 CURVE",
"-28 166 OFFCURVE",
"-26 170 OFFCURVE",
"-32 174 CURVE",
"-37 179 OFFCURVE",
"-36 184 OFFCURVE",
"-31 188 CURVE",
"-29 190 OFFCURVE",
"-30 194 OFFCURVE",
"-29 197 CURVE",
"-29 199 OFFCURVE",
"-30 202 OFFCURVE",
"-30 205 CURVE",
"-28 210 OFFCURVE",
"-31 217 OFFCURVE",
"-36 221 CURVE",
"-38 222 OFFCURVE",
"-39 226 OFFCURVE",
"-38 228 CURVE",
"-38 229 OFFCURVE",
"-33 231 OFFCURVE",
"-32 230 CURVE",
"-26 226 OFFCURVE",
"-25 231 OFFCURVE",
"-22 234 CURVE",
"-9 247 OFFCURVE",
"-10 263 OFFCURVE",
"-11 279 CURVE",
"-12 284 OFFCURVE",
"-10 288 OFFCURVE",
"-9 292 CURVE",
"-8 294 OFFCURVE",
"-7 296 OFFCURVE",
"-7 298 CURVE",
"-11 308 OFFCURVE",
"-5 315 OFFCURVE",
"0 322 CURVE",
"6 330 OFFCURVE",
"0 337 OFFCURVE",
"0 345 CURVE",
"0 347 OFFCURVE",
"-1 350 OFFCURVE",
"0 352 CURVE",
"6 369 OFFCURVE",
"10 386 OFFCURVE",
"11 404 CURVE",
"12 408 OFFCURVE",
"9 412 OFFCURVE",
"8 417 CURVE",
"7 417 OFFCURVE",
"6 417 OFFCURVE",
"5 417 CURVE",
"-1 408 OFFCURVE",
"-6 398 OFFCURVE",
"-11 388 CURVE",
"-12 389 OFFCURVE",
"-13 389 OFFCURVE",
"-14 389 CURVE",
"-14 400 OFFCURVE",
"-18 411 OFFCURVE",
"-12 423 CURVE",
"-8 431 OFFCURVE",
"-4 440 OFFCURVE",
"-1 448 CURVE",
"2 455 OFFCURVE",
"6 456 OFFCURVE",
"12 453 CURVE",
"19 449 OFFCURVE",
"19 453 OFFCURVE",
"21 459 CURVE",
"18 459 OFFCURVE",
"17 459 OFFCURVE",
"16 459 CURVE",
"12 459 OFFCURVE",
"9 460 OFFCURVE",
"6 460 CURVE",
"8 463 OFFCURVE",
"9 468 OFFCURVE",
"13 469 CURVE",
"15 470 OFFCURVE",
"19 467 OFFCURVE",
"22 465 CURVE",
"26 463 OFFCURVE",
"29 456 OFFCURVE",
"31 457 CURVE",
"38 457 OFFCURVE",
"41 464 OFFCURVE",
"43 470 CURVE",
"44 476 OFFCURVE",
"46 481 OFFCURVE",
"47 487 CURVE",
"47 491 OFFCURVE",
"46 494 OFFCURVE",
"46 498 CURVE",
"46 502 OFFCURVE",
"44 509 OFFCURVE",
"46 511 CURVE",
"58 521 OFFCURVE",
"59 537 OFFCURVE",
"66 550 CURVE",
"69 556 OFFCURVE",
"67 566 OFFCURVE",
"65 573 CURVE",
"62 583 OFFCURVE",
"64 592 OFFCURVE",
"71 598 CURVE",
"79 606 OFFCURVE",
"83 613 OFFCURVE",
"85 625 CURVE",
"86 635 OFFCURVE",
"94 643 OFFCURVE",
"101 652 CURVE",
"111 663 OFFCURVE",
"116 676 OFFCURVE",
"118 691 CURVE",
"119 695 OFFCURVE",
"120 699 OFFCURVE",
"122 704 CURVE",
"120 706 OFFCURVE",
"118 708 OFFCURVE",
"114 712 CURVE",
"120 719 OFFCURVE",
"127 726 OFFCURVE",
"133 732 CURVE",
"134 733 OFFCURVE",
"139 733 OFFCURVE",
"140 732 CURVE",
"145 726 OFFCURVE",
"149 728 OFFCURVE",
"154 731 CURVE",
"168 740 OFFCURVE",
"183 747 OFFCURVE",
"200 749 CURVE",
"208 750 OFFCURVE",
"214 756 OFFCURVE",
"221 757 CURVE",
"226 757 OFFCURVE",
"231 756 OFFCURVE",
"236 756 CURVE",
"245 757 OFFCURVE",
"254 759 OFFCURVE",
"260 748 CURVE",
"269 735 OFFCURVE",
"281 723 OFFCURVE",
"288 709 CURVE",
"296 693 OFFCURVE",
"300 675 OFFCURVE",
"306 658 CURVE",
"309 649 OFFCURVE",
"312 640 OFFCURVE",
"316 631 CURVE",
"317 627 OFFCURVE",
"318 622 OFFCURVE",
"318 618 CURVE",
"318 596 OFFCURVE",
"314 574 OFFCURVE",
"322 553 CURVE",
"327 542 OFFCURVE",
"325 532 OFFCURVE",
"323 520 CURVE",
"321 510 OFFCURVE",
"325 498 OFFCURVE",
"326 488 CURVE",
"327 479 OFFCURVE",
"328 470 OFFCURVE",
"329 462 CURVE",
"330 452 OFFCURVE",
"332 441 OFFCURVE",
"334 431 CURVE",
"334 429 OFFCURVE",
"338 427 OFFCURVE",
"340 427 CURVE",
"344 426 OFFCURVE",
"348 427 OFFCURVE",
"350 427 CURVE"
);
},
{
closed = 1;
nodes = (
"44 608 OFFCURVE",
"51 615 OFFCURVE",
"53 621 CURVE SMOOTH",
"53 622 OFFCURVE",
"58 622 OFFCURVE",
"61 623 CURVE",
"62 617 OFFCURVE",
"63 611 OFFCURVE",
"65 605 CURVE",
"59 603 OFFCURVE",
"56 602 OFFCURVE",
"53 602 CURVE"
);
}
);
width = 850;
}
);
unicode = 004D;
},
{
glyphname = N;
lastChange = "2020-11-29 14:48:25 +0000";
layers = (
{
layerId = "5E01EF65-6B73-4EC0-899B-CA0420E2F636";
paths = (
{
closed = 1;
nodes = (
"538 720 OFFCURVE",
"542 720 OFFCURVE",
"546 720 CURVE",
"547 719 OFFCURVE",
"548 717 OFFCURVE",
"550 716 CURVE",
"555 713 OFFCURVE",
"564 711 OFFCURVE",
"564 707 CURVE",
"566 698 OFFCURVE",
"571 694 OFFCURVE",
"577 690 CURVE",
"579 688 OFFCURVE",
"580 685 OFFCURVE",
"581 682 CURVE",
"583 675 OFFCURVE",
"581 665 OFFCURVE",
"586 660 CURVE",
"591 652 OFFCURVE",
"592 644 OFFCURVE",
"595 636 CURVE",
"597 631 OFFCURVE",
"596 625 OFFCURVE",
"599 622 CURVE",
"604 613 OFFCURVE",
"605 604 OFFCURVE",
"605 595 CURVE",
"605 585 OFFCURVE",
"604 574 OFFCURVE",
"606 564 CURVE",
"610 540 OFFCURVE",
"617 517 OFFCURVE",
"613 493 CURVE",
"612 486 OFFCURVE",
"615 478 OFFCURVE",
"616 471 CURVE",
"618 451 OFFCURVE",
"619 432 OFFCURVE",
"620 413 CURVE",
"620 410 OFFCURVE",
"619 406 OFFCURVE",
"619 403 CURVE",
"619 391 OFFCURVE",
"619 379 OFFCURVE",
"619 368 CURVE",
"618 365 OFFCURVE",
"620 363 OFFCURVE",
"619 361 CURVE",
"615 347 OFFCURVE",
"612 334 OFFCURVE",
"612 319 CURVE",
"613 310 OFFCURVE",
"612 302 OFFCURVE",
"607 293 CURVE",
"603 287 OFFCURVE",
"601 280 OFFCURVE",
"601 273 CURVE",
"600 259 OFFCURVE",
"599 247 OFFCURVE",
"590 235 CURVE",
"585 228 OFFCURVE",
"584 219 OFFCURVE",
"581 211 CURVE",
"581 209 OFFCURVE",
"583 206 OFFCURVE",
"583 204 CURVE",
"575 197 OFFCURVE",
"574 186 OFFCURVE",
"571 177 CURVE",
"568 168 OFFCURVE",
"566 159 OFFCURVE",
"558 152 CURVE",
"553 148 OFFCURVE",
"549 140 OFFCURVE",
"549 133 CURVE",
"549 127 OFFCURVE",
"548 124 OFFCURVE",
"544 120 CURVE",
"533 109 OFFCURVE",
"522 98 OFFCURVE",
"511 87 CURVE",
"497 75 OFFCURVE",
"484 62 OFFCURVE",
"470 51 CURVE",
"464 46 OFFCURVE",
"455 43 OFFCURVE",
"448 40 CURVE",
"432 33 OFFCURVE",
"417 23 OFFCURVE",
"401 20 CURVE",
"387 17 OFFCURVE",
"372 22 OFFCURVE",
"357 23 CURVE",
"356 24 OFFCURVE",
"355 26 OFFCURVE",
"354 27 CURVE",
"348 33 OFFCURVE",
"343 40 OFFCURVE",
"337 44 CURVE",
"323 54 OFFCURVE",
"308 61 OFFCURVE",
"295 70 CURVE",
"282 78 OFFCURVE",
"270 88 OFFCURVE",
"265 102 CURVE",
"259 119 OFFCURVE",
"250 133 OFFCURVE",
"238 147 CURVE",
"231 155 OFFCURVE",
"221 162 OFFCURVE",
"213 170 CURVE",
"204 180 OFFCURVE",
"197 190 OFFCURVE",
"202 202 CURVE",
"205 201 OFFCURVE",
"208 200 OFFCURVE",
"213 198 CURVE",
"211 207 OFFCURVE",
"210 214 OFFCURVE",
"209 221 CURVE",
"208 229 OFFCURVE",
"207 237 OFFCURVE",
"204 244 CURVE",
"202 248 OFFCURVE",
"198 252 OFFCURVE",
"195 255 CURVE",
"194 258 OFFCURVE",
"194 261 OFFCURVE",
"194 263 CURVE",
"190 276 OFFCURVE",
"183 289 OFFCURVE",
"182 302 CURVE",
"181 318 OFFCURVE",
"172 328 OFFCURVE",
"163 339 CURVE",
"162 336 OFFCURVE",
"162 332 OFFCURVE",
"163 330 CURVE",
"173 322 OFFCURVE",
"165 316 OFFCURVE",
"162 308 CURVE",
"154 315 OFFCURVE",
"151 313 OFFCURVE",
"149 304 CURVE",
"146 288 OFFCURVE",
"142 273 OFFCURVE",
"138 257 CURVE",
"137 251 OFFCURVE",
"138 244 OFFCURVE",
"136 238 CURVE",
"134 230 OFFCURVE",
"130 221 OFFCURVE",
"126 213 CURVE",
"124 207 OFFCURVE",
"122 200 OFFCURVE",
"119 194 CURVE",
"114 181 OFFCURVE",
"106 168 OFFCURVE",
"104 155 CURVE",
"101 139 OFFCURVE",
"90 129 OFFCURVE",
"85 114 CURVE",
"86 114 OFFCURVE",
"88 113 OFFCURVE",
"90 110 CURVE",
"79 100 OFFCURVE",
"68 90 OFFCURVE",
"57 80 CURVE",
"52 76 OFFCURVE",
"49 71 OFFCURVE",
"41 75 CURVE",
"39 76 OFFCURVE",
"36 74 OFFCURVE",
"33 72 CURVE",
"30 70 OFFCURVE",
"28 67 OFFCURVE",
"25 65 CURVE",
"20 61 OFFCURVE",
"16 57 OFFCURVE",
"11 54 CURVE",
"9 53 OFFCURVE",
"6 55 OFFCURVE",
"3 55 CURVE",
"4 57 OFFCURVE",
"5 59 OFFCURVE",
"7 61 CURVE",
"1 63 OFFCURVE",
"-4 66 OFFCURVE",
"-8 68 CURVE",
"-11 74 OFFCURVE",
"-13 81 OFFCURVE",
"-15 86 CURVE",
"-15 91 OFFCURVE",
"-14 95 OFFCURVE",
"-14 99 CURVE",
"-10 100 OFFCURVE",
"-8 104 OFFCURVE",
"-13 107 CURVE",
"-25 118 OFFCURVE",
"-29 131 OFFCURVE",
"-30 146 CURVE",
"-31 151 OFFCURVE",
"-30 154 OFFCURVE",
"-36 157 CURVE",
"-39 159 OFFCURVE",
"-41 166 OFFCURVE",
"-41 171 CURVE",
"-38 190 OFFCURVE",
"-34 209 OFFCURVE",
"-30 229 CURVE",
"-29 233 OFFCURVE",
"-24 237 OFFCURVE",
"-23 242 CURVE",
"-21 255 OFFCURVE",
"-19 268 OFFCURVE",
"-18 281 CURVE",
"-17 294 OFFCURVE",
"-16 307 OFFCURVE",
"-16 321 CURVE",
"-16 324 OFFCURVE",
"-18 330 OFFCURVE",
"-21 332 CURVE",
"-30 338 OFFCURVE",
"-31 339 OFFCURVE",
"-28 348 CURVE",
"-28 345 OFFCURVE",
"-27 340 OFFCURVE",
"-27 337 CURVE",
"-21 337 OFFCURVE",
"-17 337 OFFCURVE",
"-12 337 CURVE",
"-4 346 OFFCURVE",
"-10 364 OFFCURVE",
"7 368 CURVE",
"5 375 OFFCURVE",
"-1 381 OFFCURVE",
"10 385 CURVE",
"10 385 OFFCURVE",
"10 386 OFFCURVE",
"11 387 CURVE",
"15 402 OFFCURVE",
"23 415 OFFCURVE",
"21 431 CURVE",
"21 434 OFFCURVE",
"23 438 OFFCURVE",
"24 442 CURVE",
"29 466 OFFCURVE",
"35 491 OFFCURVE",
"40 516 CURVE",
"42 526 OFFCURVE",
"43 536 OFFCURVE",
"44 546 CURVE",
"45 551 OFFCURVE",
"47 555 OFFCURVE",
"48 560 CURVE",
"45 559 OFFCURVE",
"43 559 OFFCURVE",
"41 558 CURVE",
"47 577 OFFCURVE",
"47 578 OFFCURVE",
"38 585 CURVE",
"32 570 OFFCURVE",
"31 569 OFFCURVE",
"16 573 CURVE",
"17 579 OFFCURVE",
"20 585 OFFCURVE",
"20 590 CURVE",
"21 601 OFFCURVE",
"27 604 OFFCURVE",
"35 606 CURVE",
"41 607 OFFCURVE",
"43 610 OFFCURVE",
"44 615 CURVE",
"45 619 OFFCURVE",
"47 623 OFFCURVE",
"49 626 CURVE",
"57 638 OFFCURVE",
"74 643 OFFCURVE",
"72 662 CURVE",
"85 659 OFFCURVE",
"93 664 OFFCURVE",
"100 673 CURVE",
"102 675 OFFCURVE",
"105 675 OFFCURVE",
"108 676 CURVE",
"118 677 OFFCURVE",
"128 679 OFFCURVE",
"138 679 CURVE",
"157 678 OFFCURVE",
"177 680 OFFCURVE",
"188 658 CURVE",
"194 645 OFFCURVE",
"204 633 OFFCURVE",
"214 622 CURVE",
"229 607 OFFCURVE",
"235 586 OFFCURVE",
"243 567 CURVE",
"253 544 OFFCURVE",
"260 520 OFFCURVE",
"270 497 CURVE",
"283 470 OFFCURVE",
"292 441 OFFCURVE",
"302 413 CURVE",
"304 408 OFFCURVE",
"305 402 OFFCURVE",
"307 397 CURVE",
"312 382 OFFCURVE",
"317 368 OFFCURVE",
"322 354 CURVE",
"324 348 OFFCURVE",
"328 342 OFFCURVE",
"330 335 CURVE",
"335 320 OFFCURVE",
"338 304 OFFCURVE",
"342 288 CURVE",
"344 282 OFFCURVE",
"347 275 OFFCURVE",
"350 270 CURVE",
"357 258 OFFCURVE",
"361 243 OFFCURVE",
"377 237 CURVE",
"378 241 OFFCURVE",
"379 245 OFFCURVE",
"381 247 CURVE",
"386 253 OFFCURVE",
"392 259 OFFCURVE",
"397 265 CURVE",
"400 260 OFFCURVE",
"403 256 OFFCURVE",
"406 251 CURVE",
"406 251 OFFCURVE",
"407 250 OFFCURVE",
"407 250 CURVE",
"417 254 OFFCURVE",
"426 263 OFFCURVE",
"424 272 CURVE",
"422 283 OFFCURVE",
"428 288 OFFCURVE",
"432 295 CURVE",
"431 297 OFFCURVE",
"429 300 OFFCURVE",
"427 302 CURVE",
"435 308 OFFCURVE",
"442 314 OFFCURVE",
"440 326 CURVE",
"439 331 OFFCURVE",
"443 338 OFFCURVE",
"444 344 CURVE",
"448 359 OFFCURVE",
"451 374 OFFCURVE",
"456 389 CURVE",
"460 403 OFFCURVE",
"465 416 OFFCURVE",
"457 431 CURVE",
"453 439 OFFCURVE",
"453 450 OFFCURVE",
"453 459 CURVE",
"453 469 OFFCURVE",
"455 478 OFFCURVE",
"456 488 CURVE",
"457 491 OFFCURVE",
"458 495 OFFCURVE",
"459 499 CURVE",
"460 506 OFFCURVE",
"463 514 OFFCURVE",
"463 521 CURVE",
"462 539 OFFCURVE",
"460 556 OFFCURVE",
"457 574 CURVE",
"455 589 OFFCURVE",
"457 604 OFFCURVE",
"449 619 CURVE",
"446 627 OFFCURVE",
"445 638 OFFCURVE",
"447 649 CURVE",
"451 661 OFFCURVE",
"458 671 OFFCURVE",
"462 683 CURVE",
"465 690 OFFCURVE",
"468 695 OFFCURVE",
"477 693 CURVE",
"478 705 OFFCURVE",
"485 705 OFFCURVE",
"494 701 CURVE",
"493 704 OFFCURVE",
"492 707 OFFCURVE",
"492 710 CURVE",
"494 711 OFFCURVE",
"497 711 OFFCURVE",
"500 711 CURVE",
"507 712 OFFCURVE",
"514 712 OFFCURVE",
"521 713 CURVE",
"526 714 OFFCURVE",
"530 718 OFFCURVE",
"534 720 CURVE"
);
},
{
closed = 1;
nodes = (
"20 563 OFFCURVE",
"21 564 OFFCURVE",
"34 561 CURVE",
"30 557 OFFCURVE",
"27 554 OFFCURVE",
"22 550 CURVE"
);
},
{
closed = 1;
nodes = (
"-35 304 OFFCURVE",
"-37 298 OFFCURVE",
"-39 291 CURVE",
"-40 292 OFFCURVE",
"-41 292 OFFCURVE",
"-42 292 CURVE",
"-40 298 OFFCURVE",
"-39 305 OFFCURVE",
"-37 311 CURVE",
"-36 311 OFFCURVE",
"-34 311 OFFCURVE",
"-33 310 CURVE"
);
}
);
width = 700;
}
);
unicode = 004E;
},
{
glyphname = O;
lastChange = "2020-11-29 14:48:32 +0000";
layers = (
{
layerId = "5E01EF65-6B73-4EC0-899B-CA0420E2F636";
paths = (
{
closed = 1;
nodes = (
"354 701 OFFCURVE",
"364 701 OFFCURVE",
"373 701 CURVE",
"375 700 OFFCURVE",
"376 698 OFFCURVE",
"377 698 CURVE",
"390 693 OFFCURVE",
"404 690 OFFCURVE",
"417 686 CURVE",
"423 684 OFFCURVE",
"428 680 OFFCURVE",
"433 676 CURVE",
"436 675 OFFCURVE",
"438 671 OFFCURVE",
"441 670 CURVE",
"459 663 OFFCURVE",
"473 650 OFFCURVE",
"484 634 CURVE",
"488 629 OFFCURVE",
"493 624 OFFCURVE",
"499 618 CURVE",
"508 594 OFFCURVE",
"517 568 OFFCURVE",
"526 542 CURVE",
"526 538 OFFCURVE",
"526 534 OFFCURVE",
"528 531 CURVE",
"534 519 OFFCURVE",
"542 507 OFFCURVE",
"540 492 CURVE",
"540 490 OFFCURVE",
"542 488 OFFCURVE",
"544 486 CURVE",
"544 484 OFFCURVE",
"544 482 OFFCURVE",
"544 480 CURVE",
"542 472 OFFCURVE",
"540 464 OFFCURVE",
"540 456 CURVE",
"539 444 OFFCURVE",
"540 432 OFFCURVE",
"538 421 CURVE",
"536 410 OFFCURVE",
"531 399 OFFCURVE",
"528 389 CURVE",
"524 380 OFFCURVE",
"525 371 OFFCURVE",
"526 361 CURVE",
"527 345 OFFCURVE",
"516 332 OFFCURVE",
"508 319 CURVE",
"504 313 OFFCURVE",
"503 308 OFFCURVE",
"506 301 CURVE",
"507 299 OFFCURVE",
"506 295 OFFCURVE",
"505 293 CURVE",
"496 281 OFFCURVE",
"487 270 OFFCURVE",
"478 258 CURVE",
"477 257 OFFCURVE",
"478 254 OFFCURVE",
"477 253 CURVE",
"473 242 OFFCURVE",
"474 229 OFFCURVE",
"461 222 CURVE",
"458 220 OFFCURVE",
"454 214 OFFCURVE",
"454 210 CURVE",
"453 199 OFFCURVE",
"446 193 OFFCURVE",
"440 185 CURVE",
"434 179 OFFCURVE",
"431 170 OFFCURVE",
"422 165 CURVE",
"407 157 OFFCURVE",
"396 142 OFFCURVE",
"383 131 CURVE",
"373 123 OFFCURVE",
"362 117 OFFCURVE",
"354 109 CURVE",
"346 101 OFFCURVE",
"334 101 OFFCURVE",
"329 90 CURVE",
"329 88 OFFCURVE",
"326 86 OFFCURVE",
"325 86 CURVE",
"307 88 OFFCURVE",
"297 73 OFFCURVE",
"283 66 CURVE",
"274 61 OFFCURVE",
"266 54 OFFCURVE",
"257 48 CURVE",
"255 47 OFFCURVE",
"252 48 OFFCURVE",
"250 48 CURVE",
"246 48 OFFCURVE",
"242 49 OFFCURVE",
"238 48 CURVE",
"226 47 OFFCURVE",
"217 35 OFFCURVE",
"204 39 CURVE",
"203 39 OFFCURVE",
"202 39 OFFCURVE",
"202 38 CURVE",
"192 29 OFFCURVE",
"183 37 OFFCURVE",
"174 40 CURVE",
"169 41 OFFCURVE",
"163 41 OFFCURVE",
"155 43 CURVE",
"150 49 OFFCURVE",
"135 51 OFFCURVE",
"132 65 CURVE",
"132 66 OFFCURVE",
"131 66 OFFCURVE",
"130 66 CURVE",
"124 71 OFFCURVE",
"118 75 OFFCURVE",
"112 80 CURVE",
"104 86 OFFCURVE",
"97 93 OFFCURVE",
"90 98 CURVE",
"75 108 OFFCURVE",
"61 117 OFFCURVE",
"47 127 CURVE",
"44 129 OFFCURVE",
"41 132 OFFCURVE",
"39 136 CURVE",
"32 151 OFFCURVE",
"24 166 OFFCURVE",
"17 182 CURVE",
"14 187 OFFCURVE",
"13 194 OFFCURVE",
"10 200 CURVE",
"8 208 OFFCURVE",
"5 215 OFFCURVE",
"2 223 CURVE",
"1 223 OFFCURVE",
"0 222 OFFCURVE",
"-1 222 CURVE",
"-1 217 OFFCURVE",
"-1 212 OFFCURVE",
"-1 205 CURVE",
"-10 215 OFFCURVE",
"-7 222 OFFCURVE",
"-3 228 CURVE",
"-5 233 OFFCURVE",
"-8 237 OFFCURVE",
"-9 241 CURVE",
"-10 250 OFFCURVE",
"-9 259 OFFCURVE",
"-10 268 CURVE",
"-11 286 OFFCURVE",
"-15 305 OFFCURVE",
"-12 323 CURVE",
"-7 350 OFFCURVE",
"-8 379 OFFCURVE",
"2 405 CURVE",
"7 417 OFFCURVE",
"0 432 OFFCURVE",
"10 443 CURVE",
"12 445 OFFCURVE",
"12 450 OFFCURVE",
"11 453 CURVE",
"10 462 OFFCURVE",
"15 468 OFFCURVE",
"21 474 CURVE",
"26 479 OFFCURVE",
"31 484 OFFCURVE",
"34 490 CURVE",
"44 507 OFFCURVE",
"49 526 OFFCURVE",
"54 544 CURVE",
"63 546 OFFCURVE",
"76 558 OFFCURVE",
"75 565 CURVE",
"64 562 OFFCURVE",
"55 553 OFFCURVE",
"54 544 CURVE",
"52 543 OFFCURVE",
"49 542 OFFCURVE",
"46 540 CURVE",
"45 541 OFFCURVE",
"44 543 OFFCURVE",
"42 545 CURVE",
"37 550 OFFCURVE",
"36 555 OFFCURVE",
"45 557 CURVE",
"47 558 OFFCURVE",
"48 559 OFFCURVE",
"50 559 CURVE",
"57 561 OFFCURVE",
"59 565 OFFCURVE",
"58 573 CURVE",
"57 578 OFFCURVE",
"60 584 OFFCURVE",
"63 588 CURVE",
"69 595 OFFCURVE",
"77 600 OFFCURVE",
"84 607 CURVE",
"88 610 OFFCURVE",
"91 615 OFFCURVE",
"94 606 CURVE",
"94 604 OFFCURVE",
"97 603 OFFCURVE",
"99 603 CURVE",
"108 602 OFFCURVE",
"112 609 OFFCURVE",
"117 614 CURVE",
"126 626 OFFCURVE",
"134 638 OFFCURVE",
"145 647 CURVE",
"155 655 OFFCURVE",
"167 660 OFFCURVE",
"179 665 CURVE",
"187 669 OFFCURVE",
"195 671 OFFCURVE",
"202 675 CURVE",
"218 684 OFFCURVE",
"236 688 OFFCURVE",
"254 689 CURVE",
"261 690 OFFCURVE",
"268 688 OFFCURVE",
"275 690 CURVE",
"295 694 OFFCURVE",
"314 698 OFFCURVE",
"334 697 CURVE",
"337 697 OFFCURVE",
"341 700 OFFCURVE",
"344 701 CURVE"
);
},
{
closed = 1;
nodes = (
"280 280 OFFCURVE",
"283 278 OFFCURVE",
"284 278 CURVE",
"287 279 OFFCURVE",
"290 282 OFFCURVE",
"292 284 CURVE",
"293 284 OFFCURVE",
"292 287 OFFCURVE",
"292 288 CURVE",
"289 287 OFFCURVE",
"286 287 OFFCURVE",
"283 286 CURVE",
"281 285 OFFCURVE",
"280 284 OFFCURVE",
"278 283 CURVE",
"279 285 OFFCURVE",
"281 288 OFFCURVE",
"280 289 CURVE",
"275 297 OFFCURVE",
"278 305 OFFCURVE",
"281 310 CURVE",
"285 311 OFFCURVE",
"288 311 OFFCURVE",
"289 313 CURVE",
"290 314 OFFCURVE",
"291 317 OFFCURVE",
"291 320 CURVE",
"292 323 OFFCURVE",
"291 328 OFFCURVE",
"293 330 CURVE",
"297 335 OFFCURVE",
"303 337 OFFCURVE",
"307 342 CURVE",
"313 348 OFFCURVE",
"317 356 OFFCURVE",
"322 363 CURVE",
"323 362 OFFCURVE",
"324 362 OFFCURVE",
"325 362 CURVE",
"324 356 OFFCURVE",
"322 351 OFFCURVE",
"322 345 CURVE",
"321 342 OFFCURVE",
"322 338 OFFCURVE",
"323 336 CURVE",
"325 334 OFFCURVE",
"331 335 OFFCURVE",
"332 337 CURVE",
"334 345 OFFCURVE",
"343 348 OFFCURVE",
"346 354 CURVE",
"354 368 OFFCURVE",
"358 383 OFFCURVE",
"354 399 CURVE",
"352 406 OFFCURVE",
"357 419 OFFCURVE",
"364 422 CURVE",
"370 426 OFFCURVE",
"377 430 OFFCURVE",
"379 438 CURVE",
"382 458 OFFCURVE",
"358 491 OFFCURVE",
"338 492 CURVE",
"322 492 OFFCURVE",
"306 493 OFFCURVE",
"292 488 CURVE",
"269 480 OFFCURVE",
"257 495 OFFCURVE",
"243 505 CURVE",
"236 502 OFFCURVE",
"228 500 OFFCURVE",
"220 497 CURVE",
"200 487 OFFCURVE",
"190 469 OFFCURVE",
"180 451 CURVE",
"171 437 OFFCURVE",
"165 421 OFFCURVE",
"159 405 CURVE",
"152 386 OFFCURVE",
"140 368 OFFCURVE",
"142 346 CURVE",
"142 345 OFFCURVE",
"141 344 OFFCURVE",
"140 344 CURVE",
"139 339 OFFCURVE",
"138 334 OFFCURVE",
"137 330 CURVE",
"135 324 OFFCURVE",
"134 319 OFFCURVE",
"133 314 CURVE",
"131 309 OFFCURVE",
"127 302 OFFCURVE",
"129 298 CURVE",
"134 280 OFFCURVE",
"141 263 OFFCURVE",
"148 245 CURVE",
"149 243 OFFCURVE",
"151 240 OFFCURVE",
"154 239 CURVE",
"168 234 OFFCURVE",
"183 231 OFFCURVE",
"199 235 CURVE",
"203 237 OFFCURVE",
"208 239 OFFCURVE",
"213 240 CURVE",
"213 257 OFFCURVE",
"238 269 OFFCURVE",
"258 272 CURVE",
"259 269 OFFCURVE",
"258 264 OFFCURVE",
"260 263 CURVE",
"262 262 OFFCURVE",
"266 263 OFFCURVE",
"269 264 CURVE",
"277 267 OFFCURVE",
"280 273 OFFCURVE",
"278 281 CURVE"
);
},
{
closed = 1;
nodes = (
"172 45 OFFCURVE",
"172 45 OFFCURVE",
"180 54 CURVE",
"172 60 OFFCURVE",
"167 60 OFFCURVE",
"159 52 CURVE"
);
},
{
closed = 1;
nodes = (
"80 578 OFFCURVE",
"85 584 OFFCURVE",
"82 594 CURVE",
"78 588 OFFCURVE",
"74 583 OFFCURVE",
"70 577 CURVE"
);
}
);
width = 600;
}
);
unicode = 004F;
},
{
glyphname = P;
lastChange = "2020-11-29 14:32:35 +0000";
layers = (
{
layerId = "5E01EF65-6B73-4EC0-899B-CA0420E2F636";
paths = (
{
closed = 1;
nodes = (
"269.755 846.73 OFFCURVE",
"285.429 846.73 OFFCURVE",
"301.104 846.73 CURVE",
"309.62 845.325 OFFCURVE",
"318.129 843.882 OFFCURVE",
"326.654 842.531 CURVE",
"330.73 841.885 OFFCURVE",
"336.032 842.854 OFFCURVE",
"338.725 840.619 CURVE",
"352.88 828.868 OFFCURVE",
"369.098 825.586 OFFCURVE",
"386.848 826.254 CURVE",
"390.375 826.387 OFFCURVE",
"394.642 825.147 OFFCURVE",
"397.434 823.039 CURVE",
"405.567 816.897 OFFCURVE",
"412.981 809.813 OFFCURVE",
"420.961 803.455 CURVE",
"426.021 799.425 OFFCURVE",
"431.149 794.142 OFFCURVE",
"437.026 792.773 CURVE",
"447.252 790.391 OFFCURVE",
"453.203 784.712 OFFCURVE",
"458.505 776.231 CURVE",
"464.422 766.766 OFFCURVE",
"470.416 756.244 OFFCURVE",
"479.09 749.888 CURVE",
"490.101 741.82 OFFCURVE",
"496.005 730.799 OFFCURVE",
"501.858 719.936 CURVE",
"509.693 705.394 OFFCURVE",
"515.063 689.518 OFFCURVE",
"521.397 674.176 CURVE",
"529.679 654.118 OFFCURVE",
"538.11 634.116 OFFCURVE",
"546.009 613.907 CURVE",
"550.876 601.455 OFFCURVE",
"556.461 589.288 OFFCURVE",
"555.739 575.108 CURVE",
"554.845 557.587 OFFCURVE",
"555.962 539.971 OFFCURVE",
"555.295 522.431 CURVE",
"554.779 508.855 OFFCURVE",
"551.77 495.326 OFFCURVE",
"551.854 481.789 CURVE",
"551.946 467.118 OFFCURVE",
"546.627 454.529 OFFCURVE",
"541.219 441.558 CURVE",
"537.384 432.359 OFFCURVE",
"533.37 422.917 OFFCURVE",
"538.838 412.555 CURVE",
"540.27 409.84 OFFCURVE",
"539.477 405.953 OFFCURVE",
"539.619 403.886 CURVE",
"534.546 402.646 OFFCURVE",
"529.718 402.936 OFFCURVE",
"527.536 400.674 CURVE",
"518.811 391.629 OFFCURVE",
"510.016 382.397 OFFCURVE",
"502.979 372.056 CURVE",
"497.193 363.554 OFFCURVE",
"492.629 354.836 OFFCURVE",
"482.101 351.037 CURVE",
"478.805 349.847 OFFCURVE",
"476.338 346.14 OFFCURVE",
"473.703 343.383 CURVE",
"467.662 337.063 OFFCURVE",
"462.527 329.589 OFFCURVE",
"455.65 324.409 CURVE",
"430.399 305.394 OFFCURVE",
"406.661 284.202 OFFCURVE",
"378.271 269.581 CURVE",
"366.744 263.645 OFFCURVE",
"355.678 256.766 OFFCURVE",
"343.95 251.282 CURVE",
"336.256 247.684 OFFCURVE",
"327.209 246.834 OFFCURVE",
"319.78 242.861 CURVE",
"313.56 239.535 OFFCURVE",
"309.752 237.743 OFFCURVE",
"307.85 246.639 CURVE",
"303.716 243.899 OFFCURVE",
"300.605 240.391 OFFCURVE",
"296.94 239.661 CURVE",
"281.129 236.509 OFFCURVE",
"265.142 231.987 OFFCURVE",
"249.245 232.086 CURVE",
"229.109 232.213 OFFCURVE",
"219.127 217.893 OFFCURVE",
"206.021 207.616 CURVE",
"204.444 206.379 OFFCURVE",
"203.277 203.85 OFFCURVE",
"203.043 201.792 CURVE",
"201.491 188.105 OFFCURVE",
"200.961 174.265 OFFCURVE",
"198.711 160.705 CURVE",
"196.099 144.961 OFFCURVE",
"192 129.467 OFFCURVE",
"188.673 113.837 CURVE",
"186.685 104.496 OFFCURVE",
"185.004 95.091 OFFCURVE",
"183.062 85.74 CURVE",
"182.128 81.238 OFFCURVE",
"181.393 76.602 OFFCURVE",
"179.706 72.371 CURVE",
"177.37 66.514 OFFCURVE",
"172.165 61.078 OFFCURVE",
"171.888 55.285 CURVE",
"171.436 45.84 OFFCURVE",
"165.224 41.008 OFFCURVE",
"159.284 37.339 CURVE",
"144.347 28.113 OFFCURVE",
"130.42 18.114 OFFCURVE",
"119.703 4.008 CURVE",
"118.526 2.459 OFFCURVE",
"116.205 1.779 OFFCURVE",
"116.051 1.686 CURVE",
"112.374 5.499 OFFCURVE",
"109.627 10.798 OFFCURVE",
"106.636 10.939 CURVE",
"100.404 11.233 OFFCURVE",
"94.043 8.798 OFFCURVE",
"86.9 7.311 CURVE",
"83.919 0.161 OFFCURVE",
"79.221 -2.21 OFFCURVE",
"78.215 2.29 CURVE",
"76.02 12.111 OFFCURVE",
"68.873 7.938 OFFCURVE",
"63.258 8.933 CURVE",
"62.201 12.502 OFFCURVE",
"59.337 16.767 OFFCURVE",
"60.398 19.518 CURVE",
"65.21 31.996 OFFCURVE",
"57.328 39.038 OFFCURVE",
"50.242 46.637 CURVE",
"49.432 47.505 OFFCURVE",
"47.427 48.65 OFFCURVE",
"47.477 48.73 CURVE",
"52.915 57.433 OFFCURVE",
"42.568 60.215 OFFCURVE",
"40.986 66.21 CURVE",
"40.204 69.174 OFFCURVE",
"38.132 72.675 OFFCURVE",
"39.016 75.049 CURVE",
"42.969 85.669 OFFCURVE",
"40.204 94.15 OFFCURVE",
"32.544 101.762 CURVE",
"31.518 102.782 OFFCURVE",
"30.897 104.392 OFFCURVE",
"30.507 105.843 CURVE",
"27.781 115.975 OFFCURVE",
"25.831 126.388 OFFCURVE",
"22.164 136.16 CURVE",
"20.828 139.721 OFFCURVE",
"15.846 143.234 OFFCURVE",
"11.894 144.214 CURVE",
"4.104 146.147 OFFCURVE",
"-1.168 151.823 OFFCURVE",
"0.143 159.856 CURVE",
"1.848 170.31 OFFCURVE",
"3.685 180.745 OFFCURVE",
"5.701 191.143 CURVE",
"8.742 206.833 OFFCURVE",
"13.65 222.374 OFFCURVE",
"14.691 238.181 CURVE",
"15.79 254.848 OFFCURVE",
"13.365 271.751 OFFCURVE",
"18.904 288.058 CURVE",
"20.49 292.728 OFFCURVE",
"20.849 299.068 OFFCURVE",
"24.129 301.671 CURVE",
"33.231 308.895 OFFCURVE",
"35.985 318.45 OFFCURVE",
"39.372 328.789 CURVE",
"42.215 337.466 OFFCURVE",
"42 341.584 OFFCURVE",
"34.722 341.946 CURVE",
"35.918 345.984 OFFCURVE",
"37.61 349.521 OFFCURVE",
"37.895 353.168 CURVE",
"38.329 358.713 OFFCURVE",
"35.487 361.608 OFFCURVE",
"29.479 361.003 CURVE",
"28.367 360.891 OFFCURVE",
"26.161 362.474 OFFCURVE",
"26.002 363.511 CURVE",
"24.819 371.234 OFFCURVE",
"23.554 379 OFFCURVE",
"23.272 386.788 CURVE",
"23.082 392.039 OFFCURVE",
"24.45 397.348 OFFCURVE",
"25.249 403.647 CURVE",
"26.019 403.49 OFFCURVE",
"28.008 403.196 OFFCURVE",
"29.929 402.662 CURVE",
"32.055 402.071 OFFCURVE",
"34.12 401.261 OFFCURVE",
"36.212 400.546 CURVE",
"36.293 402.899 OFFCURVE",
"36.405 405.251 OFFCURVE",
"36.448 407.604 CURVE",
"36.573 414.391 OFFCURVE",
"36.66 421.178 OFFCURVE",
"36.785 427.964 CURVE",
"36.819 429.803 OFFCURVE",
"36.666 431.701 OFFCURVE",
"37.066 433.466 CURVE",
"38.179 438.387 OFFCURVE",
"37.932 445.113 OFFCURVE",
"41.072 447.825 CURVE",
"56.351 461.018 OFFCURVE",
"49.106 477.002 OFFCURVE",
"49.772 494.622 CURVE",
"44.694 489.958 OFFCURVE",
"41.695 487.204 OFFCURVE",
"40.201 485.832 CURVE",
"41.739 476.317 OFFCURVE",
"43.051 468.197 OFFCURVE",
"44.688 458.066 CURVE",
"38.333 461.794 OFFCURVE",
"33.193 464.809 OFFCURVE",
"29.083 467.22 CURVE",
"29.593 473.468 OFFCURVE",
"30.046 479.13 OFFCURVE",
"30.519 484.79 CURVE",
"30.759 487.665 OFFCURVE",
"30.233 490.93 OFFCURVE",
"31.42 493.347 CURVE",
"40.269 511.369 OFFCURVE",
"49.993 528.988 OFFCURVE",
"54.536 548.825 CURVE",
"54.876 550.307 OFFCURVE",
"56.935 551.897 OFFCURVE",
"58.546 552.505 CURVE",
"68.678 556.332 OFFCURVE",
"66.871 565.842 OFFCURVE",
"68.451 573.476 CURVE",
"70.623 583.972 OFFCURVE",
"71.824 594.664 OFFCURVE",
"73.639 605.238 CURVE",
"76.409 621.368 OFFCURVE",
"86.896 637.248 OFFCURVE",
"76.026 653.379 CURVE",
"72.527 646.115 OFFCURVE",
"69.011 638.815 OFFCURVE",
"64.625 629.708 CURVE",
"57.676 645.58 OFFCURVE",
"59.328 651.057 OFFCURVE",
"70.945 655.45 CURVE",
"70.097 657.8 OFFCURVE",
"69.43 660.251 OFFCURVE",
"68.355 662.508 CURVE",
"65.106 669.329 OFFCURVE",
"72.308 693.188 OFFCURVE",
"79.102 696.31 CURVE",
"81.484 697.406 OFFCURVE",
"85.519 697.863 OFFCURVE",
"87.373 696.568 CURVE",
"92.059 693.296 OFFCURVE",
"94.135 695.766 OFFCURVE",
"96.977 698.889 CURVE",
"100.676 702.953 OFFCURVE",
"104.263 708.393 OFFCURVE",
"108.982 709.943 CURVE",
"115.471 712.076 OFFCURVE",
"116.991 715.533 OFFCURVE",
"116.91 721.246 CURVE",
"116.789 729.702 OFFCURVE",
"116.726 738.157 OFFCURVE",
"116.652 746.613 CURVE",
"116.614 750.969 OFFCURVE",
"118.322 756.092 OFFCURVE",
"111.26 757.249 CURVE",
"110.877 757.311 OFFCURVE",
"111.244 764.288 OFFCURVE",
"112.02 767.883 CURVE",
"112.315 769.249 OFFCURVE",
"115.02 769.93 OFFCURVE",
"116.17 771.304 CURVE",
"127.229 784.512 OFFCURVE",
"137.023 800.069 OFFCURVE",
"158.596 792.052 CURVE",
"159.88 791.574 OFFCURVE",
"162.519 793.427 OFFCURVE",
"163.915 794.813 CURVE",
"167.858 798.725 OFFCURVE",
"170.828 805.194 OFFCURVE",
"175.39 806.531 CURVE",
"181.888 808.435 OFFCURVE",
"184.544 811.949 OFFCURVE",
"187.827 817.11 CURVE",
"190.414 821.178 OFFCURVE",
"195.966 823.432 OFFCURVE",
"200.357 826.246 CURVE",
"202.188 827.419 OFFCURVE",
"204.422 827.964 OFFCURVE",
"206.478 828.782 CURVE",
"214.886 832.128 OFFCURVE",
"223.254 835.58 OFFCURVE",
"231.718 838.78 CURVE",
"239.116 841.578 OFFCURVE",
"246.622 844.092 OFFCURVE",
"254.08 846.73 CURVE"
);
},
{
closed = 1;
nodes = (
"333.859 461.576 OFFCURVE",
"341.169 467.082 OFFCURVE",
"340.159 478.905 CURVE",
"339.666 484.684 OFFCURVE",
"342.199 493.069 OFFCURVE",
"346.425 496.474 CURVE",
"360.074 507.473 OFFCURVE",
"364.363 522.477 OFFCURVE",
"368.64 538.074 CURVE",
"369.931 542.781 OFFCURVE",
"373.313 546.915 OFFCURVE",
"375.737 551.312 CURVE",
"379.214 549.367 OFFCURVE",
"382.69 547.422 OFFCURVE",
"386.225 545.444 CURVE",
"390.16 551.375 OFFCURVE",
"392.436 557.648 OFFCURVE",
"386.448 564.185 CURVE",
"382.909 568.049 OFFCURVE",
"378.353 571.487 OFFCURVE",
"376.223 576.038 CURVE",
"369.972 589.387 OFFCURVE",
"358.157 601.114 OFFCURVE",
"363.274 618.215 CURVE",
"364.139 621.105 OFFCURVE",
"362.522 625.219 OFFCURVE",
"360.995 628.231 CURVE",
"358.704 632.749 OFFCURVE",
"355.222 636.646 OFFCURVE",
"352.694 641.063 CURVE",
"341.676 660.312 OFFCURVE",
"320.454 663.714 OFFCURVE",
"303.916 648.848 CURVE",
"305.772 646.303 OFFCURVE",
"307.638 643.743 OFFCURVE",
"310.534 639.77 CURVE",
"297.763 636.472 OFFCURVE",
"286.578 634.256 OFFCURVE",
"275.918 630.536 CURVE",
"270.878 628.777 OFFCURVE",
"264.463 625.043 OFFCURVE",
"262.792 620.64 CURVE",
"257.448 606.559 OFFCURVE",
"254.054 591.74 OFFCURVE",
"249.857 577.221 CURVE",
"248.465 572.405 OFFCURVE",
"246.247 567.723 OFFCURVE",
"245.587 562.821 CURVE",
"244.109 551.844 OFFCURVE",
"243.438 540.76 OFFCURVE",
"242.278 529.736 CURVE",
"242.043 527.513 OFFCURVE",
"241.321 525.27 OFFCURVE",
"240.443 523.198 CURVE",
"236.482 513.848 OFFCURVE",
"232.275 504.6 OFFCURVE",
"228.432 495.203 CURVE",
"227.702 493.419 OFFCURVE",
"228.019 491.107 OFFCURVE",
"228.2 489.07 CURVE",
"228.792 482.396 OFFCURVE",
"230.379 475.694 OFFCURVE",
"230.042 469.082 CURVE",
"229.52 458.858 OFFCURVE",
"227.323 448.729 OFFCURVE",
"226.566 438.505 CURVE",
"225.476 423.788 OFFCURVE",
"232.902 419.407 OFFCURVE",
"246.423 425.601 CURVE",
"252.075 428.19 OFFCURVE",
"258.554 428.92 OFFCURVE",
"264.557 430.812 CURVE",
"272.056 433.175 OFFCURVE",
"282.287 433.773 OFFCURVE",
"286.128 438.978 CURVE",
"290.287 444.615 OFFCURVE",
"294.7 449.267 OFFCURVE",
"299.612 454.181 CURVE",
"310.136 464.709 OFFCURVE",
"314.601 465.517 OFFCURVE",
"326.359 454.568 CURVE"
);
},
{
closed = 1;
nodes = (
"371.692 534.574 OFFCURVE",
"366.322 515.178 OFFCURVE",
"375.25 496.164 CURVE",
"378.466 499.097 OFFCURVE",
"382.274 502.636 OFFCURVE",
"382.95 506.698 CURVE",
"384.761 517.571 OFFCURVE",
"385.23 528.668 OFFCURVE",
"386.343 540.895 CURVE"
);
},
{
closed = 1;
nodes = (
"88.316 678.87 OFFCURVE",
"88.316 683.352 OFFCURVE",
"88.316 687.835 CURVE",
"87.449 688.262 OFFCURVE",
"86.582 688.688 OFFCURVE",
"85.716 689.115 CURVE",
"83.063 685.567 OFFCURVE",
"80.41 682.018 OFFCURVE",
"77.758 678.471 CURVE",
"80.537 676.49 OFFCURVE",
"83.317 674.51 OFFCURVE",
"88.316 670.949 CURVE"
);
},
{
closed = 1;
nodes = (
"98.063 728.941 OFFCURVE",
"98.343 724.622 OFFCURVE",
"97.791 720.412 CURVE SMOOTH",
"97.724 719.903 OFFCURVE",
"93.167 719.983 OFFCURVE",
"90.692 719.789 CURVE",
"91.327 724.344 OFFCURVE",
"91.962 728.898 OFFCURVE",
"92.597 733.452 CURVE",
"94.409 733.377 OFFCURVE",
"96.222 733.302 OFFCURVE",
"98.035 733.226 CURVE"
);
}
);
width = 600;
}
);
unicode = 0050;
},
{
glyphname = Q;
lastChange = "2020-11-29 14:48:40 +0000";
layers = (
{
layerId = "5E01EF65-6B73-4EC0-899B-CA0420E2F636";
paths = (
{
closed = 1;
nodes = (
"363 764 OFFCURVE",
"364 764 OFFCURVE",
"364 764 CURVE",
"369 750 OFFCURVE",
"382 747 OFFCURVE",
"394 745 CURVE",
"409 742 OFFCURVE",
"417 730 OFFCURVE",
"428 722 CURVE",
"437 716 OFFCURVE",
"445 706 OFFCURVE",
"453 697 CURVE",
"459 690 OFFCURVE",
"466 684 OFFCURVE",
"472 676 CURVE",
"474 672 OFFCURVE",
"474 665 OFFCURVE",
"476 660 CURVE",
"481 653 OFFCURVE",
"482 642 OFFCURVE",
"494 642 CURVE",
"496 638 OFFCURVE",
"497 634 OFFCURVE",
"499 630 CURVE",
"503 622 OFFCURVE",
"508 615 OFFCURVE",
"511 607 CURVE",
"516 594 OFFCURVE",
"520 581 OFFCURVE",
"524 568 CURVE",
"529 556 OFFCURVE",
"534 543 OFFCURVE",
"539 531 CURVE",
"540 527 OFFCURVE",
"542 525 OFFCURVE",
"540 519 CURVE",
"537 512 OFFCURVE",
"541 503 OFFCURVE",
"542 496 CURVE",
"543 491 OFFCURVE",
"545 487 OFFCURVE",
"546 482 CURVE",
"547 479 OFFCURVE",
"545 475 OFFCURVE",
"546 473 CURVE",
"553 464 OFFCURVE",
"551 453 OFFCURVE",
"549 444 CURVE",
"548 434 OFFCURVE",
"553 428 OFFCURVE",
"558 421 CURVE",
"558 419 OFFCURVE",
"558 417 OFFCURVE",
"558 415 CURVE",
"557 414 OFFCURVE",
"555 413 OFFCURVE",
"555 412 CURVE",
"555 403 OFFCURVE",
"555 394 OFFCURVE",
"554 386 CURVE",
"552 367 OFFCURVE",
"550 347 OFFCURVE",
"547 328 CURVE",
"546 322 OFFCURVE",
"544 316 OFFCURVE",
"543 310 CURVE",
"542 304 OFFCURVE",
"544 297 OFFCURVE",
"542 292 CURVE",
"536 281 OFFCURVE",
"531 270 OFFCURVE",
"529 258 CURVE",
"526 248 OFFCURVE",
"520 239 OFFCURVE",
"519 230 CURVE",
"519 218 OFFCURVE",
"510 211 OFFCURVE",
"506 201 CURVE",
"503 193 OFFCURVE",
"497 185 OFFCURVE",
"491 177 CURVE",
"485 169 OFFCURVE",
"490 158 OFFCURVE",
"480 149 CURVE",
"462 132 OFFCURVE",
"447 113 OFFCURVE",
"431 94 CURVE",
"426 89 OFFCURVE",
"415 84 OFFCURVE",
"427 75 CURVE",
"427 75 OFFCURVE",
"426 74 OFFCURVE",
"426 74 CURVE",
"428 68 OFFCURVE",
"430 63 OFFCURVE",
"432 57 CURVE",
"437 44 OFFCURVE",
"444 31 OFFCURVE",
"448 17 CURVE",
"452 1 OFFCURVE",
"452 -17 OFFCURVE",
"458 -32 CURVE",
"465 -50 OFFCURVE",
"464 -68 OFFCURVE",
"464 -87 CURVE",
"464 -90 OFFCURVE",
"462 -95 OFFCURVE",
"460 -96 CURVE",
"447 -104 OFFCURVE",
"435 -111 OFFCURVE",
"422 -117 CURVE",
"416 -120 OFFCURVE",
"399 -118 OFFCURVE",
"394 -114 CURVE",
"389 -110 OFFCURVE",
"383 -106 OFFCURVE",
"378 -102 CURVE",
"370 -96 OFFCURVE",
"361 -90 OFFCURVE",
"355 -83 CURVE",
"348 -74 OFFCURVE",
"344 -63 OFFCURVE",
"338 -53 CURVE",
"333 -43 OFFCURVE",
"327 -34 OFFCURVE",
"323 -24 CURVE",
"318 -12 OFFCURVE",
"315 0 OFFCURVE",
"311 11 CURVE",
"310 13 OFFCURVE",
"307 16 OFFCURVE",
"306 16 CURVE",
"299 17 OFFCURVE",
"292 16 OFFCURVE",
"285 16 CURVE",
"266 16 OFFCURVE",
"246 16 OFFCURVE",
"227 16 CURVE",
"224 16 OFFCURVE",
"221 14 OFFCURVE",
"218 14 CURVE",
"220 12 OFFCURVE",
"222 10 OFFCURVE",
"224 8 CURVE",
"218 -4 OFFCURVE",
"206 -1 OFFCURVE",
"195 0 CURVE",
"186 1 OFFCURVE",
"184 10 OFFCURVE",
"181 17 CURVE",
"177 25 OFFCURVE",
"172 34 OFFCURVE",
"165 38 CURVE",
"151 46 OFFCURVE",
"135 52 OFFCURVE",
"120 59 CURVE",
"115 61 OFFCURVE",
"111 63 OFFCURVE",
"108 64 CURVE",
"107 68 OFFCURVE",
"107 71 OFFCURVE",
"105 73 CURVE",
"100 78 OFFCURVE",
"94 82 OFFCURVE",
"89 86 CURVE",
"82 91 OFFCURVE",
"76 96 OFFCURVE",
"67 94 CURVE",
"65 94 OFFCURVE",
"62 98 OFFCURVE",
"61 100 CURVE",
"57 108 OFFCURVE",
"56 118 OFFCURVE",
"50 124 CURVE",
"45 129 OFFCURVE",
"42 134 OFFCURVE",
"40 141 CURVE",
"39 146 OFFCURVE",
"36 151 OFFCURVE",
"33 154 CURVE",
"14 174 OFFCURVE",
"11 201 OFFCURVE",
"2 225 CURVE",
"-3 237 OFFCURVE",
"-4 250 OFFCURVE",
"-9 262 CURVE",
"-17 283 OFFCURVE",
"-15 304 OFFCURVE",
"-9 325 CURVE",
"-5 337 OFFCURVE",
"-1 348 OFFCURVE",
"-2 361 CURVE",
"-3 376 OFFCURVE",
"-3 391 OFFCURVE",
"-2 406 CURVE",
"-2 410 OFFCURVE",
"2 417 OFFCURVE",
"4 417 CURVE",
"12 417 OFFCURVE",
"12 423 OFFCURVE",
"13 428 CURVE",
"14 431 OFFCURVE",
"16 435 OFFCURVE",
"16 439 CURVE",
"18 448 OFFCURVE",
"26 456 OFFCURVE",
"18 465 CURVE",
"15 468 OFFCURVE",
"13 470 OFFCURVE",
"11 473 CURVE",
"19 482 OFFCURVE",
"22 481 OFFCURVE",
"27 468 CURVE",
"43 479 OFFCURVE",
"51 496 OFFCURVE",
"56 513 CURVE",
"58 519 OFFCURVE",
"59 526 OFFCURVE",
"49 528 CURVE",
"53 529 OFFCURVE",
"56 529 OFFCURVE",
"60 530 CURVE",
"60 531 OFFCURVE",
"60 531 OFFCURVE",
"59 532 CURVE",
"54 541 OFFCURVE",
"55 544 OFFCURVE",
"66 545 CURVE",
"68 545 OFFCURVE",
"70 550 OFFCURVE",
"70 552 CURVE",
"70 556 OFFCURVE",
"67 558 OFFCURVE",
"65 561 CURVE",
"70 567 OFFCURVE",
"75 573 OFFCURVE",
"79 578 CURVE",
"80 576 OFFCURVE",
"80 572 OFFCURVE",
"81 569 CURVE",
"97 569 OFFCURVE",
"105 580 OFFCURVE",
"116 589 CURVE",
"113 591 OFFCURVE",
"111 592 OFFCURVE",
"109 593 CURVE",
"111 596 OFFCURVE",
"112 599 OFFCURVE",
"113 602 CURVE",
"110 603 OFFCURVE",
"107 604 OFFCURVE",
"101 606 CURVE",
"106 610 OFFCURVE",
"109 613 OFFCURVE",
"112 616 CURVE",
"115 612 OFFCURVE",
"117 609 OFFCURVE",
"119 607 CURVE",
"121 611 OFFCURVE",
"123 615 OFFCURVE",
"125 618 CURVE",
"131 619 OFFCURVE",
"136 620 OFFCURVE",
"141 622 CURVE",
"150 628 OFFCURVE",
"157 635 OFFCURVE",
"167 641 CURVE",
"181 649 OFFCURVE",
"194 660 OFFCURVE",
"206 671 CURVE",
"213 678 OFFCURVE",
"220 682 OFFCURVE",
"229 686 CURVE",
"236 690 OFFCURVE",
"245 693 OFFCURVE",
"247 704 CURVE",
"249 710 OFFCURVE",
"251 716 OFFCURVE",
"254 722 CURVE",
"256 726 OFFCURVE",
"260 730 OFFCURVE",
"263 734 CURVE",
"267 738 OFFCURVE",
"273 742 OFFCURVE",
"279 745 CURVE",
"290 751 OFFCURVE",
"299 761 OFFCURVE",
"314 760 CURVE",
"327 758 OFFCURVE",
"340 759 OFFCURVE",
"353 760 CURVE",
"357 760 OFFCURVE",
"359 763 OFFCURVE",
"362 764 CURVE"
);
},
{
closed = 1;
nodes = (
"375 476 OFFCURVE",
"367 484 OFFCURVE",
"367 492 CURVE SMOOTH",
"366 505 OFFCURVE",
"358 511 OFFCURVE",
"350 518 CURVE SMOOTH",
"348 520 OFFCURVE",
"344 521 OFFCURVE",
"342 523 CURVE SMOOTH",
"331 536 OFFCURVE",
"321 546 OFFCURVE",
"302 541 CURVE SMOOTH",
"294 539 OFFCURVE",
"284 539 OFFCURVE",
"277 534 CURVE SMOOTH",
"257 521 OFFCURVE",
"237 507 OFFCURVE",
"218 492 CURVE SMOOTH",
"206 481 OFFCURVE",
"191 472 OFFCURVE",
"194 453 CURVE",
"190 450 OFFCURVE",
"188 447 OFFCURVE",
"185 445 CURVE SMOOTH",
"170 432 OFFCURVE",
"165 413 OFFCURVE",
"155 397 CURVE SMOOTH",
"153 393 OFFCURVE",
"152 388 OFFCURVE",
"151 384 CURVE SMOOTH",
"148 373 OFFCURVE",
"149 361 OFFCURVE",
"141 351 CURVE SMOOTH",
"139 350 OFFCURVE",
"139 347 OFFCURVE",
"139 345 CURVE SMOOTH",
"136 327 OFFCURVE",
"133 310 OFFCURVE",
"130 292 CURVE SMOOTH",
"129 286 OFFCURVE",
"130 279 OFFCURVE",
"131 273 CURVE SMOOTH",
"134 261 OFFCURVE",
"137 249 OFFCURVE",
"142 238 CURVE SMOOTH",
"144 232 OFFCURVE",
"150 228 OFFCURVE",
"155 224 CURVE SMOOTH",
"162 216 OFFCURVE",
"169 207 OFFCURVE",
"178 201 CURVE SMOOTH",
"193 190 OFFCURVE",
"211 190 OFFCURVE",
"228 188 CURVE SMOOTH",
"246 185 OFFCURVE",
"261 194 OFFCURVE",
"273 204 CURVE",
"273 218 OFFCURVE",
"269 232 OFFCURVE",
"274 242 CURVE SMOOTH",
"280 255 OFFCURVE",
"281 268 OFFCURVE",
"284 281 CURVE SMOOTH",
"286 295 OFFCURVE",
"290 300 OFFCURVE",
"304 302 CURVE SMOOTH",
"317 304 OFFCURVE",
"330 307 OFFCURVE",
"342 310 CURVE SMOOTH",
"351 311 OFFCURVE",
"355 309 OFFCURVE",
"358 301 CURVE SMOOTH",
"361 295 OFFCURVE",
"366 291 OFFCURVE",
"370 286 CURVE SMOOTH",
"371 286 OFFCURVE",
"377 288 OFFCURVE",
"378 290 CURVE SMOOTH",
"380 303 OFFCURVE",
"377 316 OFFCURVE",
"384 328 CURVE SMOOTH",
"385 329 OFFCURVE",
"383 331 OFFCURVE",
"383 333 CURVE SMOOTH",
"383 341 OFFCURVE",
"380 351 OFFCURVE",
"383 358 CURVE SMOOTH",
"387 370 OFFCURVE",
"394 381 OFFCURVE",
"400 393 CURVE SMOOTH",
"401 397 OFFCURVE",
"402 403 OFFCURVE",
"400 405 CURVE SMOOTH",
"388 419 OFFCURVE",
"394 437 OFFCURVE",
"391 453 CURVE SMOOTH",
"389 462 OFFCURVE",
"389 467 OFFCURVE",
"380 467 CURVE"
);
}
);
width = 600;
}
);
unicode = 0051;
},
{
glyphname = R;
lastChange = "2020-11-29 14:48:43 +0000";
layers = (
{
layerId = "5E01EF65-6B73-4EC0-899B-CA0420E2F636";
paths = (
{
closed = 1;
nodes = (
"272 51 OFFCURVE",
"263 48 OFFCURVE",
"257 57 CURVE",
"257 58 OFFCURVE",
"254 57 OFFCURVE",
"253 57 CURVE",
"244 57 OFFCURVE",
"239 63 OFFCURVE",
"240 72 CURVE",
"242 90 OFFCURVE",
"238 108 OFFCURVE",
"225 122 CURVE",
"217 131 OFFCURVE",
"208 140 OFFCURVE",
"199 148 CURVE",
"188 144 OFFCURVE",
"181 147 OFFCURVE",
"174 160 CURVE",
"172 163 OFFCURVE",
"169 165 OFFCURVE",
"167 168 CURVE",
"165 170 OFFCURVE",
"163 174 OFFCURVE",
"164 176 CURVE",
"166 183 OFFCURVE",
"160 186 OFFCURVE",
"156 186 CURVE",
"153 185 OFFCURVE",
"147 180 OFFCURVE",
"147 177 CURVE",
"146 170 OFFCURVE",
"147 163 OFFCURVE",
"150 157 CURVE",
"153 151 OFFCURVE",
"153 150 OFFCURVE",
"146 150 CURVE",
"144 150 OFFCURVE",
"140 147 OFFCURVE",
"139 145 CURVE",
"134 129 OFFCURVE",
"128 113 OFFCURVE",
"125 96 CURVE",
"120 79 OFFCURVE",
"119 61 OFFCURVE",
"114 43 CURVE",
"112 34 OFFCURVE",
"105 27 OFFCURVE",
"100 19 CURVE",
"97 15 OFFCURVE",
"94 11 OFFCURVE",
"90 8 CURVE",
"89 6 OFFCURVE",
"86 5 OFFCURVE",
"83 6 CURVE",
"71 7 OFFCURVE",
"59 9 OFFCURVE",
"47 2 CURVE",
"45 0 OFFCURVE",
"40 3 OFFCURVE",
"37 4 CURVE",
"34 5 OFFCURVE",
"31 6 OFFCURVE",
"29 5 CURVE",
"18 -4 OFFCURVE",
"5 -1 OFFCURVE",
"-8 -1 CURVE",
"-17 -1 OFFCURVE",
"-20 4 OFFCURVE",
"-22 11 CURVE",
"-23 15 OFFCURVE",
"-22 20 OFFCURVE",
"-22 24 CURVE",
"-21 36 OFFCURVE",
"-19 49 OFFCURVE",
"-18 61 CURVE",
"-18 65 OFFCURVE",
"-18 68 OFFCURVE",
"-18 72 CURVE",
"-17 78 OFFCURVE",
"-16 85 OFFCURVE",
"-16 92 CURVE",
"-16 99 OFFCURVE",
"-18 107 OFFCURVE",
"-17 114 CURVE",
"-16 126 OFFCURVE",
"-15 139 OFFCURVE",
"-22 150 CURVE",
"-23 152 OFFCURVE",
"-23 157 OFFCURVE",
"-22 157 CURVE",
"-14 161 OFFCURVE",
"-16 170 OFFCURVE",
"-12 176 CURVE",
"-10 180 OFFCURVE",
"-9 185 OFFCURVE",
"-16 187 CURVE",
"-18 187 OFFCURVE",
"-21 192 OFFCURVE",
"-21 194 CURVE",
"-19 204 OFFCURVE",
"-16 214 OFFCURVE",
"-14 224 CURVE",
"-13 232 OFFCURVE",
"-12 239 OFFCURVE",
"-11 247 CURVE",
"-11 261 OFFCURVE",
"-6 275 OFFCURVE",
"0 288 CURVE",
"5 300 OFFCURVE",
"5 314 OFFCURVE",
"7 327 CURVE",
"11 346 OFFCURVE",
"13 366 OFFCURVE",
"20 384 CURVE",
"29 407 OFFCURVE",
"31 431 OFFCURVE",
"33 455 CURVE",
"34 465 OFFCURVE",
"38 474 OFFCURVE",
"41 484 CURVE",
"41 485 OFFCURVE",
"42 486 OFFCURVE",
"43 486 CURVE",
"55 493 OFFCURVE",
"58 506 OFFCURVE",
"64 517 CURVE",
"71 528 OFFCURVE",
"73 540 OFFCURVE",
"72 553 CURVE",
"71 560 OFFCURVE",
"74 568 OFFCURVE",
"76 575 CURVE",
"81 596 OFFCURVE",
"94 612 OFFCURVE",
"106 628 CURVE",
"107 630 OFFCURVE",
"109 631 OFFCURVE",
"109 632 CURVE",
"108 646 OFFCURVE",
"120 648 OFFCURVE",
"128 655 CURVE",
"140 664 OFFCURVE",
"149 676 OFFCURVE",
"159 687 CURVE",
"161 689 OFFCURVE",
"161 691 OFFCURVE",
"162 694 CURVE",
"164 698 OFFCURVE",
"165 703 OFFCURVE",
"167 710 CURVE",
"167 710 OFFCURVE",
"165 712 OFFCURVE",
"161 715 CURVE",
"170 725 OFFCURVE",
"178 736 OFFCURVE",
"187 746 CURVE",
"187 745 OFFCURVE",
"188 745 OFFCURVE",
"188 744 CURVE",
"192 746 OFFCURVE",
"194 749 OFFCURVE",
"198 751 CURVE",
"206 755 OFFCURVE",
"214 760 OFFCURVE",
"222 764 CURVE",
"237 770 OFFCURVE",
"252 776 OFFCURVE",
"267 781 CURVE",
"280 786 OFFCURVE",
"293 788 OFFCURVE",
"306 784 CURVE",
"309 783 OFFCURVE",
"310 779 OFFCURVE",
"312 776 CURVE",
"326 778 OFFCURVE",
"339 781 OFFCURVE",
"353 783 CURVE",
"354 783 OFFCURVE",
"354 784 OFFCURVE",
"355 784 CURVE",
"379 781 OFFCURVE",
"403 779 OFFCURVE",
"425 769 CURVE",
"439 763 OFFCURVE",
"453 760 OFFCURVE",
"467 755 CURVE",
"468 755 OFFCURVE",
"470 755 OFFCURVE",
"470 755 CURVE",
"479 743 OFFCURVE",
"496 739 OFFCURVE",
"500 722 CURVE",
"502 715 OFFCURVE",
"511 709 OFFCURVE",
"518 703 CURVE",
"525 696 OFFCURVE",
"530 689 OFFCURVE",
"531 678 CURVE",
"531 672 OFFCURVE",
"534 666 OFFCURVE",
"535 660 CURVE",
"537 656 OFFCURVE",
"538 651 OFFCURVE",
"539 646 CURVE",
"542 630 OFFCURVE",
"545 614 OFFCURVE",
"548 598 CURVE",
"548 594 OFFCURVE",
"547 590 OFFCURVE",
"548 586 CURVE",
"548 581 OFFCURVE",
"549 576 OFFCURVE",
"549 571 CURVE",
"548 559 OFFCURVE",
"546 547 OFFCURVE",
"544 535 CURVE",
"543 531 OFFCURVE",
"542 527 OFFCURVE",
"542 523 CURVE",
"542 500 OFFCURVE",
"538 479 OFFCURVE",
"528 458 CURVE",
"523 447 OFFCURVE",
"521 435 OFFCURVE",
"516 424 CURVE",
"514 418 OFFCURVE",
"510 413 OFFCURVE",
"506 407 CURVE",
"501 398 OFFCURVE",
"496 390 OFFCURVE",
"490 381 CURVE",
"479 364 OFFCURVE",
"467 348 OFFCURVE",
"447 340 CURVE",
"446 340 OFFCURVE",
"444 339 OFFCURVE",
"444 338 CURVE",
"441 321 OFFCURVE",
"427 318 OFFCURVE",
"414 313 CURVE",
"413 313 OFFCURVE",
"410 312 OFFCURVE",
"409 311 CURVE",
"400 300 OFFCURVE",
"388 296 OFFCURVE",
"374 291 CURVE",
"362 287 OFFCURVE",
"352 277 OFFCURVE",
"340 269 CURVE",
"337 267 OFFCURVE",
"336 264 OFFCURVE",
"341 262 CURVE",
"352 255 OFFCURVE",
"362 248 OFFCURVE",
"366 233 CURVE",
"368 228 OFFCURVE",
"375 221 OFFCURVE",
"381 220 CURVE",
"395 218 OFFCURVE",
"404 207 OFFCURVE",
"415 200 CURVE",
"425 194 OFFCURVE",
"433 184 OFFCURVE",
"442 176 CURVE",
"443 176 OFFCURVE",
"444 175 OFFCURVE",
"444 175 CURVE",
"443 163 OFFCURVE",
"450 159 OFFCURVE",
"459 154 CURVE",
"461 153 OFFCURVE",
"462 150 OFFCURVE",
"463 148 CURVE",
"467 141 OFFCURVE",
"470 133 OFFCURVE",
"475 128 CURVE",
"484 119 OFFCURVE",
"486 108 OFFCURVE",
"481 97 CURVE",
"480 92 OFFCURVE",
"477 84 OFFCURVE",
"480 81 CURVE",
"487 68 OFFCURVE",
"479 58 OFFCURVE",
"475 48 CURVE",
"472 42 OFFCURVE",
"469 36 OFFCURVE",
"475 30 CURVE",
"479 25 OFFCURVE",
"476 19 OFFCURVE",
"469 18 CURVE",
"452 16 OFFCURVE",
"435 13 OFFCURVE",
"418 11 CURVE",
"396 7 OFFCURVE",
"375 5 OFFCURVE",
"353 10 CURVE",
"343 12 OFFCURVE",
"334 17 OFFCURVE",
"324 20 CURVE",
"324 19 OFFCURVE",
"325 16 OFFCURVE",
"325 13 CURVE",
"312 10 OFFCURVE",
"289 29 OFFCURVE",
"280 50 CURVE",
"282 53 OFFCURVE",
"287 59 OFFCURVE",
"286 60 CURVE",
"282 65 OFFCURVE",
"276 68 OFFCURVE",
"268 65 CURVE",
"272 59 OFFCURVE",
"276 55 OFFCURVE",
"280 50 CURVE"
);
},
{
closed = 1;
nodes = (
"356 481 OFFCURVE",
"360 483 OFFCURVE",
"364 485 CURVE",
"373 488 OFFCURVE",
"370 496 OFFCURVE",
"373 502 CURVE",
"377 512 OFFCURVE",
"381 522 OFFCURVE",
"384 532 CURVE",
"385 534 OFFCURVE",
"384 537 OFFCURVE",
"383 539 CURVE",
"376 545 OFFCURVE",
"373 561 OFFCURVE",
"376 570 CURVE",
"365 588 OFFCURVE",
"347 592 OFFCURVE",
"329 585 CURVE",
"313 580 OFFCURVE",
"299 571 OFFCURVE",
"284 563 CURVE",
"277 559 OFFCURVE",
"272 551 OFFCURVE",
"265 550 CURVE",
"250 546 OFFCURVE",
"249 531 OFFCURVE",
"241 521 CURVE",
"233 513 OFFCURVE",
"230 501 OFFCURVE",
"226 490 CURVE",
"221 476 OFFCURVE",
"217 462 OFFCURVE",
"214 448 CURVE",
"213 445 OFFCURVE",
"216 441 OFFCURVE",
"219 439 CURVE",
"221 437 OFFCURVE",
"225 438 OFFCURVE",
"228 438 CURVE",
"230 438 OFFCURVE",
"232 440 OFFCURVE",
"234 439 CURVE",
"247 438 OFFCURVE",
"261 437 OFFCURVE",
"270 451 CURVE",
"271 453 OFFCURVE",
"273 453 OFFCURVE",
"275 454 CURVE",
"277 442 OFFCURVE",
"280 440 OFFCURVE",
"291 445 CURVE",
"294 446 OFFCURVE",
"297 446 OFFCURVE",
"300 446 CURVE",
"305 446 OFFCURVE",
"307 448 OFFCURVE",
"308 454 CURVE",
"309 472 OFFCURVE",
"312 476 OFFCURVE",
"328 479 CURVE",
"327 474 OFFCURVE",
"326 470 OFFCURVE",
"325 466 CURVE",
"324 464 OFFCURVE",
"324 462 OFFCURVE",
"324 459 CURVE",
"327 460 OFFCURVE",
"330 459 OFFCURVE",
"332 461 CURVE",
"340 466 OFFCURVE",
"339 471 OFFCURVE",
"331 479 CURVE",
"336 486 OFFCURVE",
"334 499 OFFCURVE",
"347 497 CURVE",
"348 492 OFFCURVE",
"349 487 OFFCURVE",
"350 479 CURVE"
);
},
{
closed = 1;
nodes = (
"-34 33 OFFCURVE",
"-35 38 OFFCURVE",
"-34 43 CURVE",
"-34 44 OFFCURVE",
"-32 46 OFFCURVE",
"-30 46 CURVE",
"-29 46 OFFCURVE",
"-27 44 OFFCURVE",
"-27 43 CURVE",
"-28 38 OFFCURVE",
"-29 32 OFFCURVE",
"-30 27 CURVE",
"-31 27 OFFCURVE",
"-33 28 OFFCURVE",
"-34 28 CURVE"
);
},
{
closed = 1;
nodes = (
"111 666 OFFCURVE",
"108 660 OFFCURVE",
"105 654 CURVE SMOOTH",
"104 654 OFFCURVE",
"102 654 OFFCURVE",
"101 654 CURVE",
"105 674 OFFCURVE",
"105 674 OFFCURVE",
"114 673 CURVE"
);
}
);
width = 600;
}
);
unicode = 0052;
},
{
glyphname = S;
lastChange = "2020-11-29 14:48:48 +0000";
layers = (
{
layerId = "5E01EF65-6B73-4EC0-899B-CA0420E2F636";
paths = (
{
closed = 1;
nodes = (
"77 695 OFFCURVE",
"77 693 OFFCURVE",
"76 691 CURVE",
"76 689 OFFCURVE",
"75 685 OFFCURVE",
"76 685 CURVE",
"77 684 OFFCURVE",
"81 683 OFFCURVE",
"82 684 CURVE",
"87 686 OFFCURVE",
"91 690 OFFCURVE",
"95 693 CURVE",
"100 696 OFFCURVE",
"105 698 OFFCURVE",
"97 704 CURVE",
"96 705 OFFCURVE",
"96 710 OFFCURVE",
"97 712 CURVE",
"99 718 OFFCURVE",
"115 728 OFFCURVE",
"121 726 CURVE",
"134 721 OFFCURVE",
"145 728 OFFCURVE",
"157 732 CURVE",
"169 736 OFFCURVE",
"180 742 OFFCURVE",
"192 745 CURVE",
"202 747 OFFCURVE",
"213 746 OFFCURVE",
"223 747 CURVE",
"240 748 OFFCURVE",
"257 743 OFFCURVE",
"274 741 CURVE",
"278 729 OFFCURVE",
"291 735 OFFCURVE",
"298 728 CURVE",
"304 721 OFFCURVE",
"313 716 OFFCURVE",
"321 710 CURVE",
"334 699 OFFCURVE",
"349 690 OFFCURVE",
"355 673 CURVE",
"361 659 OFFCURVE",
"365 645 OFFCURVE",
"371 631 CURVE",
"381 612 OFFCURVE",
"382 592 OFFCURVE",
"382 571 CURVE",
"383 567 OFFCURVE",
"382 562 OFFCURVE",
"384 558 CURVE",
"388 544 OFFCURVE",
"383 534 OFFCURVE",
"375 524 CURVE",
"370 515 OFFCURVE",
"366 505 OFFCURVE",
"362 496 CURVE",
"357 486 OFFCURVE",
"352 475 OFFCURVE",
"348 465 CURVE",
"346 460 OFFCURVE",
"346 454 OFFCURVE",
"345 446 CURVE",
"340 447 OFFCURVE",
"333 448 OFFCURVE",
"324 449 CURVE",
"312 441 OFFCURVE",
"312 435 OFFCURVE",
"326 425 CURVE",
"328 423 OFFCURVE",
"330 421 OFFCURVE",
"332 418 CURVE",
"337 410 OFFCURVE",
"342 401 OFFCURVE",
"348 394 CURVE",
"360 378 OFFCURVE",
"373 361 OFFCURVE",
"387 347 CURVE",
"398 337 OFFCURVE",
"398 324 OFFCURVE",
"400 312 CURVE",
"403 293 OFFCURVE",
"406 274 OFFCURVE",
"411 255 CURVE",
"412 249 OFFCURVE",
"418 244 OFFCURVE",
"418 239 CURVE",
"418 227 OFFCURVE",
"415 214 OFFCURVE",
"413 202 CURVE",
"412 195 OFFCURVE",
"411 187 OFFCURVE",
"409 180 CURVE",
"407 174 OFFCURVE",
"404 169 OFFCURVE",
"400 165 CURVE",
"395 158 OFFCURVE",
"385 154 OFFCURVE",
"390 142 CURVE",
"391 140 OFFCURVE",
"387 132 OFFCURVE",
"384 131 CURVE",
"373 126 OFFCURVE",
"366 118 OFFCURVE",
"359 110 CURVE",
"358 109 OFFCURVE",
"358 108 OFFCURVE",
"357 108 CURVE",
"337 98 OFFCURVE",
"317 87 OFFCURVE",
"296 78 CURVE",
"276 70 OFFCURVE",
"254 63 OFFCURVE",
"233 57 CURVE",
"227 55 OFFCURVE",
"219 57 OFFCURVE",
"212 55 CURVE",
"208 54 OFFCURVE",
"205 51 OFFCURVE",
"201 48 CURVE",
"198 45 OFFCURVE",
"195 42 OFFCURVE",
"191 40 CURVE",
"186 38 OFFCURVE",
"181 37 OFFCURVE",
"176 36 CURVE",
"172 35 OFFCURVE",
"167 35 OFFCURVE",
"164 36 CURVE",
"155 40 OFFCURVE",
"147 46 OFFCURVE",
"138 50 CURVE",
"135 52 OFFCURVE",
"130 54 OFFCURVE",
"127 53 CURVE",
"124 52 OFFCURVE",
"121 47 OFFCURVE",
"118 43 CURVE",
"116 48 OFFCURVE",
"113 52 OFFCURVE",
"110 57 CURVE",
"108 53 OFFCURVE",
"108 51 OFFCURVE",
"106 49 CURVE",
"105 47 OFFCURVE",
"102 44 OFFCURVE",
"100 45 CURVE",
"86 49 OFFCURVE",
"70 44 OFFCURVE",
"58 55 CURVE",
"40 53 OFFCURVE",
"30 68 OFFCURVE",
"16 75 CURVE",
"14 76 OFFCURVE",
"12 77 OFFCURVE",
"11 78 CURVE",
"18 91 OFFCURVE",
"17 90 OFFCURVE",
"7 99 CURVE",
"-9 114 OFFCURVE",
"-25 130 OFFCURVE",
"-39 147 CURVE",
"-43 152 OFFCURVE",
"-41 161 OFFCURVE",
"-42 168 CURVE",
"-42 174 OFFCURVE",
"-40 181 OFFCURVE",
"-41 187 CURVE",
"-43 195 OFFCURVE",
"-48 201 OFFCURVE",
"-51 209 CURVE",
"-53 214 OFFCURVE",
"-54 220 OFFCURVE",
"-55 225 CURVE",
"-56 230 OFFCURVE",
"-55 234 OFFCURVE",
"-62 236 CURVE",
"-70 239 OFFCURVE",
"-70 244 OFFCURVE",
"-64 251 CURVE",
"-57 258 OFFCURVE",
"-49 260 OFFCURVE",
"-39 263 CURVE",
"-26 266 OFFCURVE",
"-14 266 OFFCURVE",
"-1 269 CURVE",
"8 272 OFFCURVE",
"18 269 OFFCURVE",
"28 268 CURVE",
"45 265 OFFCURVE",
"62 263 OFFCURVE",
"78 259 CURVE",
"90 256 OFFCURVE",
"101 249 OFFCURVE",
"112 246 CURVE",
"136 241 OFFCURVE",
"160 235 OFFCURVE",
"184 243 CURVE",
"186 243 OFFCURVE",
"188 242 OFFCURVE",
"190 242 CURVE",
"197 243 OFFCURVE",
"206 241 OFFCURVE",
"207 253 CURVE",
"208 256 OFFCURVE",
"212 258 OFFCURVE",
"214 260 CURVE",
"224 268 OFFCURVE",
"224 272 OFFCURVE",
"215 280 CURVE",
"211 283 OFFCURVE",
"210 289 OFFCURVE",
"207 293 CURVE",
"206 294 OFFCURVE",
"207 296 OFFCURVE",
"206 296 CURVE",
"198 302 OFFCURVE",
"189 305 OFFCURVE",
"183 314 CURVE",
"164 313 OFFCURVE",
"155 328 OFFCURVE",
"144 341 CURVE",
"138 348 OFFCURVE",
"130 354 OFFCURVE",
"123 361 CURVE",
"115 368 OFFCURVE",
"107 376 OFFCURVE",
"99 383 CURVE",
"98 384 OFFCURVE",
"96 385 OFFCURVE",
"93 387 CURVE",
"95 383 OFFCURVE",
"95 380 OFFCURVE",
"96 378 CURVE",
"95 378 OFFCURVE",
"94 377 OFFCURVE",
"94 377 CURVE",
"93 379 OFFCURVE",
"90 380 OFFCURVE",
"89 383 CURVE",
"88 387 OFFCURVE",
"87 391 OFFCURVE",
"86 395 CURVE",
"83 405 OFFCURVE",
"76 411 OFFCURVE",
"69 418 CURVE",
"55 433 OFFCURVE",
"47 453 OFFCURVE",
"44 474 CURVE",
"43 481 OFFCURVE",
"41 489 OFFCURVE",
"38 496 CURVE",
"32 510 OFFCURVE",
"29 525 OFFCURVE",
"29 541 CURVE",
"30 551 OFFCURVE",
"27 561 OFFCURVE",
"26 571 CURVE",
"26 576 OFFCURVE",
"26 582 OFFCURVE",
"28 587 CURVE",
"33 597 OFFCURVE",
"40 607 OFFCURVE",
"45 617 CURVE",
"51 628 OFFCURVE",
"56 638 OFFCURVE",
"61 649 CURVE",
"62 650 OFFCURVE",
"62 653 OFFCURVE",
"61 655 CURVE",
"55 665 OFFCURVE",
"55 673 OFFCURVE",
"62 682 CURVE",
"66 687 OFFCURVE",
"71 693 OFFCURVE",
"75 698 CURVE",
"76 698 OFFCURVE",
"77 697 OFFCURVE",
"78 697 CURVE"
);
},
{
closed = 1;
nodes = (
"241 561 OFFCURVE",
"241 560 OFFCURVE",
"240 559 CURVE",
"235 562 OFFCURVE",
"230 564 OFFCURVE",
"225 566 CURVE",
"223 567 OFFCURVE",
"221 569 OFFCURVE",
"219 568 CURVE",
"207 565 OFFCURVE",
"196 559 OFFCURVE",
"188 549 CURVE",
"186 546 OFFCURVE",
"187 540 OFFCURVE",
"184 538 CURVE",
"177 530 OFFCURVE",
"180 524 OFFCURVE",
"186 518 CURVE",
"191 512 OFFCURVE",
"197 506 OFFCURVE",
"202 500 CURVE",
"213 490 OFFCURVE",
"224 480 OFFCURVE",
"235 470 CURVE",
"240 466 OFFCURVE",
"244 465 OFFCURVE",
"247 472 CURVE",
"250 479 OFFCURVE",
"253 486 OFFCURVE",
"254 494 CURVE",
"255 499 OFFCURVE",
"253 505 OFFCURVE",
"255 510 CURVE",
"258 523 OFFCURVE",
"250 532 OFFCURVE",
"248 543 CURVE",
"245 554 OFFCURVE",
"243 553 OFFCURVE",
"255 559 CURVE",
"252 564 OFFCURVE",
"248 570 OFFCURVE",
"245 576 CURVE",
"242 574 OFFCURVE",
"240 573 OFFCURVE",
"238 571 CURVE",
"239 568 OFFCURVE",
"240 565 OFFCURVE",
"242 562 CURVE"
);
},
{
closed = 1;
nodes = (
"97 63 OFFCURVE",
"96 64 OFFCURVE",
"81 61 CURVE",
"85 58 OFFCURVE",
"90 56 OFFCURVE",
"95 53 CURVE"
);
}
);
width = 500;
}
);
unicode = 0053;
},
{
glyphname = T;
lastChange = "2020-11-29 15:15:34 +0000";
layers = (
{
layerId = "5E01EF65-6B73-4EC0-899B-CA0420E2F636";
paths = (
{
closed = 1;
nodes = (
"314 510 OFFCURVE",
"314 507 OFFCURVE",
"315 504 CURVE",
"306 502 OFFCURVE",
"297 501 OFFCURVE",
"288 500 CURVE",
"280 500 OFFCURVE",
"271 499 OFFCURVE",
"267 509 CURVE",
"266 511 OFFCURVE",
"263 513 OFFCURVE",
"258 515 CURVE",
"255 503 OFFCURVE",
"253 492 OFFCURVE",
"252 481 CURVE",
"252 471 OFFCURVE",
"250 461 OFFCURVE",
"253 451 CURVE",
"256 440 OFFCURVE",
"254 430 OFFCURVE",
"254 419 CURVE",
"253 402 OFFCURVE",
"253 386 OFFCURVE",
"251 369 CURVE",
"250 359 OFFCURVE",
"245 351 OFFCURVE",
"244 342 CURVE",
"244 327 OFFCURVE",
"242 311 OFFCURVE",
"237 297 CURVE",
"232 282 OFFCURVE",
"232 266 OFFCURVE",
"229 250 CURVE",
"225 237 OFFCURVE",
"220 224 OFFCURVE",
"217 211 CURVE",
"217 210 OFFCURVE",
"216 209 OFFCURVE",
"217 208 CURVE",
"221 197 OFFCURVE",
"215 187 OFFCURVE",
"211 178 CURVE",
"206 163 OFFCURVE",
"209 146 OFFCURVE",
"196 134 CURVE",
"196 133 OFFCURVE",
"195 132 OFFCURVE",
"194 131 CURVE",
"199 119 OFFCURVE",
"188 113 OFFCURVE",
"183 104 CURVE",
"180 98 OFFCURVE",
"173 93 OFFCURVE",
"168 89 CURVE",
"166 87 OFFCURVE",
"164 86 OFFCURVE",
"162 86 CURVE",
"152 75 OFFCURVE",
"139 69 OFFCURVE",
"124 68 CURVE",
"122 68 OFFCURVE",
"117 66 OFFCURVE",
"117 64 CURVE",
"115 54 OFFCURVE",
"109 54 OFFCURVE",
"101 57 CURVE",
"98 57 OFFCURVE",
"96 56 OFFCURVE",
"95 56 CURVE",
"92 64 OFFCURVE",
"89 69 OFFCURVE",
"87 75 CURVE",
"83 84 OFFCURVE",
"79 91 OFFCURVE",
"80 102 CURVE",
"82 106 OFFCURVE",
"78 114 OFFCURVE",
"74 117 CURVE",
"61 132 OFFCURVE",
"61 150 OFFCURVE",
"58 167 CURVE",
"57 171 OFFCURVE",
"54 174 OFFCURVE",
"54 176 CURVE",
"51 181 OFFCURVE",
"49 187 OFFCURVE",
"48 191 CURVE",
"49 202 OFFCURVE",
"50 213 OFFCURVE",
"52 222 CURVE",
"55 240 OFFCURVE",
"52 256 OFFCURVE",
"48 272 CURVE",
"47 274 OFFCURVE",
"46 276 OFFCURVE",
"47 279 CURVE",
"47 283 OFFCURVE",
"46 289 OFFCURVE",
"41 287 CURVE",
"36 286 OFFCURVE",
"33 281 OFFCURVE",
"31 277 CURVE",
"30 272 OFFCURVE",
"30 266 OFFCURVE",
"29 260 CURVE",
"28 259 OFFCURVE",
"26 256 OFFCURVE",
"24 254 CURVE",
"23 254 OFFCURVE",
"22 255 OFFCURVE",
"22 255 CURVE",
"23 265 OFFCURVE",
"23 275 OFFCURVE",
"25 285 CURVE",
"26 291 OFFCURVE",
"28 298 OFFCURVE",
"30 305 CURVE",
"33 312 OFFCURVE",
"35 321 OFFCURVE",
"39 330 CURVE",
"42 336 OFFCURVE",
"49 337 OFFCURVE",
"53 330 CURVE",
"55 329 OFFCURVE",
"59 328 OFFCURVE",
"61 327 CURVE",
"61 327 OFFCURVE",
"62 327 OFFCURVE",
"63 326 CURVE",
"71 320 OFFCURVE",
"71 320 OFFCURVE",
"74 330 CURVE",
"71 332 OFFCURVE",
"68 333 OFFCURVE",
"66 336 CURVE",
"71 340 OFFCURVE",
"76 343 OFFCURVE",
"82 348 CURVE",
"80 351 OFFCURVE",
"79 354 OFFCURVE",
"78 357 CURVE",
"78 360 OFFCURVE",
"79 363 OFFCURVE",
"80 366 CURVE",
"82 369 OFFCURVE",
"85 371 OFFCURVE",
"85 374 CURVE",
"86 391 OFFCURVE",
"87 409 OFFCURVE",
"87 426 CURVE",
"87 435 OFFCURVE",
"87 444 OFFCURVE",
"88 452 CURVE",
"89 455 OFFCURVE",
"90 458 OFFCURVE",
"92 458 CURVE",
"101 466 OFFCURVE",
"99 476 OFFCURVE",
"96 485 CURVE",
"105 485 OFFCURVE",
"107 489 OFFCURVE",
"103 496 CURVE",
"100 502 OFFCURVE",
"100 506 OFFCURVE",
"98 511 CURVE",
"95 518 OFFCURVE",
"88 521 OFFCURVE",
"81 518 CURVE",
"77 517 OFFCURVE",
"72 518 OFFCURVE",
"68 519 CURVE",
"61 520 OFFCURVE",
"55 523 OFFCURVE",
"48 524 CURVE",
"42 526 OFFCURVE",
"35 526 OFFCURVE",
"27 525 CURVE",
"19 525 OFFCURVE",
"12 525 OFFCURVE",
"3 525 CURVE",
"4 542 OFFCURVE",
"-5 552 OFFCURVE",
"-19 559 CURVE",
"-21 559 OFFCURVE",
"-22 566 OFFCURVE",
"-22 568 CURVE",
"-18 576 OFFCURVE",
"-19 582 OFFCURVE",
"-29 584 CURVE",
"-32 586 OFFCURVE",
"-34 589 OFFCURVE",
"-34 592 CURVE",
"-34 596 OFFCURVE",
"-34 602 OFFCURVE",
"-32 606 CURVE",
"-26 613 OFFCURVE",
"-33 617 OFFCURVE",
"-35 622 CURVE",
"-37 631 OFFCURVE",
"-42 640 OFFCURVE",
"-39 647 CURVE",
"-36 655 OFFCURVE",
"-27 661 OFFCURVE",
"-19 664 CURVE",
"-6 669 OFFCURVE",
"8 674 OFFCURVE",
"21 677 CURVE",
"34 681 OFFCURVE",
"46 682 OFFCURVE",
"57 684 CURVE",
"68 686 OFFCURVE",
"77 687 OFFCURVE",
"86 688 CURVE",
"88 688 OFFCURVE",
"91 687 OFFCURVE",
"94 688 CURVE",
"107 689 OFFCURVE",
"122 692 OFFCURVE",
"136 693 CURVE",
"140 693 OFFCURVE",
"143 693 OFFCURVE",
"147 694 CURVE",
"156 695 OFFCURVE",
"166 695 OFFCURVE",
"177 697 CURVE",
"184 697 OFFCURVE",
"192 698 OFFCURVE",
"199 699 CURVE",
"213 701 OFFCURVE",
"227 703 OFFCURVE",
"241 705 CURVE",
"244 705 OFFCURVE",
"248 704 OFFCURVE",
"251 705 CURVE",
"255 705 OFFCURVE",
"260 705 OFFCURVE",
"264 706 CURVE",
"277 707 OFFCURVE",
"291 709 OFFCURVE",
"303 710 CURVE",
"308 711 OFFCURVE",
"313 711 OFFCURVE",
"317 713 CURVE",
"335 716 OFFCURVE",
"353 721 OFFCURVE",
"370 721 CURVE",
"384 721 OFFCURVE",
"399 728 OFFCURVE",
"412 718 CURVE",
"412 717 OFFCURVE",
"416 717 OFFCURVE",
"418 718 CURVE",
"429 721 OFFCURVE",
"441 719 OFFCURVE",
"451 713 CURVE",
"452 713 OFFCURVE",
"453 713 OFFCURVE",
"453 713 CURVE",
"472 718 OFFCURVE",
"474 698 OFFCURVE",
"484 691 CURVE",
"491 686 OFFCURVE",
"497 679 OFFCURVE",
"502 671 CURVE",
"505 664 OFFCURVE",
"506 656 OFFCURVE",
"509 649 CURVE",
"513 637 OFFCURVE",
"507 623 OFFCURVE",
"518 613 CURVE",
"521 611 OFFCURVE",
"520 604 OFFCURVE",
"519 601 CURVE",
"516 595 OFFCURVE",
"513 588 OFFCURVE",
"509 582 CURVE",
"509 581 OFFCURVE",
"509 580 OFFCURVE",
"509 579 CURVE",
"516 562 OFFCURVE",
"503 557 OFFCURVE",
"494 550 CURVE",
"490 548 OFFCURVE",
"488 545 OFFCURVE",
"486 542 CURVE",
"476 537 OFFCURVE",
"466 533 OFFCURVE",
"458 528 CURVE",
"448 523 OFFCURVE",
"438 516 OFFCURVE",
"429 510 CURVE",
"426 508 OFFCURVE",
"423 504 OFFCURVE",
"421 511 CURVE",
"421 511 OFFCURVE",
"418 512 OFFCURVE",
"416 512 CURVE",
"408 512 OFFCURVE",
"402 510 OFFCURVE",
"395 510 CURVE",
"393 511 OFFCURVE",
"391 513 OFFCURVE",
"389 513 CURVE",
"385 516 OFFCURVE",
"380 520 OFFCURVE",
"376 520 CURVE",
"365 517 OFFCURVE",
"352 524 OFFCURVE",
"341 514 CURVE",
"340 513 OFFCURVE",
"336 514 OFFCURVE",
"333 516 CURVE",
"326 519 OFFCURVE",
"319 521 OFFCURVE",
"312 514 CURVE"
);
},
{
closed = 1;
nodes = (
"75 447 OFFCURVE",
"72 446 OFFCURVE",
"70 443 CURVE",
"68 444 OFFCURVE",
"67 447 OFFCURVE",
"67 448 CURVE SMOOTH",
"69 451 OFFCURVE",
"72 452 OFFCURVE",
"74 453 CURVE",
"75 452 OFFCURVE",
"76 451 OFFCURVE",
"77 450 CURVE"
);
}
);
width = 550;
}
);
unicode = 0054;
},
{
glyphname = U;
lastChange = "2020-11-29 14:49:07 +0000";
layers = (
{
layerId = "5E01EF65-6B73-4EC0-899B-CA0420E2F636";
paths = (
{
closed = 1;
nodes = (
"561 600 OFFCURVE",
"561 598 OFFCURVE",
"561 597 CURVE",
"555 591 OFFCURVE",
"553 570 OFFCURVE",
"558 563 CURVE",
"558 560 OFFCURVE",
"558 556 OFFCURVE",
"557 553 CURVE",
"556 548 OFFCURVE",
"553 544 OFFCURVE",
"552 539 CURVE",
"551 529 OFFCURVE",
"548 518 OFFCURVE",
"554 508 CURVE",
"554 507 OFFCURVE",
"553 505 OFFCURVE",
"553 504 CURVE",
"551 498 OFFCURVE",
"546 492 OFFCURVE",
"544 487 CURVE",
"543 483 OFFCURVE",
"542 478 OFFCURVE",
"542 474 CURVE",
"540 463 OFFCURVE",
"540 451 OFFCURVE",
"539 440 CURVE",
"539 439 OFFCURVE",
"538 439 OFFCURVE",
"538 439 CURVE",
"535 428 OFFCURVE",
"533 417 OFFCURVE",
"530 406 CURVE",
"529 399 OFFCURVE",
"527 392 OFFCURVE",
"524 385 CURVE",
"523 380 OFFCURVE",
"518 374 OFFCURVE",
"520 371 CURVE",
"524 363 OFFCURVE",
"518 358 OFFCURVE",
"517 351 CURVE",
"513 339 OFFCURVE",
"508 327 OFFCURVE",
"508 313 CURVE",
"508 299 OFFCURVE",
"501 284 OFFCURVE",
"499 270 CURVE",
"497 259 OFFCURVE",
"497 249 OFFCURVE",
"496 239 CURVE",
"495 231 OFFCURVE",
"494 224 OFFCURVE",
"493 216 CURVE",
"493 208 OFFCURVE",
"491 200 OFFCURVE",
"491 192 CURVE",
"492 186 OFFCURVE",
"495 179 OFFCURVE",
"494 174 CURVE",
"492 161 OFFCURVE",
"487 148 OFFCURVE",
"490 135 CURVE",
"491 134 OFFCURVE",
"489 131 OFFCURVE",
"489 130 CURVE",
"486 122 OFFCURVE",
"483 114 OFFCURVE",
"482 106 CURVE",
"482 97 OFFCURVE",
"480 90 OFFCURVE",
"473 85 CURVE",
"460 75 OFFCURVE",
"447 65 OFFCURVE",
"435 55 CURVE",
"433 55 OFFCURVE",
"430 59 OFFCURVE",
"429 58 CURVE",
"418 53 OFFCURVE",
"413 58 OFFCURVE",
"404 63 CURVE",
"386 73 OFFCURVE",
"364 80 OFFCURVE",
"356 103 CURVE",
"355 101 OFFCURVE",
"354 99 OFFCURVE",
"353 98 CURVE",
"351 103 OFFCURVE",
"350 108 OFFCURVE",
"348 113 CURVE",
"345 120 OFFCURVE",
"338 126 OFFCURVE",
"345 136 CURVE",
"346 137 OFFCURVE",
"345 143 OFFCURVE",
"342 145 CURVE",
"338 150 OFFCURVE",
"335 155 OFFCURVE",
"336 162 CURVE",
"336 164 OFFCURVE",
"335 166 OFFCURVE",
"335 167 CURVE",
"328 179 OFFCURVE",
"316 189 OFFCURVE",
"316 204 CURVE",
"316 206 OFFCURVE",
"313 207 OFFCURVE",
"311 208 CURVE",
"304 200 OFFCURVE",
"299 192 OFFCURVE",
"291 188 CURVE",
"285 183 OFFCURVE",
"277 180 OFFCURVE",
"272 173 CURVE",
"261 159 OFFCURVE",
"250 147 OFFCURVE",
"235 136 CURVE",
"224 130 OFFCURVE",
"215 121 OFFCURVE",
"204 116 CURVE",
"193 110 OFFCURVE",
"183 105 OFFCURVE",
"174 98 CURVE",
"159 83 OFFCURVE",
"142 72 OFFCURVE",
"123 62 CURVE",
"116 59 OFFCURVE",
"108 53 OFFCURVE",
"101 54 CURVE",
"90 55 OFFCURVE",
"81 51 OFFCURVE",
"73 46 CURVE",
"63 41 OFFCURVE",
"54 40 OFFCURVE",
"43 43 CURVE",
"44 43 LINE",
"44 44 OFFCURVE",
"44 45 OFFCURVE",
"45 46 CURVE",
"50 50 OFFCURVE",
"50 56 OFFCURVE",
"45 61 CURVE",
"40 65 OFFCURVE",
"37 61 OFFCURVE",
"34 56 CURVE",
"33 56 OFFCURVE",
"30 55 OFFCURVE",
"30 56 CURVE",
"29 57 OFFCURVE",
"27 59 OFFCURVE",
"28 61 CURVE",
"28 68 OFFCURVE",
"26 72 OFFCURVE",
"20 75 CURVE",
"16 77 OFFCURVE",
"11 78 OFFCURVE",
"8 82 CURVE",
"3 85 OFFCURVE",
"-2 89 OFFCURVE",
"3 96 CURVE",
"1 99 OFFCURVE",
"-2 104 OFFCURVE",
"-6 105 CURVE",
"-15 111 OFFCURVE",
"-22 118 OFFCURVE",
"-26 128 CURVE",
"-29 134 OFFCURVE",
"-34 138 OFFCURVE",
"-39 145 CURVE",
"-39 147 OFFCURVE",
"-42 150 OFFCURVE",
"-42 153 CURVE",
"-42 166 OFFCURVE",
"-48 178 OFFCURVE",
"-51 190 CURVE",
"-52 193 OFFCURVE",
"-53 197 OFFCURVE",
"-56 200 CURVE",
"-71 215 OFFCURVE",
"-72 230 OFFCURVE",
"-60 248 CURVE",
"-53 259 OFFCURVE",
"-52 272 OFFCURVE",
"-52 285 CURVE",
"-52 294 OFFCURVE",
"-53 302 OFFCURVE",
"-52 310 CURVE",
"-50 318 OFFCURVE",
"-49 326 OFFCURVE",
"-47 335 CURVE",
"-42 348 OFFCURVE",
"-41 361 OFFCURVE",
"-44 374 CURVE",
"-43 376 OFFCURVE",
"-43 379 OFFCURVE",
"-42 381 CURVE",
"-38 390 OFFCURVE",
"-36 400 OFFCURVE",
"-29 407 CURVE",
"-25 410 OFFCURVE",
"-25 415 OFFCURVE",
"-25 420 CURVE",
"-23 429 OFFCURVE",
"-25 440 OFFCURVE",
"-20 445 CURVE",
"-15 455 OFFCURVE",
"-11 464 OFFCURVE",
"-6 473 CURVE",
"2 487 OFFCURVE",
"6 501 OFFCURVE",
"8 516 CURVE",
"8 523 OFFCURVE",
"8 527 OFFCURVE",
"17 526 CURVE",
"19 538 OFFCURVE",
"20 550 OFFCURVE",
"23 562 CURVE",
"24 566 OFFCURVE",
"27 570 OFFCURVE",
"29 574 CURVE",
"37 584 OFFCURVE",
"45 594 OFFCURVE",
"53 606 CURVE",
"56 609 OFFCURVE",
"57 614 OFFCURVE",
"59 617 CURVE",
"64 623 OFFCURVE",
"68 629 OFFCURVE",
"72 634 CURVE",
"75 640 OFFCURVE",
"76 648 OFFCURVE",
"80 653 CURVE",
"90 662 OFFCURVE",
"99 673 OFFCURVE",
"116 671 CURVE",
"116 674 OFFCURVE",
"117 677 OFFCURVE",
"117 679 CURVE",
"121 679 OFFCURVE",
"124 679 OFFCURVE",
"128 679 CURVE",
"132 678 OFFCURVE",
"137 676 OFFCURVE",
"142 677 CURVE",
"149 676 OFFCURVE",
"151 673 OFFCURVE",
"151 666 CURVE",
"151 663 OFFCURVE",
"156 659 OFFCURVE",
"160 655 CURVE",
"161 660 OFFCURVE",
"161 663 OFFCURVE",
"162 666 CURVE",
"172 668 OFFCURVE",
"174 663 OFFCURVE",
"177 655 CURVE",
"178 650 OFFCURVE",
"183 644 OFFCURVE",
"188 643 CURVE",
"193 641 OFFCURVE",
"195 640 OFFCURVE",
"192 635 CURVE",
"187 624 OFFCURVE",
"192 614 OFFCURVE",
"199 605 CURVE",
"203 596 OFFCURVE",
"201 585 OFFCURVE",
"194 581 CURVE",
"189 579 OFFCURVE",
"186 577 OFFCURVE",
"184 573 CURVE",
"177 565 OFFCURVE",
"172 556 OFFCURVE",
"167 547 CURVE",
"164 541 OFFCURVE",
"161 537 OFFCURVE",
"158 531 CURVE",
"153 517 OFFCURVE",
"147 505 OFFCURVE",
"142 491 CURVE",
"137 480 OFFCURVE",
"132 469 OFFCURVE",
"129 458 CURVE",
"127 447 OFFCURVE",
"121 440 OFFCURVE",
"122 428 CURVE",
"122 417 OFFCURVE",
"109 407 OFFCURVE",
"116 395 CURVE",
"116 394 OFFCURVE",
"115 393 OFFCURVE",
"113 391 CURVE",
"109 379 OFFCURVE",
"104 367 OFFCURVE",
"100 354 CURVE",
"99 349 OFFCURVE",
"100 344 OFFCURVE",
"98 339 CURVE",
"90 323 OFFCURVE",
"87 306 OFFCURVE",
"87 288 CURVE",
"87 280 OFFCURVE",
"91 277 OFFCURVE",
"98 279 CURVE",
"106 280 OFFCURVE",
"115 284 OFFCURVE",
"121 288 CURVE",
"129 293 OFFCURVE",
"132 293 OFFCURVE",
"135 284 CURVE",
"147 289 OFFCURVE",
"147 289 OFFCURVE",
"144 300 CURVE",
"144 301 OFFCURVE",
"143 302 OFFCURVE",
"144 303 CURVE",
"145 305 OFFCURVE",
"148 307 OFFCURVE",
"151 311 CURVE",
"151 306 OFFCURVE",
"151 304 OFFCURVE",
"151 302 CURVE",
"163 302 OFFCURVE",
"167 312 OFFCURVE",
"167 318 CURVE",
"166 328 OFFCURVE",
"170 336 OFFCURVE",
"174 344 CURVE",
"175 348 OFFCURVE",
"176 353 OFFCURVE",
"180 355 CURVE",
"182 358 OFFCURVE",
"186 361 OFFCURVE",
"189 363 CURVE",
"192 359 OFFCURVE",
"195 353 OFFCURVE",
"198 353 CURVE",
"211 354 OFFCURVE",
"204 364 OFFCURVE",
"206 370 CURVE",
"212 373 OFFCURVE",
"220 375 OFFCURVE",
"224 380 CURVE",
"233 389 OFFCURVE",
"243 398 OFFCURVE",
"244 413 CURVE",
"243 421 OFFCURVE",
"247 429 OFFCURVE",
"254 436 CURVE",
"258 440 OFFCURVE",
"272 448 OFFCURVE",
"262 460 CURVE",
"261 461 OFFCURVE",
"263 465 OFFCURVE",
"263 467 CURVE",
"266 472 OFFCURVE",
"267 477 OFFCURVE",
"269 483 CURVE",
"275 485 OFFCURVE",
"281 488 OFFCURVE",
"274 498 CURVE",
"273 500 OFFCURVE",
"276 506 OFFCURVE",
"278 507 CURVE",
"286 510 OFFCURVE",
"294 524 OFFCURVE",
"294 533 CURVE",
"295 546 OFFCURVE",
"288 560 OFFCURVE",
"295 573 CURVE",
"296 575 OFFCURVE",
"297 578 OFFCURVE",
"297 582 CURVE",
"294 582 OFFCURVE",
"291 581 OFFCURVE",
"288 581 CURVE",
"285 581 OFFCURVE",
"282 581 OFFCURVE",
"279 582 CURVE",
"278 582 OFFCURVE",
"277 585 OFFCURVE",
"277 587 CURVE",
"279 594 OFFCURVE",
"281 602 OFFCURVE",
"283 609 CURVE",
"285 613 OFFCURVE",
"287 616 OFFCURVE",
"289 621 CURVE",
"298 609 OFFCURVE",
"292 599 OFFCURVE",
"295 588 CURVE",
"307 601 OFFCURVE",
"319 612 OFFCURVE",
"325 628 CURVE",
"324 630 OFFCURVE",
"322 632 OFFCURVE",
"320 635 CURVE",
"321 635 OFFCURVE",
"322 634 OFFCURVE",
"323 634 CURVE",
"327 644 OFFCURVE",
"332 653 OFFCURVE",
"334 663 CURVE",
"336 673 OFFCURVE",
"332 683 OFFCURVE",
"334 691 CURVE",
"338 700 OFFCURVE",
"337 710 OFFCURVE",
"334 717 CURVE",
"331 728 OFFCURVE",
"334 731 OFFCURVE",
"345 730 CURVE",
"344 733 OFFCURVE",
"343 736 OFFCURVE",
"343 738 CURVE",
"345 742 OFFCURVE",
"347 746 OFFCURVE",
"349 749 CURVE",
"356 754 OFFCURVE",
"364 758 OFFCURVE",
"370 765 CURVE",
"375 771 OFFCURVE",
"380 772 OFFCURVE",
"387 774 CURVE",
"390 773 OFFCURVE",
"393 775 OFFCURVE",
"397 777 CURVE",
"400 779 OFFCURVE",
"403 781 OFFCURVE",
"406 782 CURVE",
"418 784 OFFCURVE",
"431 788 OFFCURVE",
"443 788 CURVE",
"453 787 OFFCURVE",
"462 783 OFFCURVE",
"471 779 CURVE",
"485 769 OFFCURVE",
"502 762 OFFCURVE",
"509 744 CURVE",
"512 737 OFFCURVE",
"516 730 OFFCURVE",
"522 723 CURVE",
"534 710 OFFCURVE",
"541 695 OFFCURVE",
"541 677 CURVE",
"541 675 OFFCURVE",
"543 670 OFFCURVE",
"545 670 CURVE",
"551 669 OFFCURVE",
"552 665 OFFCURVE",
"551 660 CURVE",
"553 649 OFFCURVE",
"555 639 OFFCURVE",
"556 628 CURVE",
"557 621 OFFCURVE",
"558 615 OFFCURVE",
"558 608 CURVE",
"559 606 OFFCURVE",
"561 604 OFFCURVE",
"562 601 CURVE"
);
},
{
closed = 1;
nodes = (
"40 38 OFFCURVE",
"27 37 OFFCURVE",
"23 41 CURVE SMOOTH",
"23 42 OFFCURVE",
"22 45 OFFCURVE",
"23 46 CURVE SMOOTH",
"24 47 OFFCURVE",
"27 49 OFFCURVE",
"28 48 CURVE SMOOTH",
"33 47 OFFCURVE",
"38 45 OFFCURVE",
"44 43 CURVE",
"44 43 OFFCURVE",
"43 43 OFFCURVE",
"43 43 CURVE"
);
}
);
width = 600;
}
);
unicode = 0055;
},
{
glyphname = V;
lastChange = "2020-11-29 14:49:11 +0000";
layers = (
{
layerId = "5E01EF65-6B73-4EC0-899B-CA0420E2F636";
paths = (
{
closed = 1;
nodes = (
"174 243 OFFCURVE",
"182 253 OFFCURVE",
"181 268 CURVE",
"181 272 OFFCURVE",
"184 278 OFFCURVE",
"186 279 CURVE",
"196 282 OFFCURVE",
"199 289 OFFCURVE",
"201 298 CURVE",
"204 309 OFFCURVE",
"209 320 OFFCURVE",
"213 331 CURVE",
"214 334 OFFCURVE",
"215 338 OFFCURVE",
"216 341 CURVE",
"219 348 OFFCURVE",
"217 358 OFFCURVE",
"229 359 CURVE",
"230 359 OFFCURVE",
"232 362 OFFCURVE",
"232 363 CURVE",
"232 372 OFFCURVE",
"243 378 OFFCURVE",
"238 387 CURVE",
"244 392 OFFCURVE",
"242 397 OFFCURVE",
"239 403 CURVE",
"239 404 OFFCURVE",
"239 405 OFFCURVE",
"240 406 CURVE",
"242 411 OFFCURVE",
"244 416 OFFCURVE",
"246 421 CURVE",
"249 425 OFFCURVE",
"253 428 OFFCURVE",
"257 432 CURVE",
"261 436 OFFCURVE",
"264 441 OFFCURVE",
"260 447 CURVE",
"258 450 OFFCURVE",
"259 455 OFFCURVE",
"260 459 CURVE",
"261 464 OFFCURVE",
"262 468 OFFCURVE",
"263 472 CURVE",
"262 473 OFFCURVE",
"261 474 OFFCURVE",
"261 475 CURVE",
"257 472 OFFCURVE",
"254 470 OFFCURVE",
"251 468 CURVE",
"248 466 OFFCURVE",
"247 463 OFFCURVE",
"245 461 CURVE",
"243 460 OFFCURVE",
"240 460 OFFCURVE",
"238 459 CURVE",
"238 461 OFFCURVE",
"238 463 OFFCURVE",
"238 466 CURVE",
"240 474 OFFCURVE",
"242 481 OFFCURVE",
"244 489 CURVE",
"245 491 OFFCURVE",
"247 492 OFFCURVE",
"248 494 CURVE",
"250 499 OFFCURVE",
"253 505 OFFCURVE",
"255 511 CURVE",
"258 523 OFFCURVE",
"261 536 OFFCURVE",
"265 549 CURVE",
"266 553 OFFCURVE",
"266 558 OFFCURVE",
"267 562 CURVE",
"268 566 OFFCURVE",
"269 569 OFFCURVE",
"271 572 CURVE",
"276 586 OFFCURVE",
"282 600 OFFCURVE",
"286 614 CURVE",
"288 622 OFFCURVE",
"287 622 OFFCURVE",
"295 625 CURVE",
"295 623 OFFCURVE",
"294 621 OFFCURVE",
"294 620 CURVE",
"295 614 OFFCURVE",
"296 607 OFFCURVE",
"304 606 CURVE",
"313 605 OFFCURVE",
"311 613 OFFCURVE",
"312 618 CURVE",
"314 628 OFFCURVE",
"315 638 OFFCURVE",
"317 649 CURVE",
"315 648 OFFCURVE",
"314 646 OFFCURVE",
"313 647 CURVE",
"311 647 OFFCURVE",
"308 647 OFFCURVE",
"306 648 CURVE",
"305 650 OFFCURVE",
"304 653 OFFCURVE",
"304 655 CURVE",
"305 656 OFFCURVE",
"308 657 OFFCURVE",
"310 658 CURVE",
"315 658 OFFCURVE",
"320 659 OFFCURVE",
"324 659 CURVE",
"327 658 OFFCURVE",
"329 656 OFFCURVE",
"332 654 CURVE",
"340 657 OFFCURVE",
"336 664 OFFCURVE",
"336 670 CURVE",
"336 673 OFFCURVE",
"337 676 OFFCURVE",
"337 680 CURVE",
"338 686 OFFCURVE",
"339 693 OFFCURVE",
"339 700 CURVE",
"330 700 OFFCURVE",
"323 700 OFFCURVE",
"315 700 CURVE",
"318 707 OFFCURVE",
"320 712 OFFCURVE",
"322 717 CURVE",
"328 716 OFFCURVE",
"334 714 OFFCURVE",
"337 716 CURVE",
"340 717 OFFCURVE",
"339 725 OFFCURVE",
"341 731 CURVE",
"344 730 OFFCURVE",
"350 729 OFFCURVE",
"354 726 CURVE",
"359 723 OFFCURVE",
"362 725 OFFCURVE",
"364 728 CURVE",
"368 734 OFFCURVE",
"373 740 OFFCURVE",
"376 747 CURVE",
"381 760 OFFCURVE",
"390 762 OFFCURVE",
"402 764 CURVE",
"415 765 OFFCURVE",
"428 767 OFFCURVE",
"441 770 CURVE",
"460 776 OFFCURVE",
"472 770 OFFCURVE",
"480 751 CURVE",
"482 745 OFFCURVE",
"489 742 OFFCURVE",
"493 737 CURVE",
"498 730 OFFCURVE",
"502 723 OFFCURVE",
"500 713 CURVE",
"499 708 OFFCURVE",
"503 701 OFFCURVE",
"505 695 CURVE",
"507 687 OFFCURVE",
"509 679 OFFCURVE",
"511 671 CURVE",
"512 665 OFFCURVE",
"514 660 OFFCURVE",
"514 655 CURVE",
"515 651 OFFCURVE",
"514 647 OFFCURVE",
"513 644 CURVE",
"506 631 OFFCURVE",
"499 619 OFFCURVE",
"492 606 CURVE",
"490 602 OFFCURVE",
"491 596 OFFCURVE",
"490 592 CURVE",
"490 589 OFFCURVE",
"490 585 OFFCURVE",
"488 582 CURVE",
"484 572 OFFCURVE",
"478 562 OFFCURVE",
"473 552 CURVE",
"471 547 OFFCURVE",
"470 542 OFFCURVE",
"469 536 CURVE",
"464 518 OFFCURVE",
"461 499 OFFCURVE",
"455 481 CURVE",
"447 457 OFFCURVE",
"442 433 OFFCURVE",
"430 410 CURVE",
"427 404 OFFCURVE",
"426 396 OFFCURVE",
"424 390 CURVE",
"421 383 OFFCURVE",
"419 376 OFFCURVE",
"416 369 CURVE",
"409 356 OFFCURVE",
"402 343 OFFCURVE",
"396 330 CURVE",
"391 319 OFFCURVE",
"388 307 OFFCURVE",
"384 296 CURVE",
"383 294 OFFCURVE",
"383 292 OFFCURVE",
"382 291 CURVE",
"375 277 OFFCURVE",
"367 264 OFFCURVE",
"361 251 CURVE",
"354 235 OFFCURVE",
"348 218 OFFCURVE",
"341 203 CURVE",
"336 193 OFFCURVE",
"330 185 OFFCURVE",
"325 176 CURVE",
"321 167 OFFCURVE",
"318 156 OFFCURVE",
"312 147 CURVE",
"303 131 OFFCURVE",
"292 115 OFFCURVE",
"282 99 CURVE",
"281 98 OFFCURVE",
"279 98 OFFCURVE",
"278 97 CURVE",
"273 92 OFFCURVE",
"267 87 OFFCURVE",
"263 81 CURVE",
"258 76 OFFCURVE",
"256 69 OFFCURVE",
"251 65 CURVE",
"236 54 OFFCURVE",
"221 42 OFFCURVE",
"205 32 CURVE",
"201 29 OFFCURVE",
"196 29 OFFCURVE",
"191 27 CURVE",
"184 25 OFFCURVE",
"178 22 OFFCURVE",
"171 20 CURVE",
"168 19 OFFCURVE",
"165 18 OFFCURVE",
"162 18 CURVE",
"157 18 OFFCURVE",
"153 19 OFFCURVE",
"149 18 CURVE",
"143 18 OFFCURVE",
"140 18 OFFCURVE",
"138 25 CURVE",
"137 29 OFFCURVE",
"130 32 OFFCURVE",
"126 35 CURVE",
"122 37 OFFCURVE",
"118 40 OFFCURVE",
"113 42 CURVE",
"111 44 OFFCURVE",
"108 45 OFFCURVE",
"106 46 CURVE",
"94 52 OFFCURVE",
"81 55 OFFCURVE",
"71 63 CURVE",
"64 69 OFFCURVE",
"60 81 OFFCURVE",
"56 90 CURVE",
"49 107 OFFCURVE",
"44 124 OFFCURVE",
"37 141 CURVE",
"32 156 OFFCURVE",
"26 169 OFFCURVE",
"21 184 CURVE",
"19 190 OFFCURVE",
"20 197 OFFCURVE",
"20 203 CURVE",
"19 209 OFFCURVE",
"20 216 OFFCURVE",
"18 222 CURVE",
"14 238 OFFCURVE",
"9 253 OFFCURVE",
"5 269 CURVE",
"5 270 OFFCURVE",
"4 272 OFFCURVE",
"5 274 CURVE",
"10 292 OFFCURVE",
"5 310 OFFCURVE",
"1 327 CURVE",
"-3 344 OFFCURVE",
"2 357 OFFCURVE",
"4 373 CURVE",
"5 393 OFFCURVE",
"5 414 OFFCURVE",
"6 435 CURVE",
"7 441 OFFCURVE",
"9 448 OFFCURVE",
"9 455 CURVE",
"10 466 OFFCURVE",
"10 478 OFFCURVE",
"11 489 CURVE",
"11 497 OFFCURVE",
"12 505 OFFCURVE",
"13 514 CURVE",
"16 530 OFFCURVE",
"17 546 OFFCURVE",
"20 561 CURVE",
"21 567 OFFCURVE",
"24 572 OFFCURVE",
"25 578 CURVE",
"27 587 OFFCURVE",
"30 595 OFFCURVE",
"31 604 CURVE",
"33 619 OFFCURVE",
"33 620 OFFCURVE",
"48 622 CURVE",
"58 624 OFFCURVE",
"69 625 OFFCURVE",
"80 627 CURVE",
"82 627 OFFCURVE",
"85 629 OFFCURVE",
"87 631 CURVE",
"97 639 OFFCURVE",
"107 635 OFFCURVE",
"110 623 CURVE",
"112 617 OFFCURVE",
"115 611 OFFCURVE",
"119 608 CURVE",
"127 603 OFFCURVE",
"129 596 OFFCURVE",
"131 588 CURVE",
"133 577 OFFCURVE",
"136 567 OFFCURVE",
"139 556 CURVE",
"139 554 OFFCURVE",
"140 552 OFFCURVE",
"139 551 CURVE",
"135 543 OFFCURVE",
"137 534 OFFCURVE",
"137 526 CURVE",
"137 517 OFFCURVE",
"136 508 OFFCURVE",
"135 499 CURVE",
"134 485 OFFCURVE",
"134 471 OFFCURVE",
"133 457 CURVE",
"132 452 OFFCURVE",
"129 448 OFFCURVE",
"129 444 CURVE",
"129 424 OFFCURVE",
"123 405 OFFCURVE",
"130 385 CURVE",
"132 381 OFFCURVE",
"129 375 OFFCURVE",
"130 370 CURVE",
"132 346 OFFCURVE",
"134 322 OFFCURVE",
"137 298 CURVE",
"138 288 OFFCURVE",
"139 279 OFFCURVE",
"139 269 CURVE",
"139 260 OFFCURVE",
"142 253 OFFCURVE",
"150 248 CURVE",
"156 245 OFFCURVE",
"161 242 OFFCURVE",
"168 238 CURVE"
);
},
{
closed = 1;
nodes = (
"274 523 OFFCURVE",
"271 522 OFFCURVE",
"269 519 CURVE",
"266 515 OFFCURVE",
"266 508 OFFCURVE",
"259 506 CURVE",
"259 506 OFFCURVE",
"259 503 OFFCURVE",
"259 502 CURVE",
"261 502 OFFCURVE",
"263 501 OFFCURVE",
"264 502 CURVE",
"271 504 OFFCURVE",
"278 514 OFFCURVE",
"278 526 CURVE"
);
},
{
closed = 1;
nodes = (
"284 534 OFFCURVE",
"286 541 OFFCURVE",
"287 547 CURVE",
"287 549 OFFCURVE",
"284 551 OFFCURVE",
"283 552 CURVE",
"282 552 OFFCURVE",
"279 551 OFFCURVE",
"279 550 CURVE",
"278 542 OFFCURVE",
"272 535 OFFCURVE",
"283 526 CURVE"
);
},
{
closed = 1;
nodes = (
"265 492 OFFCURVE",
"264 492 OFFCURVE",
"263 493 CURVE",
"260 489 OFFCURVE",
"257 486 OFFCURVE",
"255 482 CURVE",
"255 481 OFFCURVE",
"259 478 OFFCURVE",
"261 477 CURVE",
"263 483 OFFCURVE",
"265 487 OFFCURVE",
"266 491 CURVE"
);
},
{
closed = 1;
nodes = (
"219 416 OFFCURVE",
"223 419 OFFCURVE",
"226 421 CURVE",
"227 419 OFFCURVE",
"229 417 OFFCURVE",
"229 415 CURVE SMOOTH",
"226 410 OFFCURVE",
"222 409 OFFCURVE",
"214 413 CURVE"
);
}
);
width = 500;
}
);
unicode = 0056;
},
{
glyphname = W;
lastChange = "2020-11-29 14:49:30 +0000";
layers = (
{
layerId = "5E01EF65-6B73-4EC0-899B-CA0420E2F636";
paths = (
{
closed = 1;
nodes = (
"739 421 OFFCURVE",
"739 420 OFFCURVE",
"739 418 CURVE",
"738 417 OFFCURVE",
"736 416 OFFCURVE",
"736 414 CURVE",
"735 407 OFFCURVE",
"735 400 OFFCURVE",
"735 392 CURVE",
"733 379 OFFCURVE",
"732 366 OFFCURVE",
"731 352 CURVE",
"730 337 OFFCURVE",
"732 321 OFFCURVE",
"730 305 CURVE",
"729 294 OFFCURVE",
"724 284 OFFCURVE",
"721 273 CURVE",
"719 265 OFFCURVE",
"716 256 OFFCURVE",
"715 247 CURVE",
"714 237 OFFCURVE",
"716 229 OFFCURVE",
"708 220 CURVE",
"703 213 OFFCURVE",
"698 203 OFFCURVE",
"703 192 CURVE",
"690 181 OFFCURVE",
"689 177 OFFCURVE",
"702 169 CURVE",
"695 160 OFFCURVE",
"674 155 OFFCURVE",
"691 138 CURVE",
"686 131 OFFCURVE",
"680 124 OFFCURVE",
"675 116 CURVE",
"673 118 OFFCURVE",
"671 119 OFFCURVE",
"671 120 CURVE",
"665 110 OFFCURVE",
"659 101 OFFCURVE",
"653 92 CURVE",
"650 88 OFFCURVE",
"647 85 OFFCURVE",
"645 81 CURVE",
"640 67 OFFCURVE",
"631 55 OFFCURVE",
"619 46 CURVE",
"603 34 OFFCURVE",
"587 22 OFFCURVE",
"571 10 CURVE",
"565 6 OFFCURVE",
"558 3 OFFCURVE",
"552 -1 CURVE",
"547 -5 OFFCURVE",
"543 -9 OFFCURVE",
"539 -13 CURVE",
"538 -15 OFFCURVE",
"537 -18 OFFCURVE",
"535 -19 CURVE",
"521 -27 OFFCURVE",
"506 -35 OFFCURVE",
"492 -43 CURVE",
"481 -50 OFFCURVE",
"467 -49 OFFCURVE",
"456 -45 CURVE",
"443 -39 OFFCURVE",
"431 -28 OFFCURVE",
"419 -19 CURVE",
"413 -14 OFFCURVE",
"407 -9 OFFCURVE",
"401 -5 CURVE",
"384 8 OFFCURVE",
"361 10 OFFCURVE",
"344 24 CURVE",
"332 34 OFFCURVE",
"324 45 OFFCURVE",
"319 59 CURVE",
"318 63 OFFCURVE",
"317 66 OFFCURVE",
"315 68 CURVE",
"310 74 OFFCURVE",
"304 80 OFFCURVE",
"299 86 CURVE",
"288 101 OFFCURVE",
"275 103 OFFCURVE",
"261 91 CURVE",
"259 90 OFFCURVE",
"258 88 OFFCURVE",
"256 86 CURVE",
"250 81 OFFCURVE",
"243 74 OFFCURVE",
"235 70 CURVE",
"222 63 OFFCURVE",
"207 56 OFFCURVE",
"192 51 CURVE",
"179 46 OFFCURVE",
"166 44 OFFCURVE",
"152 40 CURVE",
"152 41 OFFCURVE",
"153 43 OFFCURVE",
"153 44 CURVE",
"150 46 OFFCURVE",
"148 49 OFFCURVE",
"146 49 CURVE",
"142 50 OFFCURVE",
"139 49 OFFCURVE",
"135 48 CURVE",
"124 43 OFFCURVE",
"116 47 OFFCURVE",
"106 54 CURVE",
"94 65 OFFCURVE",
"80 72 OFFCURVE",
"67 81 CURVE",
"58 88 OFFCURVE",
"45 91 OFFCURVE",
"39 104 CURVE",
"36 114 OFFCURVE",
"30 123 OFFCURVE",
"25 132 CURVE",
"21 139 OFFCURVE",
"16 145 OFFCURVE",
"12 152 CURVE",
"11 153 OFFCURVE",
"11 155 OFFCURVE",
"10 156 CURVE",
"8 161 OFFCURVE",
"6 167 OFFCURVE",
"3 171 CURVE",
"-5 183 OFFCURVE",
"-11 195 OFFCURVE",
"-10 209 CURVE",
"-10 213 OFFCURVE",
"-11 216 OFFCURVE",
"-11 219 CURVE",
"-12 231 OFFCURVE",
"-13 243 OFFCURVE",
"-13 255 CURVE",
"-14 259 OFFCURVE",
"-14 264 OFFCURVE",
"-14 268 CURVE",
"-14 278 OFFCURVE",
"-15 287 OFFCURVE",
"-15 297 CURVE",
"-15 302 OFFCURVE",
"-15 307 OFFCURVE",
"-17 311 CURVE",
"-18 315 OFFCURVE",
"-21 318 OFFCURVE",
"-23 323 CURVE",
"-17 324 OFFCURVE",
"-14 324 OFFCURVE",
"-10 325 CURVE",
"-9 335 OFFCURVE",
"-7 346 OFFCURVE",
"-5 357 CURVE",
"-2 375 OFFCURVE",
"1 394 OFFCURVE",
"5 412 CURVE",
"6 421 OFFCURVE",
"7 431 OFFCURVE",
"8 440 CURVE",
"9 442 OFFCURVE",
"8 445 OFFCURVE",
"9 447 CURVE",
"16 461 OFFCURVE",
"23 475 OFFCURVE",
"27 491 CURVE",
"32 510 OFFCURVE",
"39 529 OFFCURVE",
"45 548 CURVE",
"52 568 OFFCURVE",
"59 588 OFFCURVE",
"67 607 CURVE",
"75 624 OFFCURVE",
"85 641 OFFCURVE",
"95 657 CURVE",
"96 659 OFFCURVE",
"101 661 OFFCURVE",
"104 661 CURVE",
"117 661 OFFCURVE",
"129 664 OFFCURVE",
"140 670 CURVE",
"143 672 OFFCURVE",
"149 670 OFFCURVE",
"152 667 CURVE",
"154 666 OFFCURVE",
"154 662 OFFCURVE",
"153 659 CURVE",
"153 654 OFFCURVE",
"152 650 OFFCURVE",
"151 645 CURVE",
"155 645 OFFCURVE",
"157 645 OFFCURVE",
"159 645 CURVE",
"161 646 OFFCURVE",
"173 644 OFFCURVE",
"174 642 CURVE",
"180 632 OFFCURVE",
"183 623 OFFCURVE",
"189 614 CURVE",
"194 607 OFFCURVE",
"190 593 OFFCURVE",
"187 582 CURVE",
"186 574 OFFCURVE",
"182 565 OFFCURVE",
"178 557 CURVE",
"171 544 OFFCURVE",
"172 528 OFFCURVE",
"164 514 CURVE",
"150 487 OFFCURVE",
"146 456 OFFCURVE",
"143 426 CURVE",
"142 415 OFFCURVE",
"139 405 OFFCURVE",
"137 394 CURVE",
"134 383 OFFCURVE",
"129 371 OFFCURVE",
"129 359 CURVE",
"128 353 OFFCURVE",
"127 347 OFFCURVE",
"125 341 CURVE",
"124 339 OFFCURVE",
"124 336 OFFCURVE",
"123 334 CURVE",
"123 319 OFFCURVE",
"122 305 OFFCURVE",
"122 290 CURVE",
"122 280 OFFCURVE",
"123 270 OFFCURVE",
"123 260 CURVE",
"124 253 OFFCURVE",
"122 246 OFFCURVE",
"124 239 CURVE",
"126 232 OFFCURVE",
"128 225 OFFCURVE",
"138 223 CURVE",
"150 220 OFFCURVE",
"158 226 OFFCURVE",
"166 231 CURVE",
"174 236 OFFCURVE",
"180 244 OFFCURVE",
"188 250 CURVE",
"200 259 OFFCURVE",
"201 264 OFFCURVE",
"191 275 CURVE",
"194 282 OFFCURVE",
"208 277 OFFCURVE",
"207 290 CURVE",
"207 289 LINE",
"208 290 OFFCURVE",
"210 290 OFFCURVE",
"210 291 CURVE",
"214 299 OFFCURVE",
"216 307 OFFCURVE",
"220 314 CURVE",
"227 323 OFFCURVE",
"224 334 OFFCURVE",
"225 344 CURVE",
"226 351 OFFCURVE",
"222 358 OFFCURVE",
"222 365 CURVE",
"221 371 OFFCURVE",
"220 376 OFFCURVE",
"227 380 CURVE",
"229 381 OFFCURVE",
"232 389 OFFCURVE",
"232 389 CURVE",
"225 394 OFFCURVE",
"231 397 OFFCURVE",
"233 401 CURVE",
"235 405 OFFCURVE",
"238 409 OFFCURVE",
"238 413 CURVE",
"238 421 OFFCURVE",
"241 427 OFFCURVE",
"246 430 CURVE",
"244 446 OFFCURVE",
"243 461 OFFCURVE",
"241 476 CURVE",
"245 476 OFFCURVE",
"248 475 OFFCURVE",
"251 474 CURVE",
"249 491 OFFCURVE",
"249 491 OFFCURVE",
"256 510 CURVE",
"257 511 OFFCURVE",
"257 511 OFFCURVE",
"257 512 CURVE",
"258 521 OFFCURVE",
"261 531 OFFCURVE",
"260 540 CURVE",
"259 548 OFFCURVE",
"262 554 OFFCURVE",
"266 560 CURVE",
"268 563 OFFCURVE",
"268 569 OFFCURVE",
"267 572 CURVE",
"263 582 OFFCURVE",
"258 591 OFFCURVE",
"253 600 CURVE",
"252 602 OFFCURVE",
"252 606 OFFCURVE",
"253 607 CURVE",
"255 609 OFFCURVE",
"258 610 OFFCURVE",
"260 609 CURVE",
"264 609 OFFCURVE",
"267 606 OFFCURVE",
"272 604 CURVE",
"269 615 OFFCURVE",
"266 623 OFFCURVE",
"264 631 CURVE",
"263 632 OFFCURVE",
"264 634 OFFCURVE",
"264 635 CURVE",
"271 640 OFFCURVE",
"278 647 OFFCURVE",
"286 651 CURVE",
"303 659 OFFCURVE",
"320 665 OFFCURVE",
"338 671 CURVE",
"349 675 OFFCURVE",
"362 677 OFFCURVE",
"373 670 CURVE",
"382 663 OFFCURVE",
"390 653 OFFCURVE",
"398 644 CURVE",
"403 638 OFFCURVE",
"406 628 OFFCURVE",
"412 623 CURVE",
"423 616 OFFCURVE",
"426 605 OFFCURVE",
"429 594 CURVE",
"431 587 OFFCURVE",
"432 579 OFFCURVE",
"434 572 CURVE",
"441 554 OFFCURVE",
"446 536 OFFCURVE",
"445 516 CURVE",
"444 494 OFFCURVE",
"443 471 OFFCURVE",
"441 449 CURVE",
"440 443 OFFCURVE",
"438 437 OFFCURVE",
"437 431 CURVE",
"436 427 OFFCURVE",
"436 422 OFFCURVE",
"435 417 CURVE",
"435 410 OFFCURVE",
"435 402 OFFCURVE",
"434 395 CURVE",
"433 387 OFFCURVE",
"430 379 OFFCURVE",
"429 370 CURVE",
"427 353 OFFCURVE",
"426 335 OFFCURVE",
"425 317 CURVE",
"424 313 OFFCURVE",
"422 309 OFFCURVE",
"422 306 CURVE",
"423 290 OFFCURVE",
"419 275 OFFCURVE",
"421 260 CURVE",
"421 249 OFFCURVE",
"419 237 OFFCURVE",
"418 226 CURVE",
"418 217 OFFCURVE",
"417 207 OFFCURVE",
"418 197 CURVE",
"419 190 OFFCURVE",
"423 184 OFFCURVE",
"425 178 CURVE",
"431 163 OFFCURVE",
"437 160 OFFCURVE",
"451 167 CURVE",
"455 169 OFFCURVE",
"456 174 OFFCURVE",
"460 176 CURVE",
"468 182 OFFCURVE",
"476 186 OFFCURVE",
"484 191 CURVE",
"485 191 OFFCURVE",
"486 190 OFFCURVE",
"486 190 CURVE",
"485 186 OFFCURVE",
"484 183 OFFCURVE",
"484 180 CURVE",
"484 180 OFFCURVE",
"485 179 OFFCURVE",
"486 179 CURVE",
"493 184 OFFCURVE",
"499 189 OFFCURVE",
"506 194 CURVE",
"515 200 OFFCURVE",
"520 208 OFFCURVE",
"523 218 CURVE",
"525 226 OFFCURVE",
"536 233 OFFCURVE",
"527 244 CURVE",
"527 244 OFFCURVE",
"530 248 OFFCURVE",
"532 250 CURVE",
"533 252 OFFCURVE",
"536 255 OFFCURVE",
"536 256 CURVE",
"532 266 OFFCURVE",
"538 273 OFFCURVE",
"541 281 CURVE",
"542 285 OFFCURVE",
"544 288 OFFCURVE",
"546 292 CURVE",
"548 295 OFFCURVE",
"550 299 OFFCURVE",
"551 302 CURVE",
"552 311 OFFCURVE",
"553 321 OFFCURVE",
"554 330 CURVE",
"554 332 OFFCURVE",
"553 334 OFFCURVE",
"553 335 CURVE",
"546 348 OFFCURVE",
"555 359 OFFCURVE",
"557 371 CURVE",
"558 375 OFFCURVE",
"562 379 OFFCURVE",
"563 384 CURVE",
"564 392 OFFCURVE",
"565 400 OFFCURVE",
"566 408 CURVE",
"566 410 OFFCURVE",
"565 413 OFFCURVE",
"563 414 CURVE",
"557 419 OFFCURVE",
"557 424 OFFCURVE",
"559 431 CURVE",
"560 435 OFFCURVE",
"560 439 OFFCURVE",
"560 442 CURVE",
"558 449 OFFCURVE",
"559 453 OFFCURVE",
"567 454 CURVE",
"574 455 OFFCURVE",
"576 459 OFFCURVE",
"574 466 CURVE",
"573 467 OFFCURVE",
"573 469 OFFCURVE",
"573 471 CURVE",
"572 475 OFFCURVE",
"572 479 OFFCURVE",
"570 482 CURVE",
"564 493 OFFCURVE",
"560 504 OFFCURVE",
"561 517 CURVE",
"561 526 OFFCURVE",
"559 528 OFFCURVE",
"550 527 CURVE",
"550 516 OFFCURVE",
"547 512 OFFCURVE",
"538 513 CURVE",
"539 523 OFFCURVE",
"540 532 OFFCURVE",
"541 543 CURVE",
"544 543 OFFCURVE",
"548 544 OFFCURVE",
"552 544 CURVE",
"552 545 OFFCURVE",
"552 546 OFFCURVE",
"553 547 CURVE",
"550 548 OFFCURVE",
"547 550 OFFCURVE",
"543 551 CURVE",
"544 552 OFFCURVE",
"545 555 OFFCURVE",
"546 555 CURVE",
"557 554 OFFCURVE",
"558 561 OFFCURVE",
"559 569 CURVE",
"560 579 OFFCURVE",
"561 590 OFFCURVE",
"562 601 CURVE",
"562 605 OFFCURVE",
"560 610 OFFCURVE",
"560 614 CURVE",
"560 619 OFFCURVE",
"559 625 OFFCURVE",
"562 628 CURVE",
"566 633 OFFCURVE",
"566 635 OFFCURVE",
"562 639 CURVE",
"560 640 OFFCURVE",
"560 642 OFFCURVE",
"559 645 CURVE",
"564 644 OFFCURVE",
"566 643 OFFCURVE",
"570 642 CURVE",
"571 652 OFFCURVE",
"573 661 OFFCURVE",
"574 670 CURVE",
"574 674 OFFCURVE",
"572 679 OFFCURVE",
"572 684 CURVE",
"572 698 OFFCURVE",
"573 713 OFFCURVE",
"574 727 CURVE",
"574 737 OFFCURVE",
"573 747 OFFCURVE",
"576 756 CURVE",
"579 769 OFFCURVE",
"585 782 OFFCURVE",
"591 794 CURVE",
"597 808 OFFCURVE",
"605 821 OFFCURVE",
"622 824 CURVE",
"627 825 OFFCURVE",
"631 831 OFFCURVE",
"637 833 CURVE",
"652 837 OFFCURVE",
"667 839 OFFCURVE",
"676 822 CURVE",
"676 821 OFFCURVE",
"677 819 OFFCURVE",
"678 819 CURVE",
"688 818 OFFCURVE",
"694 811 OFFCURVE",
"697 802 CURVE",
"702 788 OFFCURVE",
"708 775 OFFCURVE",
"712 762 CURVE",
"717 743 OFFCURVE",
"721 724 OFFCURVE",
"724 705 CURVE",
"726 698 OFFCURVE",
"724 690 OFFCURVE",
"724 682 CURVE",
"725 678 OFFCURVE",
"724 672 OFFCURVE",
"726 669 CURVE",
"733 659 OFFCURVE",
"732 650 OFFCURVE",
"729 640 CURVE",
"725 629 OFFCURVE",
"724 619 OFFCURVE",
"728 608 CURVE",
"731 602 OFFCURVE",
"733 595 OFFCURVE",
"733 588 CURVE",
"734 579 OFFCURVE",
"731 570 OFFCURVE",
"731 560 CURVE",
"731 549 OFFCURVE",
"734 537 OFFCURVE",
"734 526 CURVE",
"735 497 OFFCURVE",
"734 468 OFFCURVE",
"735 439 CURVE",
"735 433 OFFCURVE",
"738 428 OFFCURVE",
"739 422 CURVE"
);
},
{
closed = 1;
nodes = (
"206 324 OFFCURVE",
"206 334 OFFCURVE",
"207 344 CURVE",
"207 347 OFFCURVE",
"212 349 OFFCURVE",
"215 351 CURVE",
"216 348 OFFCURVE",
"218 345 OFFCURVE",
"218 342 CURVE",
"219 336 OFFCURVE",
"218 330 OFFCURVE",
"218 324 CURVE",
"217 314 OFFCURVE",
"218 314 OFFCURVE",
"206 313 CURVE"
);
},
{
closed = 1;
nodes = (
"543 441 OFFCURVE",
"545 441 OFFCURVE",
"547 441 CURVE",
"549 436 OFFCURVE",
"551 431 OFFCURVE",
"553 427 CURVE",
"549 423 OFFCURVE",
"545 419 OFFCURVE",
"541 414 CURVE",
"540 423 OFFCURVE",
"540 432 OFFCURVE",
"539 441 CURVE"
);
},
{
closed = 1;
nodes = (
"203 290 OFFCURVE",
"198 290 OFFCURVE",
"197 291 CURVE",
"195 295 OFFCURVE",
"196 299 OFFCURVE",
"196 303 CURVE",
"198 310 OFFCURVE",
"204 305 OFFCURVE",
"207 306 CURVE",
"208 303 OFFCURVE",
"209 300 OFFCURVE",
"209 297 CURVE",
"208 295 OFFCURVE",
"207 292 OFFCURVE",
"206 289 CURVE",
"207 289 OFFCURVE",
"207 290 OFFCURVE",
"207 290 CURVE"
);
},
{
closed = 1;
nodes = (
"528 330 OFFCURVE",
"527 334 OFFCURVE",
"528 338 CURVE",
"529 340 OFFCURVE",
"532 342 OFFCURVE",
"535 344 CURVE",
"536 342 OFFCURVE",
"539 338 OFFCURVE",
"538 337 CURVE",
"537 332 OFFCURVE",
"533 329 OFFCURVE",
"531 325 CURVE",
"530 325 OFFCURVE",
"529 326 OFFCURVE",
"528 326 CURVE"
);
},
{
closed = 1;
nodes = (
"527 284 OFFCURVE",
"524 281 OFFCURVE",
"521 276 CURVE",
"519 279 OFFCURVE",
"517 281 OFFCURVE",
"516 283 CURVE",
"520 286 OFFCURVE",
"524 288 OFFCURVE",
"528 291 CURVE",
"528 290 OFFCURVE",
"529 289 OFFCURVE",
"529 288 CURVE"
);
},
{
closed = 1;
nodes = (
"537 364 OFFCURVE",
"539 366 OFFCURVE",
"542 368 CURVE",
"543 368 OFFCURVE",
"545 365 OFFCURVE",
"546 364 CURVE",
"543 362 OFFCURVE",
"540 360 OFFCURVE",
"537 358 CURVE",
"536 359 OFFCURVE",
"535 361 OFFCURVE",
"534 362 CURVE"
);
},
{
closed = 1;
nodes = (
"542 600 OFFCURVE",
"539 602 OFFCURVE",
"534 605 CURVE",
"538 607 OFFCURVE",
"541 609 OFFCURVE",
"544 610 CURVE",
"545 607 OFFCURVE",
"546 604 OFFCURVE",
"547 600 CURVE",
"546 600 OFFCURVE",
"545 599 OFFCURVE",
"544 599 CURVE"
);
}
);
width = 800;
}
);
unicode = 0057;
},
{
glyphname = X;
lastChange = "2020-11-29 14:49:37 +0000";
layers = (
{
layerId = "5E01EF65-6B73-4EC0-899B-CA0420E2F636";
paths = (
{
closed = 1;
nodes = (
"426 57 OFFCURVE",
"426 57 OFFCURVE",
"420 45 CURVE",
"413 32 OFFCURVE",
"394 28 OFFCURVE",
"382 36 CURVE",
"376 39 OFFCURVE",
"369 42 OFFCURVE",
"363 44 CURVE",
"359 39 OFFCURVE",
"357 35 OFFCURVE",
"355 31 CURVE",
"354 32 OFFCURVE",
"353 32 OFFCURVE",
"352 33 CURVE",
"353 36 OFFCURVE",
"354 39 OFFCURVE",
"355 42 CURVE",
"346 50 OFFCURVE",
"338 59 OFFCURVE",
"330 67 CURVE",
"327 70 OFFCURVE",
"328 75 OFFCURVE",
"326 78 CURVE",
"316 93 OFFCURVE",
"307 109 OFFCURVE",
"296 123 CURVE",
"290 129 OFFCURVE",
"285 135 OFFCURVE",
"280 141 CURVE",
"280 143 OFFCURVE",
"278 144 OFFCURVE",
"278 145 CURVE",
"279 159 OFFCURVE",
"267 165 OFFCURVE",
"260 174 CURVE",
"256 180 OFFCURVE",
"255 188 OFFCURVE",
"251 194 CURVE",
"242 209 OFFCURVE",
"241 226 OFFCURVE",
"234 241 CURVE",
"231 246 OFFCURVE",
"226 250 OFFCURVE",
"221 255 CURVE",
"220 256 OFFCURVE",
"216 254 OFFCURVE",
"215 253 CURVE",
"208 239 OFFCURVE",
"196 228 OFFCURVE",
"195 211 CURVE",
"195 210 OFFCURVE",
"194 209 OFFCURVE",
"193 208 CURVE",
"179 196 OFFCURVE",
"172 180 OFFCURVE",
"164 164 CURVE",
"159 154 OFFCURVE",
"151 144 OFFCURVE",
"145 134 CURVE",
"142 129 OFFCURVE",
"142 121 OFFCURVE",
"138 116 CURVE",
"133 108 OFFCURVE",
"128 99 OFFCURVE",
"121 93 CURVE",
"112 86 OFFCURVE",
"113 76 OFFCURVE",
"110 67 CURVE",
"106 56 OFFCURVE",
"102 46 OFFCURVE",
"92 39 CURVE",
"81 32 OFFCURVE",
"75 19 OFFCURVE",
"66 11 CURVE",
"57 2 OFFCURVE",
"47 -4 OFFCURVE",
"35 -8 CURVE",
"26 -11 OFFCURVE",
"19 -19 OFFCURVE",
"11 -25 CURVE",
"7 -27 OFFCURVE",
"3 -30 OFFCURVE",
"0 -31 CURVE",
"-14 -32 OFFCURVE",
"-21 -25 OFFCURVE",
"-21 -11 CURVE",
"-21 -7 OFFCURVE",
"-22 -2 OFFCURVE",
"-24 2 CURVE",
"-21 7 OFFCURVE",
"-16 13 OFFCURVE",
"-23 19 CURVE",
"-24 19 OFFCURVE",
"-24 20 OFFCURVE",
"-24 20 CURVE",
"-21 42 OFFCURVE",
"-37 55 OFFCURVE",
"-45 72 CURVE",
"-46 74 OFFCURVE",
"-48 76 OFFCURVE",
"-47 77 CURVE",
"-45 92 OFFCURVE",
"-43 107 OFFCURVE",
"-40 122 CURVE",
"-39 130 OFFCURVE",
"-37 138 OFFCURVE",
"-37 147 CURVE",
"-37 151 OFFCURVE",
"-40 156 OFFCURVE",
"-42 160 CURVE",
"-42 161 OFFCURVE",
"-44 163 OFFCURVE",
"-44 164 CURVE",
"-45 170 OFFCURVE",
"-30 195 OFFCURVE",
"-24 197 CURVE",
"-23 197 OFFCURVE",
"-21 196 OFFCURVE",
"-18 196 CURVE",
"-20 190 OFFCURVE",
"-22 184 OFFCURVE",
"-24 179 CURVE",
"-24 178 OFFCURVE",
"-24 175 OFFCURVE",
"-23 175 CURVE",
"-22 174 OFFCURVE",
"-19 174 OFFCURVE",
"-18 174 CURVE",
"-12 176 OFFCURVE",
"1 197 OFFCURVE",
"-1 201 CURVE",
"-4 207 OFFCURVE",
"-8 212 OFFCURVE",
"-13 216 CURVE",
"-19 220 OFFCURVE",
"-23 223 OFFCURVE",
"-16 231 CURVE",
"-9 238 OFFCURVE",
"-2 247 OFFCURVE",
"5 255 CURVE",
"7 257 OFFCURVE",
"7 260 OFFCURVE",
"8 263 CURVE",
"19 262 OFFCURVE",
"20 261 OFFCURVE",
"16 251 CURVE",
"15 247 OFFCURVE",
"15 243 OFFCURVE",
"14 238 CURVE",
"27 241 OFFCURVE",
"35 252 OFFCURVE",
"35 262 CURVE",
"44 271 OFFCURVE",
"52 277 OFFCURVE",
"57 285 CURVE",
"64 296 OFFCURVE",
"69 308 OFFCURVE",
"75 320 CURVE",
"83 334 OFFCURVE",
"91 349 OFFCURVE",
"99 363 CURVE",
"103 373 OFFCURVE",
"106 383 OFFCURVE",
"109 392 CURVE",
"110 394 OFFCURVE",
"112 395 OFFCURVE",
"114 397 CURVE",
"120 402 OFFCURVE",
"128 407 OFFCURVE",
"133 414 CURVE",
"144 427 OFFCURVE",
"145 442 OFFCURVE",
"140 457 CURVE",
"134 475 OFFCURVE",
"130 492 OFFCURVE",
"124 509 CURVE",
"120 521 OFFCURVE",
"115 532 OFFCURVE",
"110 544 CURVE",
"108 549 OFFCURVE",
"107 554 OFFCURVE",
"106 558 CURVE",
"104 567 OFFCURVE",
"102 576 OFFCURVE",
"100 585 CURVE",
"99 592 OFFCURVE",
"98 598 OFFCURVE",
"97 604 CURVE",
"93 626 OFFCURVE",
"89 647 OFFCURVE",
"85 669 CURVE",
"84 675 OFFCURVE",
"83 682 OFFCURVE",
"80 687 CURVE",
"78 693 OFFCURVE",
"79 698 OFFCURVE",
"82 703 CURVE",
"84 707 OFFCURVE",
"87 712 OFFCURVE",
"90 716 CURVE",
"95 724 OFFCURVE",
"103 726 OFFCURVE",
"111 727 CURVE",
"117 728 OFFCURVE",
"123 730 OFFCURVE",
"129 732 CURVE",
"138 735 OFFCURVE",
"147 739 OFFCURVE",
"156 740 CURVE",
"159 741 OFFCURVE",
"164 736 OFFCURVE",
"168 733 CURVE",
"172 728 OFFCURVE",
"177 723 OFFCURVE",
"181 717 CURVE",
"185 710 OFFCURVE",
"188 703 OFFCURVE",
"191 696 CURVE",
"195 687 OFFCURVE",
"199 678 OFFCURVE",
"202 669 CURVE",
"207 655 OFFCURVE",
"210 641 OFFCURVE",
"214 627 CURVE",
"218 614 OFFCURVE",
"223 601 OFFCURVE",
"227 588 CURVE",
"229 584 OFFCURVE",
"230 580 OFFCURVE",
"232 575 CURVE",
"236 583 OFFCURVE",
"242 591 OFFCURVE",
"232 600 CURVE",
"227 606 OFFCURVE",
"236 622 OFFCURVE",
"246 624 CURVE",
"243 618 OFFCURVE",
"241 612 OFFCURVE",
"238 607 CURVE",
"239 606 OFFCURVE",
"239 606 OFFCURVE",
"240 605 CURVE",
"243 606 OFFCURVE",
"247 607 OFFCURVE",
"249 609 CURVE",
"255 616 OFFCURVE",
"260 623 OFFCURVE",
"266 629 CURVE",
"273 636 OFFCURVE",
"282 641 OFFCURVE",
"290 647 CURVE",
"295 651 OFFCURVE",
"300 656 OFFCURVE",
"304 661 CURVE",
"311 669 OFFCURVE",
"317 678 OFFCURVE",
"323 687 CURVE",
"324 689 OFFCURVE",
"324 692 OFFCURVE",
"325 694 CURVE",
"327 700 OFFCURVE",
"330 705 OFFCURVE",
"333 711 CURVE",
"320 715 OFFCURVE",
"332 722 OFFCURVE",
"333 728 CURVE",
"334 728 OFFCURVE",
"335 728 OFFCURVE",
"336 728 CURVE",
"337 724 OFFCURVE",
"337 720 OFFCURVE",
"338 715 CURVE",
"349 721 OFFCURVE",
"361 726 OFFCURVE",
"364 741 CURVE",
"365 742 OFFCURVE",
"370 745 OFFCURVE",
"372 745 CURVE",
"387 744 OFFCURVE",
"389 746 OFFCURVE",
"397 757 CURVE",
"402 765 OFFCURVE",
"411 772 OFFCURVE",
"420 775 CURVE",
"432 779 OFFCURVE",
"446 779 OFFCURVE",
"459 780 CURVE",
"467 781 OFFCURVE",
"469 774 OFFCURVE",
"470 768 CURVE",
"471 762 OFFCURVE",
"473 758 OFFCURVE",
"480 756 CURVE",
"486 755 OFFCURVE",
"489 751 OFFCURVE",
"489 743 CURVE",
"490 735 OFFCURVE",
"494 728 OFFCURVE",
"489 719 CURVE",
"488 716 OFFCURVE",
"493 708 OFFCURVE",
"497 704 CURVE",
"505 697 OFFCURVE",
"505 690 OFFCURVE",
"501 681 CURVE",
"496 666 OFFCURVE",
"489 652 OFFCURVE",
"480 640 CURVE",
"466 621 OFFCURVE",
"450 602 OFFCURVE",
"430 588 CURVE",
"416 578 OFFCURVE",
"403 566 OFFCURVE",
"392 552 CURVE",
"381 538 OFFCURVE",
"373 521 OFFCURVE",
"363 505 CURVE",
"358 498 OFFCURVE",
"353 492 OFFCURVE",
"348 485 CURVE",
"342 476 OFFCURVE",
"335 467 OFFCURVE",
"329 457 CURVE",
"320 443 OFFCURVE",
"311 429 OFFCURVE",
"302 415 CURVE",
"301 412 OFFCURVE",
"302 406 OFFCURVE",
"303 403 CURVE",
"311 384 OFFCURVE",
"320 364 OFFCURVE",
"329 345 CURVE",
"332 338 OFFCURVE",
"338 333 OFFCURVE",
"340 327 CURVE",
"346 312 OFFCURVE",
"359 302 OFFCURVE",
"360 285 CURVE",
"360 282 OFFCURVE",
"364 278 OFFCURVE",
"368 276 CURVE",
"381 270 OFFCURVE",
"386 258 OFFCURVE",
"392 245 CURVE",
"399 231 OFFCURVE",
"407 217 OFFCURVE",
"416 203 CURVE",
"428 188 OFFCURVE",
"433 169 OFFCURVE",
"442 152 CURVE",
"451 136 OFFCURVE",
"448 116 OFFCURVE",
"460 102 CURVE",
"461 101 OFFCURVE",
"461 101 OFFCURVE",
"461 100 CURVE",
"459 89 OFFCURVE",
"458 77 OFFCURVE",
"455 66 CURVE",
"454 61 OFFCURVE",
"447 59 OFFCURVE",
"443 56 CURVE",
"441 54 OFFCURVE",
"438 52 OFFCURVE",
"436 51 CURVE"
);
},
{
closed = 1;
nodes = (
"-46 162 OFFCURVE",
"-50 157 OFFCURVE",
"-60 155 CURVE",
"-57 160 OFFCURVE",
"-54 166 OFFCURVE",
"-52 172 CURVE"
);
},
{
closed = 1;
nodes = (
"92 393 OFFCURVE",
"93 389 OFFCURVE",
"94 385 CURVE SMOOTH",
"94 384 OFFCURVE",
"90 383 OFFCURVE",
"88 383 CURVE",
"87 387 OFFCURVE",
"86 392 OFFCURVE",
"84 396 CURVE",
"86 397 OFFCURVE",
"88 397 OFFCURVE",
"90 398 CURVE"
);
}
);
width = 550;
}
);
unicode = 0058;
},
